<svg width="24" height="5.724" viewBox="0 0 24 5.724"><path d="M5.637 5.344H4.306l-.408-.982H1.68l-.37.982H0l2-4.96h1.433ZM2.735 1.569l-.728 1.927h1.528zM10.472.383h1.076v4.96h-1.236V2.246L8.973 3.802h-.189L7.446 2.245v3.099H6.21V.384h1.076l1.593 1.84zm4.21 0c1.81 0 2.741 1.127 2.741 2.488 0 1.425-.902 2.473-2.88 2.473h-2.051V.384Zm-.954 4.052h.808c1.243 0 1.614-.844 1.614-1.572 0-.85-.458-1.57-1.629-1.57h-.793zm6.155-2.876L18.323 0H24v5.676l-1.56-1.559V1.559Zm-.002.313-1.605 1.605v2.247h2.247l1.605-1.605H19.88z"/></svg>