<svg xmlns="http://www.w3.org/2000/svg" xml:space="preserve" viewBox="0 0 24 18.26"><path fill="#faf7f9" d="M12.358 18.073c-.109.05-.218.1-.336.17a.5.5 0 0 1-.23.002c-.132-.081-.223-.16-.326-.214-.373-.196-.752-.383-1.1-.574 1.036.002 2.045.004 3.041.023-.297.152-.582.284-.862.428-.071.036-.125.109-.187.165z"/><path fill="#ff0e0e" d="M10.338 17.458c.376.19.755.378 1.128.573.103.054.194.133.304.215-.066.014-.146.014-.25.014-.11-.073-.186-.168-.285-.217-.714-.354-1.432-.7-2.15-1.047-.955-.46-1.915-.908-2.862-1.383-.423-.212-.812-.494-1.23-.716-.472-.25-.96-.47-1.44-.727a.24.24 0 0 1 .166-.019c.15.073.285.132.438.2.251.125.485.238.729.367.065.036.12.058.194.088.302.147.584.285.88.437.112.055.21.095.324.146.215.141.413.271.619.416.052.027.096.038.153.066.314.16.614.302.926.46.068.037.125.058.2.09.252.124.486.236.732.365.169.084.327.152.498.235.277.14.539.263.811.402.045.022.08.028.115.035"/><path fill="#ff0808" d="M1.717 13.357c-.097-.026-.2-.037-.288-.08-.466-.223-.929-.454-1.41-.666C0 12.319 0 12.01 0 11.676c.173.003.175-.103.174-.231-.004-.459.001-.917-.003-1.376 0-.128.006-.232.206-.183a.2.2 0 0 1 .053.125c.004.14.01.255.003.39-.003.046.005.074.007.126-.007.16-.008.294-.015.446.001.027.008.037.012.073-.001.179 0 .333-.003.51-.14.106-.273.188-.21.402-.003.065.001.108.002.176.02.161.043.297.076.45.079.041.147.068.232.106.29.142.563.272.846.417.065.038.12.06.195.091.06.06.101.11.143.159z"/><path fill="#fefeff" d="M16.721 9.227a.7.7 0 0 1-.218.047.5.5 0 0 0-.148-.037q-4.155-.002-8.312.002c-.077 0-.154.047-.25.066-.122-.06-.224-.112-.372-.19.204-.094.352-.162.528-.228 2.793.002 5.558 0 8.343.004.139.043.257.083.376.12 0-.003-.004 0-.008.02.017.079.039.137.06.195z"/><path fill="#fffefe" d="M8.443 9.638s-.022-.008-.044-.025c-.086-.056-.15-.095-.186-.137 2.555-.006 5.08-.008 7.607-.01.066 0 .132.017.18.036-.165.114-.312.217-.487.317-2.166-.004-4.303-.004-6.461-.008-.216-.06-.413-.117-.609-.173"/><path fill="#fbfbfc" d="M4.53 6.064a.3.3 0 0 1-.06.008c-.056.005-.08.01-.121.018-.082.03-.146.059-.229.072-1.243-.017-2.467-.018-3.692-.046.042-.196-.101-.444.228-.503 1.401.002 2.776 0 4.15.005.107 0 .214.043.308.081-.203.132-.393.249-.584.365z"/><path fill="#fefdfd" d="M12.823 3.325s.023-.004.058-.002c.303-.1.572-.203.869-.302 1.434.004 2.84.005 4.246.004.075 0 .149-.02.24-.031a.1.1 0 0 0 .04-.02s.004-.005.004.018a.23.23 0 0 0 .11.04s.004-.005.003.018c.037.03.074.035.112.04 0 0 .003-.006.003.018.037.029.075.034.113.04 0 0 .003-.007.003.017.037.03.074.035.112.04 0 0 .003-.006.004.018.033.08.066.137.07.196-1.973.005-3.916.008-5.859.007-.062 0-.125-.029-.176-.052.024-.022.036-.036.049-.05z"/><path fill="#fbfbfc" d="M7.522 4.518s-.02.003-.049-.002c-.058-.007-.088-.01-.136-.025-1.391-.018-2.762-.022-4.134-.03-.11 0-.219-.031-.312-.06.29-.143.562-.272.863-.4 1.4.004 2.774.003 4.147.007a1 1 0 0 1 .314.074c-.027.04-.042.065-.058.09L8.14 4.16c-.22.108-.42.233-.62.357z"/><path fill="#fdfcfd" d="m14.586 10.261-.104.009c-.134.044-.231.082-.356.119-1.38 0-2.731.002-4.103 0a7 7 0 0 1-.692-.371.4.4 0 0 1 .13-.034q2.606-.002 5.21 0c.073 0 .145.03.2.058-.106.08-.195.15-.285.219z"/><path fill="#e6e6e6" d="M16.018 9.491c-.066-.009-.132-.024-.199-.024-2.525 0-5.051.003-7.624.006-.16-.054-.271-.108-.383-.161.077-.025.153-.072.23-.072q4.157-.005 8.313-.002a.3.3 0 0 1 .127.037 1 1 0 0 1-.277.192c-.085.013-.136.019-.187.025z"/><path fill="#fcfbfd" d="M13.795 1.522a2.4 2.4 0 0 1-.383.21c-.183-.001-.344.028-.504.028q-1.992.005-3.984 0c-.1 0-.201-.03-.284-.056.253-.123.487-.235.75-.346 1.507.002 2.987.002 4.476.002z"/><path fill="#fcfbfc" d="M11.601 2.615a3 3 0 0 1-.432.21 2 2 0 0 0-.32-.026q-2.055 0-4.108-.002a.6.6 0 0 1-.228-.057c.252-.124.487-.236.749-.347 1.402.002 2.777 0 4.151.006.108 0 .216.041.31.077z"/><path fill="#fcfcfc" d="M17.584 5.098c-.009-.003-.019-.005-.053-.026-.265-.141-.505-.265-.726-.404.123-.021.227-.032.332-.032 1.397-.002 2.795-.003 4.214 0l.26.067s.002-.006 0 .018c.036.029.075.034.114.039 0 0 .003-.006 0 .018a.2.2 0 0 0 .115.04s.003-.006 0 .018a.2.2 0 0 0 .115.039s.001-.006-.008.013c.02.04.048.062.06.102a1.5 1.5 0 0 1-.327.047c-1.186.002-2.373 0-3.56.003-.1 0-.2.03-.325.046z"/><path fill="#ff0808" d="M12.8 3.32c.011.019 0 .032-.044.055-.084.038-.138.068-.211.103-.314.157-.61.308-.921.46-.055.022-.093.043-.15.067-.293.14-.566.276-.857.413-.11.051-.2.101-.31.156-.315.16-.611.317-.916.47-.008-.003-.014.014-.026.01-.02.003-.026.009-.032.014.006.006.01.016.017.019s.017-.003.022.017a10 10 0 0 1-.769.401c-.081.037-.144.074-.227.114-.332.158-.645.313-.975.468-.068.032-.118.064-.188.1-.252.122-.484.24-.736.36-.15.069-.282.136-.431.208-.274.138-.529.27-.803.402-.095.041-.172.08-.27.123-.12.054-.224.098-.319.158a2.6 2.6 0 0 0-.336.265c-.002.065 0 .11 0 .178-.002.141.001.258 0 .39v.644c-.002.123 0 .221-.001.343-.001.084.002.146 0 .227 0 .045.004.07.004.112-.007.027-.011.037-.015.048l-.223-.02c0-.65-.003-1.3.005-1.948 0-.057.064-.137.12-.164 1.028-.504 2.06-.998 3.09-1.5q.848-.416 1.69-.845c1.18-.605 2.358-1.215 3.54-1.817.07-.036.165-.025.272-.03z"/><path fill="#fdfafb" d="M17.933 11.641c-.026.021-.053.042-.116.065a1.4 1.4 0 0 1-.181.004c-.271.095-.525.194-.806.29-.913-.005-1.8-.003-2.685-.012-.097 0-.193-.062-.272-.104.143-.08.267-.152.39-.224.04-.002.078-.004.16-.004.2-.04.357-.084.54-.125.914.003 1.8 0 2.686.008.095 0 .19.066.284.101z"/><path fill="#fbfafd" d="M4.322 7.682c.11-.082.217-.17.332-.244.094-.06.2-.104.347-.156.927-.002 1.806-.003 2.685 0 .1 0 .202.03.288.055-.027.043-.04.075-.052.107a3 3 0 0 1-.43.21c-1.072-.003-2.121.012-3.17.028"/><path fill="#ff1010" d="M17.594 5.116a.5.5 0 0 1 .215-.019c.068.023.098.035.147.057.292.142.565.274.847.42.05.027.09.04.147.067.355.177.695.338 1.046.515.068.036.125.058.2.09.253.124.488.236.734.362.043.023.076.032.118.056.041.023.074.032.112.053.016.029.032.035.066.037.034.012.054.015.09.036.052.136.09.256.121.394-.002.045.003.07.003.121-.002.143 0 .26-.006.397-.002.045.003.07.005.123-.002.163 0 .3-.005.45-.007.01.003.034-.006.051-.25.145-.492.272-.752.4-.114.052-.208.101-.321.156-.158.075-.297.145-.486.24.153.072.259.122.375.189.158.08.304.142.465.215l.148.102c-.185-.054-.377-.093-.554-.165-.234-.095-.457-.216-.712-.339.43-.214.84-.448 1.272-.626.285-.118.383-.28.354-.577a5 5 0 0 1-.002-.774c.01-.194-.045-.301-.236-.39-1.13-.531-2.251-1.08-3.385-1.641z"/><path fill="#fefcfc" d="M20.602 11.661c.02-.001.038-.003.094-.003.179-.042.321-.087.49-.129.767.002 1.509.004 2.25 0 .11-.001.22-.033.331-.05l.006.022a.5.5 0 0 1-.013.156c-.008.002-.022-.004-.04-.007a.35.35 0 0 0-.16.078c-.005.086-.008.148-.038.21a228 228 0 0 1-3.359-.026c.156-.094.297-.173.44-.251z"/><path fill="#e5e4e5" d="M6.495 2.751c.082.016.164.046.246.046q2.054.003 4.107.002c.1 0 .199.004.301.024-.08.061-.163.103-.287.15-.13.023-.22.04-.34.057l-.89-.003a298 298 0 0 1-3.664-.03c.185-.092.356-.169.527-.246"/><path fill="#ff0909" d="M10.123 13.607c-.052.213-.15.03-.195.008-1.063-.514-2.121-1.038-3.182-1.557-.159-.078-.333-.128-.486-.215-.38-.216-.747-.457-1.13-.668a9 9 0 0 0-.84-.39c-.166-.069-.23-.172-.212-.349.014-.142-.013-.289.012-.428.01-.055.112-.093.197-.117.028.046.031.07.03.118-.002.142.001.258 0 .394-.002.046.001.072 0 .119.036.075.065.15.119.179.18.097.37.177.564.28.065.036.12.057.195.087.294.143.569.276.854.424.08.042.149.068.232.11.215.143.415.269.626.412.119.061.227.105.352.162.286.143.557.273.837.419.067.036.124.057.198.09.313.157.608.303.92.457.044.021.072.035.12.056.276.141.533.275.789.41z"/><path fill="#fffefe" d="M20.871 9.63a.4.4 0 0 1-.146-.12 68 68 0 0 1 3.038-.022.3.3 0 0 1 .008.1c.001.004.011.006.042.014.066.007.11.009.154.012.02.053.04.106.029.177-.852.019-1.673.019-2.514.014l-.566-.165z"/><path fill="#f11" d="M13.856 14.966c.11-.058.22-.115.336-.19.411-.24.812-.467 1.22-.684.297-.158.602-.303.904-.453 1.11-.548 2.216-1.1 3.33-1.638.291-.14.605-.234.932-.345-.118.082-.26.16-.434.257a10 10 0 0 1-.398.196c-.253.121-.486.239-.733.356-.029.014-.042.028-.068.042-.012 0-.033.012-.05.012-.034.015-.05.029-.083.045-.045.016-.074.031-.12.054-.284.142-.55.278-.834.414-.086.036-.153.071-.239.11-.29.141-.561.278-.852.417-.113.05-.206.097-.318.151-.128.063-.241.114-.347.177-.13.077-.255.164-.395.256-.077.052-.14.096-.223.145-.25.122-.48.24-.73.358-.074.032-.129.062-.202.1-.268.102-.519.198-.765.277a.2.2 0 0 1 .07-.057z"/><path fill="#ff0e0e" d="M18.225 8.362c-.117-.026-.244-.03-.348-.08-.948-.457-1.89-.926-2.837-1.387-.962-.468-1.927-.931-2.918-1.417-.052-.043-.077-.067-.087-.101.19.055.368.12.554.201.066.037.121.059.195.09.339.166.66.322.994.492.072.036.131.058.207.092.252.122.488.233.735.36.141.076.271.135.42.205.263.127.509.244.768.376.11.056.207.097.32.151.248.125.48.237.724.365.085.04.158.066.243.108.351.192.69.368 1.03.545"/><path fill="#e1dfe0" d="M8.622 1.714c.101.016.202.046.302.046q1.992.005 3.984 0c.16 0 .321-.03.484-.027a.4.4 0 0 1-.172.091c-.17.043-.299.079-.458.114-.629-.001-1.229 0-1.829-.004-.914-.004-1.828-.011-2.727-.031.149-.073.283-.131.416-.19z"/><path fill="#ff0f0f" d="M7.792 9.305c.132.06.244.114.374.172.083.042.147.08.222.135-.2-.047-.417-.096-.622-.176-.199-.079-.385-.19-.629-.314.367-.186.694-.355 1.025-.518q1.087-.53 2.176-1.058.696-.337 1.396-.666a.3.3 0 0 1 .208-.005c-.13.103-.259.171-.407.242-.121.056-.223.11-.344.167-.256.12-.491.238-.746.359-.109.05-.2.098-.309.15-.287.141-.555.278-.842.415-.084.035-.148.07-.233.11-.306.153-.592.302-.897.452-.093.038-.168.077-.242.115l-.501.23c.148.078.25.131.371.19z"/><path fill="#f8f4f6" d="M18.247 8.366a16 16 0 0 1-1.025-.55 51 51 0 0 1 2.23.008l-.006.081c-.06.008-.12.016-.212.042l-.785.416c-.06.002-.12.004-.202.002z"/><path fill="red" d="m11.836 14.181-.224-.013c0-.793-.003-1.583.007-2.373.001-.05.108-.097.199-.14q.05.005.051.039c0 .113 0 .204-.01.316-.002.048.004.076.009.13-.001.157 0 .29-.007.442 0 .028.007.04.011.075 0 .179.002.332 0 .51-.002.16 0 .296-.01.445-.003.046.004.078.01.136.008.153.016.279.015.41a.2.2 0 0 1-.051.023z"/><path fill="#ff0e0e" d="M9.313 10.034c.23.117.46.234.722.37.112.048.193.076.287.121.304.157.595.297.894.452.051.027.095.038.152.066.249.155.484.293.715.448-.002.026.002.036.002.068a1 1 0 0 1-.218.113l-.024-.018c.04-.193-.063-.275-.217-.35q-1.304-.623-2.597-1.266c-.2-.1-.379-.241-.577-.381q.28.056.596.17c.013.048 0 .098.008.102.084.039.171.07.257.105z"/><path fill="#f6f4fa" d="M18.486 9.918c.168.065.314.13.471.231.13.102.247.168.338.234a76 76 0 0 1-1.957-.028c.305-.17.596-.323.886-.477.08.013.16.026.262.04"/><path fill="#ebeaeb" d="M13.814 1.522c0-.043.019-.085.052-.163-1.488 0-2.968 0-4.466-.016a.7.7 0 0 1 .25-.102c1.396.003 2.762.002 4.128.009.105 0 .21.05.3.088-.048.05-.083.09-.118.128-.043.019-.085.037-.146.056z"/><path fill="#ff0f0f" d="M18.202 9.874c-.268.158-.558.312-.881.485-.107.058-.18.098-.275.14-.276.132-.532.26-.808.393-.09.038-.16.074-.249.116-.301.147-.584.286-.886.428-.067.032-.117.063-.167.093a9 9 0 0 1-.493.126c.946-.484 1.914-.967 2.888-1.44.274-.132.565-.23.871-.341"/><path fill="#e5e4e5" d="M4.318 7.703a84 84 0 0 1 3.153-.05 1.4 1.4 0 0 1-.292.15 4 4 0 0 1-.333.056L4.32 7.856c-.002-.044-.004-.088-.003-.153z"/><path fill="#f11" d="M20.927 9.658c.172.035.354.088.552.167-.002.07-.02.114-.042.183 0 .142.003.26 0 .395-.002.045.003.07.003.122-.002.161 0 .298-.004.448-.002.025.002.034.003.068-.012.137-.02.249-.045.365-.09.043-.162.081-.235.12a6 6 0 0 1-.45.127c.491-.161.56-.54.508-1.006-.03-.27-.006-.546-.006-.835-.075-.037-.175-.087-.284-.154"/><path fill="#1212e8" d="M19.464 7.899q-.026-.022.006-.07c.094-.055.167-.1.261-.15.025-.048.046-.121.032-.128-.194-.1-.392-.191-.603-.3-.11-.056-.207-.098-.32-.153-.245-.125-.476-.236-.72-.363-.149-.073-.282-.131-.433-.201-.253-.125-.487-.239-.724-.363-.002-.01-.008-.031-.008-.047v-.048c1.035.504 2.069 1.008 3.112 1.53a7 7 0 0 1-.603.293z"/><path fill="#ff1010" d="M13.722 3.018c-.269.102-.538.204-.83.301.918-.475 1.86-.945 2.803-1.41.044-.022.106-.007.158.026-.208.14-.414.246-.64.352-.084.036-.148.071-.233.11-.291.14-.563.277-.855.416-.147.07-.275.137-.403.205"/><path fill="#fefcfc" d="M15.232 2.286a19 19 0 0 0 .632-.332.5.5 0 0 1 .235.002c.257.138.485.256.684.376-.247.004-.466.012-.683.005-.29-.01-.579-.033-.868-.05z"/><path fill="#0606ec" d="M10.258 12.02c.241.038.325.174.308.42-.019.273.004.55.015.85.002.14-.003.253-.01.396a.7.7 0 0 1-.201-.081 2.5 2.5 0 0 1-.033-.475c.002-.025-.002-.036-.003-.071 0-.16 0-.296.003-.446.002-.026 0-.036 0-.07-.033-.162-.067-.3-.105-.448-.003-.012-.008-.035.001-.045z"/><path fill="#f11" d="M16.787 4.683c.24.124.48.248.73.387-.109-.002-.241.01-.344-.04-.692-.337-1.377-.687-2.086-1.037a.7.7 0 0 1-.152-.077c.103.001.225.019.355.052.052.026.095.037.153.064.314.159.612.303.925.462.15.073.284.131.42.19"/><path fill="#e1e0e1" d="m4.322 9.984-.01-.089c.005-.084.009-.15.004-.233-.006-.028-.002-.038.025-.066.08.03.136.077.192.123l-.041.091c.53 0 1.06 0 1.593.015a.25.25 0 0 1-.05.146c-.59.008-1.151.01-1.712.013z"/><path fill="#1313ff" d="M6.424 8.22c-.252.066-.367.198-.337.475.03.274.006.554 0 .863-.008.031-.016.043-.032.047a.6.6 0 0 1-.121-.018c-.01-.004-.027-.008-.043-.022a.2.2 0 0 1-.022-.122c.002-.084-.003-.146-.004-.232 0-.123-.002-.222.002-.34.002-.044-.002-.07-.002-.12.005-.139.006-.254.024-.374l.195-.11c.127-.057.236-.106.347-.135l.006.064z"/><path fill="#fbfafa" d="M10.331 13.146c.004.142.008.284.021.447a.5.5 0 0 1-.21.02 12 12 0 0 1-.79-.43c.326-.027.652-.032.979-.037"/><path fill="#ff0707" d="M11.838 14.208c.012-.03.026-.036.068-.055.067-.015.106-.018.15-.001.015.062.023.103.03.169-.002.14 0 .257-.004.389-.002.025.001.036.002.071 0 .16.001.296-.003.45-.002.046.002.073.003.121a.45.45 0 0 1-.173.102c-.025-.008-.036-.01-.046-.011l-.027-.095c-.003-.384 0-.748 0-1.14z"/><path fill="#1212e8" d="M19.322 10.383c-.118-.066-.236-.131-.352-.218.365.142.728.306 1.1.488-.385.21-.78.4-1.205.596-.047.013-.058.024-.066.038-.01.004-.02.01-.047-.006-.021-.033-.023-.048-.012-.075.114-.069.214-.124.33-.18.055-.022.092-.043.15-.067.22-.103.42-.203.659-.322a16 16 0 0 1-.453-.228.5.5 0 0 0-.104-.026z"/><path fill="#1b1bec" d="M12.336 6.83c.666.325 1.312.648 1.97 1.004.01.045.008.058-.012.068a2 2 0 0 1-.272-.124c-.102-.057-.194-.097-.305-.147-.31-.15-.6-.291-.903-.444-.065-.03-.117-.05-.185-.082l-.438-.269z"/><path fill="#0505f6" d="M14.218 10.5c-.284.059-.398.209-.36.487.022.167.014.341-.003.51-.006.06-.08.112-.153.142-.032-.05-.035-.076-.031-.117.002-.026-.002-.037-.003-.072 0-.16-.001-.295.003-.446.002-.025-.001-.036-.001-.07-.013-.182-.008-.331.2-.394.107-.052.195-.1.284-.148.097-.039.194-.078.312-.117a2 2 0 0 1-.247.225z"/><path fill="#1818e8" d="M13.982 1.467c.013-.04.048-.079.116-.136.124-.067.216-.115.34-.179-.29-.141-.538-.262-.8-.396-.07-.034-.128-.055-.203-.085-.132-.071-.246-.132-.347-.208l.039-.047c.502.243 1.004.486 1.515.746-.207.113-.423.21-.66.305"/><path fill="#1414e5" d="M10.115 6.368c-.168.109-.328.235-.506.325-.405.204-.82.39-1.276.584-.077-.003-.11-.007-.13-.026a.4.4 0 0 1 .09-.058c.284-.144.55-.283.836-.423.133-.059.247-.116.381-.178.216-.087.412-.169.606-.245z"/><path fill="#1616ee" d="M8.18 4.178c-.008-.03.008-.056.054-.097.097-.052.165-.087.252-.128.288-.14.558-.276.846-.413.083-.036.146-.072.229-.112.065-.021.112-.038.18-.056a.2.2 0 0 0 .066-.016c.007-.006.024 0 .022.014l-.003.044c-.541.256-1.083.513-1.647.764z"/><path fill="#fcfbfc" d="M12.171 6.83c.16.092.301.177.44.29a13 13 0 0 1-1.057-.005c.129-.069.257-.138.398-.222a.8.8 0 0 1 .219-.064z"/><path fill="#dfdde1" d="M7.233 6.182c.05-.031.1-.063.187-.08 1.036.018 2.036.024 3.032.044 0 .025.005.034.01.044l-.013-.005a.1.1 0 0 0-.042.048c-.084.04-.169.08-.273.127-.02.008-.02-.006-.015-.03.022-.055.042-.086.08-.149zM14.964 11.531c.022-.033.072-.063.158-.082.18.017.322.026.465.027.849.007 1.698.013 2.543.034l-.022.07c-.045.02-.09.04-.155.06-.114-.034-.209-.1-.304-.1-.886-.009-1.772-.007-2.685-.009z"/><path fill="#0f0ee7" d="M10.481 6.2c-.025-.02-.029-.03-.009-.06.337-.176.65-.331.98-.49.068-.03.118-.058.187-.09.14-.06.26-.116.38-.172l.083.08c-.529.255-1.065.499-1.62.732"/><path fill="#1313ff" d="M4.14 6.177a1 1 0 0 1 .21-.07.16.16 0 0 1 .018.08c-.333.168-.667.335-1.018.513a1.5 1.5 0 0 1-.315.092c-.037-.02-.044-.027-.043-.053.08-.049.153-.079.245-.114.287-.146.555-.289.837-.428.033-.001.05-.008.065-.02"/><path fill="#1b1bec" d="M6.496 5.154c-.312.152-.623.304-.977.458-.072-.001-.102-.003-.128-.017.004-.012.012-.035.032-.04.293-.143.566-.28.858-.418a.4.4 0 0 0 .075-.119.26.26 0 0 1 .12-.06c.006.008.02.024.02.046z"/><path fill="#1818f1" d="M16 9.502c.069-.017.12-.023.186-.028-.014.073-.024.185-.077.211a4 4 0 0 1-.62.229c-.024-.012-.028-.028-.013-.038l.065-.053c.147-.104.294-.207.459-.321"/><path fill="#1717e1" d="m5.387 5.606.112.008q-.44.229-.946.452a10 10 0 0 1 .58-.37c.107-.041.18-.065.254-.09z"/><path fill="#1b1bec" d="M7.356 4.505c.03.002.059.004.109.014a9 9 0 0 1-.854.46l-.115.004s-.014-.016-.005-.036c.19-.116.372-.211.573-.307.11-.045.201-.09.292-.135z"/><path fill="#1616ee" d="M16.812 2.33c-.228-.119-.456-.237-.693-.37.029-.032.068-.048.123-.061.302.152.588.302.875.48-.007.037-.015.046-.04.049-.05-.016-.084-.025-.127-.05-.051-.026-.095-.037-.138-.049"/><path fill="#2829dc" d="m15.462 9.886.005.025c-.278.123-.556.238-.858.352.067-.071.157-.14.283-.222.215-.06.392-.108.57-.155M10.552 3.03c.09-.016.18-.034.29-.052-.287.134-.594.27-.93.397-.029-.008-.04-.021-.02-.029.233-.11.446-.213.66-.315"/><path fill="#1717e1" d="M11.623 2.617c.014-.044.051-.086.12-.143L12 2.348c.127-.058.235-.108.348-.135l.01.069c-.238.112-.476.225-.736.335"/><path fill="#1414e5" d="M12.375 2.279c-.018-.013-.02-.028-.01-.078.149-.11.288-.187.427-.262.13-.036.259-.072.409-.11-.215.128-.45.258-.716.395-.047.013-.058.024-.066.038-.01.004-.019.01-.044.017"/><path fill="#0f0ee7" d="M18.47 8.368q.343-.205.751-.402a9 9 0 0 1-.751.402"/><path fill="#1818e8" d="M6.458 8.195c-.022-.014-.024-.028-.013-.075.151-.109.29-.185.43-.26l.284-.05q-.32.19-.701.385"/><path fill="#1717e1" d="M18.13 11.583c-.016-.022-.01-.04.018-.081.208-.11.394-.196.58-.284.001.015.004.03.01.066-.194.116-.39.209-.608.299"/><path fill="#1616ee" d="M7.543 4.519c.179-.126.378-.25.597-.362-.179.13-.377.246-.597.362"/><path fill="#1717e1" d="m8.191 7.266.121.015q-.15.086-.368.165c-.01-.034.003-.066.048-.11z"/><path fill="#1818f1" d="M16.66 9.031c.097.02.19.062.292.121a.55.55 0 0 1-.21.079.5.5 0 0 1-.082-.2"/><path fill="#1717e1" d="M6.496 5.004c.025-.022.05-.023.094-.023a.4.4 0 0 1-.078.17.4.4 0 0 1-.017-.147z"/><path fill="#1414e5" d="M4.386 6.185c-.018-.02-.018-.042-.02-.08.024-.023.048-.028.09-.028-.005.039-.03.072-.07.108"/><path fill="#1717e1" d="M12.432 2.263q-.007-.022.032-.036.01.022-.032.036"/><path fill="#0f0ee7" d="M10.425 6.235q-.013-.029.024-.05.012.028-.024.05"/><path fill="#2829dc" d="M9.84 3.413c-.013-.009-.012-.018 0-.048.012-.02.033-.011.033-.011l.016.02c-.006.02-.02.031-.05.04"/><path fill="#1717e1" d="M18.812 11.287q-.007-.021.032-.036.01.023-.032.036"/><path fill="#fefdfd" d="M9.892 3.346c-.019.008-.04-.002-.05.004s-.027 0-.044 0a1 1 0 0 0-.078.023 1 1 0 0 1-.186.053c-1.44.003-2.836.004-4.232 0-.1 0-.2-.031-.292-.057q.034-.021.036-.045c.01 0 .022-.002.071-.002.305-.102.571-.206.837-.31q1.839.007 3.677.015l.892.003c-.184.103-.398.206-.63.316z"/><path fill="#ff0707" d="M5.024 3.32c.02.021.01.033-.033.05-.093.044-.158.08-.243.118-.292.141-.564.278-.854.418A2 2 0 0 0 3.727 4c-.274.129-.547.258-.856.401-.176.087-.316.16-.476.238-.274.14-.528.275-.796.409-.008.016 0 .035.01.053.003 0 .004-.005-.008.01-.284.158-.556.3-.845.44-.054.02-.09.04-.127.06-.302.061-.159.31-.204.515-.002.036.01.054.009.076.002.143.006.265-.002.406-.004.066.004.112.007.182-.001.14.002.256-.005.392-.003.047.005.074.007.126-.006.14-.006.256-.015.392-.004.047 0 .074.005.128.004.333.009.638.003.964-.003.046.005.074.007.125-.002.121 0 .218-.007.336-.01.083-.006.146-.007.234l-.016.177-.238-.053V7.259c0-.44.008-.881-.004-1.322-.005-.172.035-.271.207-.342.278-.114.569-.226.806-.404.797-.599 1.75-.896 2.605-1.378.302-.17.626-.301.944-.441.082-.037.18-.038.293-.052z"/><path fill="#ff0f0f" d="M5.968 2.997c-.28.118-.546.223-.835.32.856-.444 1.734-.885 2.614-1.321A930 930 0 0 1 11.688.058a.4.4 0 0 1 .26-.016 2.8 2.8 0 0 1-.484.28c-.252.12-.484.238-.734.356-.074.032-.13.062-.202.1-.315.157-.612.309-.909.46-.079.03-.158.059-.247.103-.245.128-.48.24-.732.363-.152.068-.286.127-.452.206-.292.155-.55.289-.826.421-.054.02-.091.04-.128.06-.235.112-.47.225-.722.349-.188.088-.359.165-.544.256z"/><path fill="#e6d0d0" d="M3.039 9.811a.14.14 0 0 1-.061.069c-.096.039-.158.07-.247.1l-2.3.007-.03-.103a.23.23 0 0 1 .08-.114c.085.004.146.023.233.041z"/><path fill="#f0f0f0" d="M11.484.32c.155-.081.31-.162.476-.26a.47.47 0 0 1 .254-.013c.044.034.066.04.106.058.043.008.067.003.092-.001 0 0 .002-.006-.011.016.093.081.2.142.28.204-.417 0-.807-.003-1.197-.005z"/><path fill="#e9c8c8" d="M.687 9.81a4 4 0 0 0-.2-.055C.455 9.73.442 9.707.42 9.675a.5.5 0 0 1 .018-.188c.016-.025.038-.02.038 0 .07.121.141.223.212.324"/><path fill="#1212e8" d="M12.302.093c-.022-.006-.044-.011-.076-.032.022-.03.053-.047.102-.061.018.002.022.02.014.036a.2.2 0 0 0-.04.057"/><path fill="#fbfbfc" d="M11.926 15.46c.052-.029.103-.057.184-.108 1.873-.022 3.717-.023 5.562-.02.088 0 .177.038.266.059-.077.037-.153.074-.273.107-.289.092-.534.19-.805.287-1.679.003-3.33.007-4.984-.014.016-.12.033-.216.05-.311"/><path fill="#e1e0e1" d="M15.503 14.283c.064-.044.127-.087.233-.143 1.4-.015 2.756-.015 4.112-.021.208-.001.415-.03.623-.046.015.024.03.048.045.087a.8.8 0 0 1-.234.133c-.098.017-.16.032-.239.033a2.4 2.4 0 0 0-.36-.031q-2.09-.007-4.18-.012"/><path fill="#e2dde0" d="M17.956 15.389c-.108-.02-.196-.058-.285-.058-1.844-.003-3.689-.002-5.559-.001-.03-.027-.034-.053-.006-.1a38 38 0 0 1 1.544-.021c1.542.004 3.058.006 4.566.025-.06.058-.113.099-.166.14z"/><path fill="#1717e1" d="M18.073 15.377a.8.8 0 0 1 .165-.147c.302-.154.575-.289.867-.423.083-.036.146-.071.23-.11.255-.122.491-.24.727-.357.06-.016.122-.031.201-.042-.096.088-.202.188-.327.25q-.796.394-1.6.77c-.073.035-.16.042-.263.06"/><path fill="#1414e5" d="M12.38 18.076a.5.5 0 0 1 .166-.168c.28-.143.565-.275.878-.429.068-.037.105-.058.162-.083.269-.132.517-.26.783-.39.06-.016.104-.03.156-.032l.029.034c-.546.283-1.09.568-1.638.846a5 5 0 0 1-.536.222M15.85 16.403c-.418.2-.835.402-1.275.603-.028-.006-.034-.014-.034-.043.105-.078.205-.133.323-.193.252-.122.483-.24.734-.356.08-.02.14-.041.212-.049zM16.885 15.785c.245-.097.49-.194.76-.284q-.313.19-.712.355c-.04-.017-.05-.026-.055-.043z"/><path fill="#1414e5" d="M16.465 16.105c-.192.096-.385.193-.596.294-.028-.003-.037-.012-.056-.044-.01-.024-.006-.046.015-.05.205-.094.39-.183.591-.254z"/><path fill="#1414e5" d="M16.58 16.048c-.028.016-.056.033-.1.053-.025-.008-.036-.02-.048-.058.027-.04.057-.053.102-.048zM16.696 15.989c-.028.017-.056.033-.1.054-.026-.008-.037-.02-.05-.058.026-.04.054-.052.1-.047z"/><path fill="#1414e5" d="M16.81 15.933c-.027.016-.055.033-.098.053-.027-.007-.038-.02-.057-.056a.03.03 0 0 1 .027-.042c.033-.008.052-.016.084-.006zM16.913 15.86c-.016.03-.043.047-.087.068-.026-.007-.036-.018-.045-.055a.2.2 0 0 1 .095-.051z"/><path fill="#fefdfd" d="M1.713 13.361c-.038-.054-.08-.103-.12-.177.114-.03.227-.039.341-.039 1.392-.005 2.783-.008 4.194-.007.317.156.614.307.882.46l-.745.006c-1.28.005-2.56.009-3.868.006a.4.4 0 0 0-.125.032v-.025c-.038-.032-.075-.03-.113-.029 0 0 .003.006 0-.028-.04-.032-.077-.03-.115-.03 0 0 .003.007 0-.027-.04-.033-.077-.031-.115-.03 0 0 .003.006 0-.028-.04-.032-.077-.03-.115-.03 0 0 .003.007 0-.027-.04-.033-.077-.031-.115-.03 0 0 .01.007.014.003z"/><path fill="#fdfcfd" d="M3.705 14.137c-.051.003-.102.005-.17.019-.018.01-.033.01-.033.01s-.015.002-.034-.015c-.248-.138-.479-.259-.692-.396.122-.023.227-.035.331-.035 1.398-.002 2.795-.003 4.213 0 .256.122.492.24.71.37-.144.02-.268.03-.391.03q-1.968.01-3.934.017z"/><path fill="#ff0808" d="M2.759 13.771c.23.121.46.242.702.38-.174-.037-.365-.076-.54-.15-.215-.092-.417-.212-.637-.34.02-.032.052-.045.127-.035.144.064.246.105.348.145M2.059 13.552c.023-.022.06-.023.102.007-.026.026-.057.02-.102-.007M1.944 13.494c.023-.022.06-.023.102.007-.026.026-.057.02-.102-.007M1.829 13.437c.023-.022.06-.023.103.007-.027.026-.058.02-.103-.007M1.714 13.379c.023-.022.06-.023.103.007-.027.026-.058.02-.103-.007M2.174 13.609c.023-.022.06-.023.103.007-.027.026-.058.02-.103-.007"/><path fill="#fdfcfc" d="M18.795 5.56c-.273-.132-.547-.264-.82-.42.104-.03.208-.04.313-.041 1.182-.001 2.364 0 3.546-.005.1 0 .2-.055.316-.087a.1.1 0 0 0 .041-.025q.001 0 .01.023c.016.029.031.034.048.032a.7.7 0 0 1 .156.022c.04.03.057.036.076.035a.3.3 0 0 1 .093.027c.273.142.52.263.747.4a2 2 0 0 1-.331.035z"/><path fill="#fdfefd" d="M20.491 14.069c-.229.02-.436.049-.644.05-1.356.006-2.713.006-4.098.012a3 3 0 0 1 .352-.244 2.3 2.3 0 0 1 .376-.172c.228 0 .41.003.59.004 1.336.004 2.67.008 3.994.026-.038.037-.064.06-.09.083 0 0 .004.005-.011.002-.059.028-.102.06-.145.091a7 7 0 0 1-.324.148z"/><path fill="#00f" d="M23.781 9.585a.6.6 0 0 1-.006-.119c-.002-.105-.01-.17-.014-.257.002-.121-.002-.218.004-.335.005-.046-.002-.074-.003-.127.004-.179.003-.333.005-.512.003-.162.002-.298.01-.453.002-.047-.005-.075-.009-.127-.003-.14-.008-.256-.003-.39.004-.047-.002-.075-.003-.126.001-.197-.003-.37 0-.563.003-.145 0-.267.007-.413.006-.17.002-.316.013-.479.025-.025.034-.036.044-.047.05.096.144.191.145.287.009 1.21.005 2.42 0 3.66-.048.027-.092.025-.157.011-.02-.01-.034-.01-.034-.01z"/><path fill="#e1e0e1" d="M21.442 9.983c.018-.044.036-.088.058-.153.825-.02 1.646-.02 2.493-.02.013.026 0 .052-.042.097-.08.038-.131.058-.208.078z"/><path fill="#0101fc" d="M23.767 9.984c.052-.02.104-.04.178-.062q.037.781.027 1.567c-.001.066-.083.131-.157.19a.1.1 0 0 1-.048-.024c.004-.045.008-.09.008-.18a5 5 0 0 1-.003-.47c.006-.026.001-.037 0-.073-.005-.16-.011-.295-.006-.449.004-.046-.002-.074-.003-.126.005-.14.004-.256.004-.373"/><path fill="#07e407" d="M23.76 11.656c.008-.002.025.014.032.024.196.825-.339 1.104-.992 1.307-.038-.017-.046-.026-.04-.049.182-.1.351-.185.536-.272.044-.019.072-.036.114-.051.032-.01.042-.024.044-.046h.017a.2.2 0 0 0 .078-.082c.005-.142.004-.26.01-.398 0-.065-.006-.109-.011-.152.004-.062.007-.124.03-.217.066-.042.113-.055.16-.067 0 0 .014.005.022.004z"/><path fill="#1818f1" d="M21.607 4.683a.8.8 0 0 1-.267-.062c-.161-.08-.29-.14-.437-.209-.303-.147-.586-.285-.883-.436-.071-.036-.13-.058-.204-.09-.222-.12-.426-.227-.606-.339l.075-.012c.773.376 1.545.752 2.322 1.148"/><path fill="#17ee17" d="M20.994 13.832c.003-.028.029-.05.085-.091.102-.057.174-.095.267-.138.294-.14.568-.274.861-.41.074-.03.128-.06.2-.096a2 2 0 0 1 .3-.106l.003.053q-.776.39-1.555.777c-.039.02-.092.011-.161.011z"/><path fill="#1616ee" d="M23.339 5.506c-.246-.122-.492-.243-.748-.383q.479.17.98.4c0 .03-.007.037-.033.042-.079-.021-.139-.04-.199-.06M17.131 2.393c.195.073.378.16.56.276-.006.036-.013.043-.038.042-.2-.097-.38-.187-.56-.277zM19.272 3.52c-.004.018-.02.02-.08.026a.7.7 0 0 1-.223-.079c-.048-.026-.09-.038-.13-.05-.033-.057-.066-.113-.1-.19a.37.37 0 0 1 .214.043c.058.072.095.114.133.157.058.026.115.052.186.093z"/><path fill="#17ee17" d="M20.82 13.93a.5.5 0 0 1 .143-.103.5.5 0 0 1-.143.103"/><path fill="#1818f1" d="M22.183 4.963c0 .027-.009.035-.05.033l-.109-.024c-.028-.022-.057-.044-.08-.083a.6.6 0 0 1 .239.074"/><path fill="#1616ee" d="M23.588 5.535a.22.22 0 0 1 .144.066c.01.045.008.058-.01.069a.7.7 0 0 1-.156-.07l-.008-.033z"/><path fill="#1818e8" d="M19.081 3.409a.5.5 0 0 1-.11-.128.5.5 0 0 1 .11.128"/><path fill="#1616ee" d="M18.737 3.183q-.058.025-.115-.014a.11.11 0 0 1 .115.014M18.071 2.828a.2.2 0 0 1 .093.06c-.007.033-.015.042-.038.047-.044-.021-.072-.037-.088-.066z"/><path fill="#1818f1" d="M21.837 4.798q-.054.022-.114-.018.055-.022.114.018"/><path fill="#1616ee" d="M18.281 2.957c-.012.025-.02.031-.058.028-.046-.022-.064-.034-.08-.045l.034-.042a.14.14 0 0 1 .104.059"/><path fill="#1818f1" d="M21.952 4.856q-.054.022-.114-.019.055-.022.114.019"/><path fill="#1616ee" d="M18.622 3.126q-.058.025-.115-.015a.11.11 0 0 1 .115.015M18.392 3.012q-.055.022-.114-.018.056-.023.114.018M18.507 3.068q-.058.025-.115-.014a.11.11 0 0 1 .115.014"/><path fill="#1818f1" d="M21.722 4.74q-.054.023-.114-.018.055-.022.114.018"/><path fill="#1616ee" d="M17.956 2.77c.03.012.06.024.103.047.005.02-.003.03-.037.047-.056-.006-.086-.02-.103-.048z"/><path fill="#1616ee" d="M17.841 2.714c.03.012.061.023.104.046.004.02-.004.03-.04.05-.057-.006-.086-.02-.102-.049zM17.701 2.687a.3.3 0 0 1 .126.017c.005.02-.003.031-.039.052a.15.15 0 0 1-.092-.012l-.024-.025z"/><path fill="#00f" d="m23.739 5.673.004-.06c.02-.011.04-.003.07.014.004.02-.006.031-.04.053-.025.011-.034-.008-.034-.008z"/><path fill="#07e407" d="M22.725 13.041c-.015-.008-.016-.02-.01-.058a.04.04 0 0 1 .031-.03l.033.04c-.006.024-.023.034-.054.048z"/><path fill="#e0dee1" d="M22.246 5.023q-.022.024-.045-.013c-.004-.011.022-.02.022-.02s.02.02.023.033M22.476 5.08q-.02.022-.05-.017.016-.011.05.017"/><path fill="#dfdde1" d="M13.566 17.4c-.037.02-.074.042-.128.063-1.026 0-2.035-.004-3.072-.005-.063-.006-.097-.013-.114-.038 1.117-.02 2.215-.02 3.314-.02z"/><path fill="#fffeff" d="m16.667 15.888-.03.024c-.037.021-.065.034-.106.055l-.114.057a8 8 0 0 1-.617.278c-1.387.003-2.727.002-4.067.004q-1.88.004-3.763.01c-.3-.142-.6-.285-.885-.447 1.39-.02 2.766-.02 4.141-.025.11 0 .22-.033.351-.05.037 0 .051 0 .076.014.083.02.156.026.257.034 1.503.002 2.977.002 4.452.006.102 0 .203.027.305.04z"/><path fill="#fefdfd" d="M15.579 16.414a12 12 0 0 1-.742.353l-5.934.003a9 9 0 0 1-.702-.363.17.17 0 0 1 .113-.042h7.05c.072 0 .144.032.215.05z"/><path fill="#fdfdfd" d="M5.947 15.228c-.282-.138-.565-.275-.848-.436.803-.028 1.605-.033 2.407-.039.706-.005 1.413-.012 2.138-.011.189.085.36.163.544.255.061.025.109.036.156.047 0 0 .003-.004.004.018.038.028.075.034.111.04l-.006.013c0 .026.005.035-.007.06a2 2 0 0 1-.357.037q-2.07.009-4.142.016z"/><path fill="#fcfafb" d="M6.895 15.79c-.198-.13-.395-.26-.592-.417.105-.032.21-.043.314-.044 1.397-.002 2.795-.003 4.212 0 .198.136.377.267.54.417-.121.025-.225.04-.328.04q-2.073.004-4.146.004z"/><path fill="#fffefe" d="M4.877 14.702c-.234-.113-.468-.226-.701-.366.105-.031.21-.042.314-.042 1.398-.002 2.795-.003 4.212 0 .256.121.492.236.71.367a2 2 0 0 1-.33.034z"/><path fill="#fcfcfd" d="M13.586 17.396c-1.119.004-2.218.005-3.344.008a7 7 0 0 1-.8-.386c1.646-.016 3.278-.013 4.91-.01-.249.128-.497.256-.766.388z"/><path fill="#e6e5e6" d="M14.368 17.006c-1.649 0-3.28-.004-4.941-.004a4 4 0 0 1-.514-.216c1.951-.016 3.914-.017 5.903-.014-.071.059-.17.114-.285.18-.06.024-.103.038-.163.053z"/><path fill="#e1dfe0" d="M8.682 14.291q-2.097 0-4.192.003c-.104 0-.209.01-.332.032a2.6 2.6 0 0 1-.439-.175c1.297-.02 2.608-.025 3.92-.031.123 0 .247-.01.41-.029a1 1 0 0 1 .112-.022v.017a.24.24 0 0 0 .119.027c.078.022.157.045.263.086zM10.809 15.326l-4.193.004a2 2 0 0 0-.331.033 1.4 1.4 0 0 1-.324-.12c1.367-.02 2.747-.024 4.128-.03.113-.001.226-.014.377-.037.14.04.241.095.343.15"/><path fill="#e1e0e1" d="M15.598 16.414c-.09-.017-.163-.048-.234-.048q-3.525-.003-7.05-.001a.4.4 0 0 0-.13.03.5.5 0 0 1-.202-.064c1.243-.018 2.497-.023 3.75-.025 1.341-.002 2.681 0 4.048.001.027.002.023.024.02.034a1 1 0 0 1-.202.073z"/><path fill="#e1dfe0" d="M4.886 14.717c1.392-.017 2.794-.019 4.195-.022.104 0 .208-.012.349-.033.09.015.143.043.196.072l-2.12.02c-.802.005-1.604.01-2.425.029a.46.46 0 0 1-.195-.066"/><path fill="#e0dee1" d="M6.903 15.805c1.374-.016 2.755-.016 4.137-.019.104 0 .207-.015.347-.04.08.006.124.027.168.047-.11.018-.219.05-.328.05-1.376.005-2.751.005-4.155.01a.5.5 0 0 1-.169-.048"/><path fill="#1818e8" d="M12.708.323c-.107-.06-.214-.121-.31-.202.24.077.468.174.713.283.007.023-.001.033-.042.051a3 3 0 0 1-.361-.132M12.32.105c-.012-.03-.002-.044.025-.06.031.005.05.015.068.042-.026.021-.05.026-.093.018"/><path fill="#fdfdfd" d="M1.37 13.092c-.274-.13-.547-.26-.819-.418a1 1 0 0 1 .313-.047c1.4-.003 2.8-.004 4.22-.002.254.116.488.227.736.348.043.03.072.049.082.082a2 2 0 0 1-.331.03z"/><path fill="#fcfcfc" d="M.291 12.568a2 2 0 0 1-.039-.433c1.268-.03 2.504-.037 3.758-.036.315.158.611.309.879.462-1.552.004-3.075.006-4.597.007z"/><path fill="#fdfdfe" d="M.231 11.938c-.07-.194.063-.275.203-.382.007-.024.01-.025.038-.024.878.001 1.727.001 2.596.006.12.083.22.162.33.255.063.043.115.071.148.114-1.117.02-2.216.026-3.315.031z"/><path fill="#fefefe" d="m.443 11.531-.003.001a3 3 0 0 1 .02-.487c.785-.027 1.541-.027 2.301-.004a2.5 2.5 0 0 1-.001.378 1.3 1.3 0 0 1-.323.056c-.564.004-1.128-.001-1.692.004-.1 0-.2.034-.301.052z"/><path fill="#fdfdfd" d="M.43 10.956a2.2 2.2 0 0 1 .034-.43 34 34 0 0 1 2.296-.001c.002.161 0 .297-.03.433-.784 0-1.541 0-2.3-.002z"/><path fill="#fefefe" d="M.43 10.011a36 36 0 0 1 2.305-.006.85.85 0 0 1-.005.379L.444 10.38c-.005-.115-.01-.23-.014-.37z"/><path fill="#e5e4e5" d="M.224 11.959c1.106-.026 2.205-.032 3.341-.05.168.054.298.119.427.183l-3.735.018c-.032-.043-.036-.087-.033-.151"/><path fill="#e1e0e1" d="M1.379 13.108c1.391-.018 2.791-.02 4.192-.022.104 0 .208-.01.35-.03a.5.5 0 0 1 .188.078l-4.175.012c-.114 0-.227.01-.36.028a.5.5 0 0 1-.195-.066"/><path fill="#e1dfe0" d="M.301 12.584c1.513-.017 3.036-.019 4.604-.021.084.019.121.038.159.058l-4.2.006c-.104 0-.208.012-.33.035a.6.6 0 0 1-.233-.078z"/><path fill="#ececec" d="M.433 10.401a47 47 0 0 1 2.303.002c.029.045.024.07.02.096-.754 0-1.509 0-2.287.002-.032-.026-.04-.054-.036-.1z"/><path fill="#e1e0e1" d="M.425 10.974a56 56 0 0 1 2.312 0c.029.024.025.034.02.044-.756 0-1.513 0-2.293.003-.032-.01-.038-.02-.04-.047z"/><path fill="#fdfcfc" d="M.714 9.811A.9.9 0 0 1 .5 9.486c.77-.02 1.513-.02 2.261 0 .072.05.139.077.205.105.027.06.054.12.077.2-.77.02-1.536.02-2.329.02"/><path fill="#1313ff" d="M2.976 9.565a.27.27 0 0 1-.207-.101c-.002-.105-.007-.167-.008-.253.001-.123-.002-.222.002-.34.002-.044-.002-.07-.002-.121.002-.164 0-.301.005-.451.006-.012-.006-.036-.003-.062 0-.163-.002-.3.004-.457.003-.045-.003-.071-.004-.122 0-.143-.002-.26 0-.396.003-.045-.001-.07-.001-.119.021-.124.038-.226.074-.329.061-.02.105-.039.149-.057l.03.037c-.001.344-.02.675-.023 1.006-.007.58-.005 1.16-.015 1.765z"/><path fill="#1717fe" d="M2.76 11.041c.002-.033.006-.043.004-.068-.004-.15-.002-.287-.004-.448 0-.051.005-.077.003-.121-.004-.137 0-.255-.001-.398a.5.5 0 0 1 .201-.115c.022.42.022.838.03 1.256.001.09.03.18.054.295.008.025-.01.046-.03.044a5 5 0 0 1-.241-.088l-.015-.357z"/><path fill="#1b1bec" d="M5.084 12.626c-.058-.024-.095-.044-.15-.065-.313-.153-.61-.303-.924-.461-.147-.072-.277-.137-.425-.204a.5.5 0 0 1-.186-.126 1 1 0 0 1-.007-.173c.397.225.788.459 1.191.672.395.208.8.395 1.214.624.012.045.01.058.01.07a50 50 0 0 0-.723-.337z"/><path fill="#1616ee" d="M5.82 12.973c-.013-.023-.011-.036-.008-.07q1.17.544 2.344 1.147c-.019.022-.043.025-.087.027a19 19 0 0 1-.759-.373c-.11-.05-.19-.079-.27-.108-.298-.151-.595-.302-.912-.458-.07-.035-.12-.065-.189-.096a.7.7 0 0 1-.12-.069zM9.644 14.743c-.071-.036-.124-.065-.196-.095-.254-.117-.49-.232-.746-.352a.5.5 0 0 1-.138-.093c.101.008.217.013.315.059.427.2.85.413 1.286.653.011.045.01.057.01.07z"/><path fill="#0f0ee7" d="M11.578 15.794c-.066-.02-.11-.042-.173-.064-.198-.133-.378-.265-.576-.4-.121-.06-.223-.115-.344-.17-.026-.01-.033-.018-.032-.042.287.123.568.26.848.402.1.05.194.109.312.187a.2.2 0 0 1 .03.088z"/><path fill="#f32929" d="M11.654 15.808a.3.3 0 0 1-.02-.094c.001-.143.001-.272.208-.266a.13.13 0 0 1 .07.006c-.003.102-.02.197-.041.329a.1.1 0 0 0 .012.058 1.5 1.5 0 0 1-.229-.033z"/><path fill="#1717fe" d="M3.376 11.585a.5.5 0 0 1 .013.17c-.101-.056-.201-.134-.324-.229a.08.08 0 0 1-.029-.038l.03-.032c.104.032.199.075.31.129"/><path fill="#0f0ee7" d="M10.189 14.997c-.013-.026-.012-.038-.01-.07q.092.02.173.097a.3.3 0 0 1-.163-.027M10.461 15.08q-.056.024-.114-.015a.11.11 0 0 1 .114.015"/><path fill="#1616ee" d="M8.272 14.097q-.048.023-.112-.009.05-.023.112.009"/><path fill="#ecebec" d="M7.95 8.887a.7.7 0 0 1 .244-.116h7.84c.092.039.165.078.238.117l-8.323-.001z"/><path fill="#1818f1" d="M16.292 8.891a4 4 0 0 1-.271-.138c-.332-.163-.632-.308-.945-.467-.072-.035-.13-.057-.205-.09-.197-.105-.378-.198-.559-.291l.007-.06q1.171.545 2.344 1.149c-.114-.02-.232-.06-.37-.103z"/><path fill="#fbfafd" d="M6.897 11.997c-.2-.126-.4-.253-.598-.411a86 86 0 0 1 3.04-.052c.087.061.173.122.261.222.06.069.116.099.156.145-.857.023-1.695.028-2.534.04-.108 0-.216.036-.325.056"/><path fill="#1b1bec" d="M6.062 9.966c.008-.042.016-.083.026-.161A3 3 0 0 0 6.07 9.6s.008-.011.014-.016c.275.005.287.139.16.348.27.135.538.27.817.435.01.044.01.056-.01.066a1 1 0 0 1-.196-.075c-.274-.141-.534-.267-.794-.393z"/><path fill="#1818f1" d="M9.332 11.514c-.007.022-.02.023-.063.005-.101-.044-.172-.07-.259-.109-.283-.145-.55-.277-.833-.423-.09-.039-.164-.064-.25-.105-.112-.067-.213-.12-.304-.182l.028-.034a77 77 0 0 1 1.681.848"/><path fill="#1818f1" d="m7.07 10.436.006-.054c.186.071.37.16.564.267.005.024-.001.032-.036.043a4 4 0 0 1-.479-.208c-.023-.024-.039-.036-.055-.048z"/><path fill="#0606ec" d="M9.773 11.885c-.057-.03-.114-.06-.168-.11.133.022.263.063.399.13-.003.033-.01.042-.037.047-.077-.025-.135-.046-.194-.067M10.142 11.962c.03.013.06.025.103.048.013.01-.004.031-.03.04-.054-.008-.083-.024-.101-.052z"/><path fill="#0606ec" d="M10.02 11.916c.04 0 .069.013.11.036.005.017 0 .026-.033.043a.3.3 0 0 1-.112-.039z"/><path fill="#e1e0e1" d="M15.476 9.876c-.192.057-.37.104-.567.153-.093-.014-.165-.044-.237-.044q-2.606-.003-5.21 0a.4.4 0 0 0-.13.033 1 1 0 0 1-.275-.09c-.008-.004.005-.053.012-.096 2.141-.016 4.279-.016 6.444-.013.011.019-.006.033-.037.057z"/><path fill="#fefdfd" d="M18.976 3.482c.057.022.114.044.19.068.223.109.428.216.631.35a1 1 0 0 1-.313.046l-4.203.007c-.122-.017-.243-.035-.364-.035-.031.023-.064.026-.148.028-1.077-.004-2.103-.006-3.129-.008.295-.151.59-.303.932-.455z"/><path fill="#fcfbfc" d="M12.035 5.377a3.4 3.4 0 0 1-.423.18c-.927.001-1.808.002-2.69-.002-.1 0-.2-.033-.3-.05.25-.127.498-.253.753-.407.006-.027.003-.04.003-.04s.005-.017.026-.016c.037-.001.054-.002.09.014.074.025.13.04.186.04q2.295.004 4.588 0c.073 0 .146-.028.233-.046.024-.007.034-.011.043-.015a.4.4 0 0 1 .103.025c.038.03.054.036.073.035.182.063.365.126.557.226.107.087.204.138.282.204-.122.02-.226.031-.33.031l-2.65.007a7 7 0 0 0-.544-.185z"/><path fill="#fbf9fb" d="M10.636 4.416c.272-.135.545-.271.864-.409.932-.002 1.816-.005 2.7.003.095 0 .189.065.284.1-.232.116-.464.232-.735.347-.066.004-.092.008-.145.01-.907-.002-1.786-.001-2.666-.005-.1 0-.201-.03-.302-.046"/><path fill="#dcdbe2" d="M14.503 4.11c-.114-.035-.209-.1-.304-.1-.884-.008-1.768-.005-2.679-.006.01-.023.049-.044.104-.066 1.043.001 2.069.004 3.121.01a1 1 0 0 1-.242.162"/><path fill="#1818f1" d="M15.577 5.51a2 2 0 0 1-.287-.174c.195.053.394.115.58.202.355.164.703.342 1.07.527.016.022.016.033-.002.057a.2.2 0 0 1-.135-.016c-.351-.18-.687-.343-1.037-.52a2 2 0 0 0-.19-.076"/><path fill="#1616ee" d="M13.631 4.47c.026-.004.052-.01.098-.008.066.072.1.163.164.203.166.104.347.186.523.303.001.027-.014.047-.03.041-.035-.008-.055-.011-.094-.023-.274-.142-.53-.275-.778-.424a1 1 0 0 1 .117-.092z"/><path fill="#1616ee" d="M14.537 5.019c-.003.02-.013.023-.051.025-.048-.011-.067-.02-.085-.03l.024-.029c.04 0 .073.008.112.033"/><path fill="#e2dde0" d="M14.715 5.08q-.02.024-.05-.016.016-.01.05.016"/><path fill="#e0dee1" d="M.656 5.613c.01-.022.046-.042.129-.061 1.57.004 3.094.006 4.618.008 0 0-.007.024-.012.035-.078.036-.152.06-.245.086-.126-.02-.233-.062-.34-.063-1.375-.005-2.749-.003-4.15-.005z"/><path fill="#e1e0e1" d="M.435 6.18s-.012-.018-.01-.028c1.228-.008 2.452-.007 3.695.01.003.026-.013.034-.076.034-1.232-.008-2.42-.012-3.61-.016z"/><path fill="#e6e5e6" d="m17.704 2.751.071.02.117.053c.045.02.074.034.12.053.043.021.07.037.114.058.033.016.05.028.08.049a.7.7 0 0 1-.21.041c-1.406.001-2.812 0-4.246-.004.1-.07.228-.138.394-.194 1.155.017 2.27.023 3.385.022.059 0 .117-.063.175-.097z"/><path fill="#dfdde1" d="M18.969 3.467c-2.111.015-4.23.015-6.377.01a.4.4 0 0 1 .152-.094c.082.015.144.044.207.044 1.943 0 3.886-.002 5.858-.007.07.009.112.021.16.047z"/><path fill="#e5e4e5" d="M2.415 4.635c.14-.073.28-.147.44-.221.13.016.239.047.349.047 1.37.008 2.742.012 4.133.03a.9.9 0 0 1-.303.148z"/><path fill="#e1e0e1" d="M3.754 4.002c.022-.032.072-.063.158-.081.15.016.265.025.379.026l4.175.011c-.067.036-.134.071-.221.108-.127-.02-.235-.057-.343-.058-1.374-.005-2.747-.004-4.148-.006z"/><path fill="#ebeaeb" d="M14.126 10.389a.8.8 0 0 1-.275.136c-1.206-.013-2.374-.015-3.542-.018-.081-.028-.162-.056-.254-.099 1.34-.017 2.692-.02 4.071-.019"/><path fill="#e1dfe0" d="M7.261 2.393c.01-.022.047-.043.13-.06.743.003 1.438.002 2.134.005q1.23.007 2.458.017c-.07.035-.139.07-.228.105-.127-.02-.234-.061-.342-.061-1.375-.005-2.75-.004-4.152-.006z"/><path fill="#e5e4e5" d="M20.921 4.422c.129.06.257.12.398.195-1.386.016-2.784.017-4.182.019-.105 0-.209.011-.332.032a1.5 1.5 0 0 1-.409-.178c1.416-.022 2.818-.023 4.22-.028.102 0 .204-.026.305-.04"/><path fill="#e0dee1" d="M22.007 4.99c.042-.013.068-.008.11.008-.085.041-.184.096-.284.096-1.182.006-2.364.003-3.546.005-.105 0-.209.01-.331.031a.2.2 0 0 1-.124-.032c.087-.027.188-.057.289-.057 1.186-.003 2.372-.001 3.559-.003.103 0 .207-.019.327-.047z"/><path fill="#fafafb" d="M13.507 4.578c.255.133.51.266.766.422a1.2 1.2 0 0 1-.313.037l-4.485.001a.4.4 0 0 0-.063.006c.284-.153.58-.31.924-.467z"/><path fill="#fbfafa" d="M11.436 5.653c-.313.155-.626.31-.96.472-1.02 0-2.02-.005-3.038-.024.293-.17.606-.324.965-.482.96-.003 1.872-.005 2.785-.003.083 0 .165.024.248.037z"/><path fill="#fefdfd" d="M9.109 6.772c-.266.139-.533.277-.837.41-1.03-.012-2.02-.019-3.01-.026.255-.131.51-.263.812-.396 1.043.003 2.04.008 3.035.012"/><path fill="#fdfdfd" d="M7.213 6.186c1.001-.005 1.983-.005 2.986-.005-.039.063-.058.094-.08.142-.197.1-.393.182-.636.267-.926.002-1.805.003-2.684 0-.101-.001-.202-.03-.302-.047.232-.117.464-.235.716-.357z"/><path fill="#fefefe" d="M6.846 7.859c-.11.077-.25.153-.403.24a3 3 0 0 1-.388.163c-.609 0-1.171-.003-1.733-.006-.003-.117-.006-.234-.005-.376a82 82 0 0 1 2.529-.022zM5.872 8.383c-.001.114-.002.229-.034.368-.526.024-1.02.024-1.516.023a2 2 0 0 1 .022-.432c.403-.026.776-.031 1.149-.023.126.003.252.042.379.064"/><path fill="#e5e4e5" d="M6.477 6.546c.12.014.221.043.322.043.879.004 1.758.003 2.664.005-.087.06-.201.118-.334.177a544 544 0 0 1-3.036-.017c.102-.071.233-.138.384-.207z"/><path fill="#fefbfb" d="M6.055 9.605a.5.5 0 0 1 .03.184c-.533.021-1.064.021-1.594.021l.041-.091a1.5 1.5 0 0 0-.188-.139c-.024-.025-.027-.05 0-.095.526-.02 1.021-.02 1.517-.02.005.028.01.056.026.106a.07.07 0 0 0 .034.03l.021-.01c.033.006.065.012.113.014"/><path fill="#fff" d="M5.86 8.89c.003.1.006.198-.022.322-.527.024-1.022.023-1.518.023a1.2 1.2 0 0 1 .023-.32c.526-.025 1.021-.025 1.517-.025"/><path fill="#ebeaeb" d="M5.243 7.157c1.01.005 2 .013 3.01.031 0 .024-.02.037-.05.063a1 1 0 0 1-.196.074c-.12-.014-.22-.043-.321-.043-.88-.004-1.758-.002-2.665-.004q.077-.06.222-.12z"/><path fill="#e1e0e1" d="M13.514 4.562c-1.048.015-2.09.015-3.159.011q.095-.08.262-.155c.12.014.22.043.321.044.88.004 1.76.003 2.666.006-.01.027-.046.053-.09.094z"/><path fill="#e6e6e6" d="M4.317 9.258c.5-.023.995-.022 1.517-.022a.4.4 0 0 1 .035.207c-.504.022-1 .022-1.522.023a.45.45 0 0 1-.03-.208"/><path fill="#e0dee1" d="M11.453 5.65c-.1-.01-.183-.033-.266-.033-.912-.002-1.825-.001-2.764-.001a.6.6 0 0 1 .18-.11c.118.016.219.048.319.049.88.005 1.762.004 2.67.007a.4.4 0 0 1-.139.089z"/><path fill="#ececec" d="M5.867 8.871c-.502.02-.998.02-1.52.02-.028-.026-.03-.052-.03-.097.5-.02.995-.02 1.517-.019.03.026.035.052.033.096"/><path fill="#dfdde1" d="M5.89 8.377c-.145-.017-.271-.055-.398-.058-.373-.008-.745-.003-1.144-.002-.029-.01-.031-.02-.03-.045.566-.013 1.128-.01 1.72-.003a.4.4 0 0 1-.149.107"/><path fill="#e2dde0" d="M9.365 5.055a.02.02 0 0 1 .012.022q-.016.012-.027.01c-.007-.002-.012-.012-.018-.019.007-.006.013-.011.033-.013"/><path fill="#e5e4e5" d="M13.686 11.944c.044-.017.089-.034.151-.051.115.033.212.094.309.095.885.009 1.771.007 2.675.026-.02.043-.058.068-.115.092-.063.015-.108.03-.172.032-.895-.018-1.771-.021-2.647-.03a1 1 0 0 1-.317-.075c.043-.04.08-.065.116-.09"/><path fill="#1818e8" d="M16.723 12.107c.038-.025.077-.05.125-.089.263-.114.516-.213.787-.308a9 9 0 0 1-.824.403z"/><path fill="#fcfbfb" d="M23.721 5.67c.018.002.028.02.037.025.013.151.017.298.01.468-.01.023-.013.021-.033.006-1.263-.02-2.506-.024-3.75-.029-.34-.161-.68-.322-1.006-.502 1.54-.02 3.064-.023 4.59-.026.044.019.09.037.152.058z"/><path fill="#fffefe" d="m23.755 6.185.003.002c.004.122.007.245-.018.387-.056.02-.084.018-.14.017-.202.05-.422-.108-.585.116-.154 0-.283 0-.419-.02-.067-.005-.129.007-.216.02-.33.019-.633.038-.94.038a1 1 0 0 0-.25-.047l-.036.008c-.033-.01-.065-.018-.116-.056a.3.3 0 0 0-.12-.055c-.235-.112-.47-.224-.705-.362.105-.032.21-.043.313-.043z"/><path fill="#fffeff" d="M23.755 8.893c.004.097.008.194-.018.316-1.089.026-2.148.025-3.208.03-.099 0-.197.036-.296.055l-.365-.171c.189-.095.328-.166.515-.237z"/><path fill="#fefdfe" d="M23.765 8.26a3 3 0 0 1-.026.488 87 87 0 0 1-2.773.025c-.09 0-.18-.031-.271-.048.24-.127.482-.254.76-.397.694-.016 1.352-.013 2.01-.017.1-.001.2-.034.301-.052z"/><path fill="#fefefe" d="M23.769 8.235c-.003.025-.001.024-.03.025l-2.298.004c-.002-.138-.004-.276.025-.439a71 71 0 0 1 2.304-.023z"/><path fill="#fffeff" d="M21.443 6.764a20 20 0 0 1 .951-.044c.096.005.152-.005.209-.014l.44.001c.226-.05.45.119.584-.116.029 0 .058.002.108.005.025.174.03.346.004.544-.784.025-1.54.026-2.295.026-.038-.12-.076-.24-.105-.378.041-.02.073-.022.104-.024z"/><path fill="#fefefe" d="M23.755 7.284c.005.115.01.23-.011.371-.786.026-1.544.027-2.303.028-.002-.117-.004-.235.025-.377.784-.024 1.536-.023 2.289-.022"/><path fill="#e7e7e8" d="M20.244 9.311a.8.8 0 0 1 .286-.072c1.06-.005 2.119-.004 3.202-.005a.4.4 0 0 1 .04.214c-1.022.027-2.032.032-3.06.053a2.6 2.6 0 0 1-.468-.19z"/><path fill="#ecebec" d="M20.675 8.727c.11.015.2.046.291.046.915.003 1.83.001 2.768 0 .03.027.037.054.032.101-1.119.016-2.227.013-3.364.007.065-.053.159-.103.273-.154z"/><path fill="#e1dfe0" d="M23.566 5.601c-1.522.014-3.047.017-4.602.022a.4.4 0 0 1-.161-.049c1.39-.015 2.788-.016 4.187-.018.104 0 .209-.012.331-.034.078.003.138.022.218.043.019.002.024.025.027.036"/><path fill="#e1e0e1" d="M21.434 7.702c.766-.02 1.525-.02 2.308-.022.032.027.038.054.036.101-.766.02-1.524.02-2.309.018-.032-.026-.037-.052-.035-.097"/><path fill="#ececec" d="M23.766 7.264c-.763.018-1.516.017-2.295.017-.032-.026-.037-.052-.034-.097.762-.019 1.517-.02 2.297-.02.03.026.037.053.032.1"/><path fill="#e1e0e1" d="M23.735 6.17c-1.056.016-2.132.017-3.209.02-.104 0-.208.01-.33.03a.5.5 0 0 1-.2-.064q1.846-.017 3.739.013"/><path fill="#c7c6e9" d="M21.434 8.275c.763-.012 1.519-.013 2.303-.015-.071.017-.172.05-.272.05-.658.005-1.316.003-2 0-.028 0-.038-.024-.031-.035"/><path fill="#e7e7e8" d="M21.44 6.744c-.029.022-.06.023-.116.027a.15.15 0 0 1-.1-.03c-.015-.02-.02-.046-.02-.046.077.01.155.02.236.049M20.93 6.608q.035-.008.1.027-.036.009-.1-.027"/><path fill="#e6e5e6" d="M21.191 6.697c.012-.002.018.023.019.037q-.027.027-.05-.017c-.006-.012.019-.018.031-.02z"/><path fill="#fefdfe" d="M23.763 11.02c.003.136.006.272.006.433-.003.025-.001.024-.03.026-.69.002-1.35.006-2.009-.001-.106-.001-.212-.05-.318-.076.008-.112.015-.224.054-.36.786-.024 1.542-.023 2.297-.022z"/><path fill="#e6e9e5" d="M23.522 11.936c.031.044.037.088.01.153-1.277.02-2.522.018-3.767.016.115-.058.23-.117.365-.177 1.135.001 2.25.004 3.392.008z"/><path fill="#c0bdea" d="M21.394 11.406c.124.023.23.07.336.072.66.007 1.32.003 2.008 0-.081.017-.191.048-.302.05-.741.003-1.483.001-2.25 0a1 1 0 0 1 .208-.122z"/><path fill="#e6e9e5" d="M23.72 11.65c-.03.016-.076.028-.141.048a1 1 0 0 1 .141-.048"/><path fill="#1616ee" d="m16.705 12.107.086.008q-1.025.535-2.123 1.06c-.039-.017-.053-.026-.063-.043.006-.01.012-.035.032-.04.309-.158.598-.311.907-.472.092-.037.165-.066.257-.1.263-.125.507-.246.751-.368.045-.015.09-.03.153-.045z"/><path fill="#0606ec" d="M14.6 13.143c.016.006.03.015.05.036-.203.116-.405.247-.627.32-.298.099-.4.28-.343.6.002.026 0 .026-.014.025s-.04.007-.062.003c-.063-.005-.105-.006-.15-.032a5 5 0 0 1-.002-.395.6.6 0 0 1 .133-.094c.294-.143.568-.28.861-.418.064-.016.109-.03.154-.045z"/><path fill="#0101fc" d="M13.856 14.941c-.022.038-.044.051-.067.083-.002.02.003.02-.016.017-.045-.002-.07 0-.099-.023a3 3 0 0 1-.004-.278c.002-.025-.002-.035-.003-.07.001-.141 0-.258.003-.394.004-.045.001-.072.003-.11.004-.014.005-.04.005-.04l.003-.002c.134-.02.187.033.18.17-.01.207-.004.414-.006.647z"/><path fill="#fefcfc" d="M8.192 11.001c.268.132.535.264.8.426-.985.036-1.969.043-2.952.05a14 14 0 0 1-.825-.422c.124-.028.248-.036.371-.037z"/><path fill="#fcfbfc" d="m7.133 10.496.462.206c.12.06.22.112.315.197a.9.9 0 0 1-.316.058q-1.301.005-2.602.007c-.186-.087-.375-.167-.555-.264-.054-.029-.083-.104-.094-.18.95-.022 1.87-.023 2.79-.024"/><path fill="#fcfcfc" d="M10.234 12.107c.035.137.07.275.075.436-.76.028-1.491.032-2.223.036-.27-.13-.54-.26-.81-.42a1 1 0 0 1 .315-.048q1.322-.004 2.643-.004z"/><path fill="#fefefe" d="M6.034 9.971c.288.12.548.247.794.39-.845.02-1.676.022-2.506.023a11 11 0 0 1-.004-.375c.565-.027 1.126-.03 1.716-.038z"/><path fill="#fefbfb" d="M10.331 12.629c.002.135.004.27-.023.431-.389.042-.75.058-1.11.075a14 14 0 0 1-.885-.465 52 52 0 0 1 2.018-.041"/><path fill="#e5e4e5" d="M10.231 12.096c-.878.013-1.76.013-2.64.016-.105 0-.209.013-.33.036a1.4 1.4 0 0 1-.354-.133 1 1 0 0 1 .314-.073c.839-.012 1.677-.017 2.534-.04.076.005.135.026.212.051.047.02.075.036.12.055.045.018.073.035.12.052.017.001.021.024.024.036"/><path fill="#ebeaeb" d="M4.318 10.403c.834-.02 1.665-.022 2.524-.026.084.016.138.035.21.057a.2.2 0 0 1 .073.05c-.912.013-1.832.014-2.778.016-.029-.026-.031-.052-.03-.097"/><path fill="#dfdde1" d="M5 10.98c.86-.018 1.727-.019 2.594-.023.103 0 .207-.017.327-.043a.8.8 0 0 1 .256.072c-.854.02-1.723.024-2.591.03-.124.002-.247.01-.39.029A.46.46 0 0 1 5 10.98"/><path fill="#e0dee1" d="M6.05 11.492c.973-.022 1.957-.03 2.958-.052a.6.6 0 0 1 .24.076c-.975.024-1.96.031-2.963.054a.6.6 0 0 1-.235-.078"/><path fill="#d9d8e9" d="M10.337 12.614c-.678.02-1.35.025-2.041.045a.5.5 0 0 1-.199-.064c.721-.019 1.453-.023 2.21-.027.03.01.032.02.03.046M9.214 13.141c.345-.024.705-.04 1.092-.057.03.01.033.02.031.046-.332.02-.658.026-1.003.046-.047 0-.076-.014-.12-.035"/><path fill="#c7c6e9" d="M23.794 9.59c-.01.005-.02.002-.021-.003.009-.002.022-.003.021.004"/><path fill="#fdfcfc" d="M19.087 14.807c-.273.134-.547.269-.841.406-1.537.001-3.052 0-4.595-.016-.027-.013-.027-.037-.006-.038a1 1 0 0 0 .148-.115l-.007-.001c.248-.098.498-.194.796-.293 1.424 0 2.8.001 4.177.006.11 0 .22.033.329.05z"/><path fill="#fefefd" d="M22.76 12.938c-.013.015-.037.017-.045.026a2 2 0 0 1-.335.127c-1.422 0-2.799-.002-4.175-.007-.11 0-.218-.034-.328-.052.265-.136.53-.271.843-.41 1.44 0 2.834.001 4.227.007.11 0 .222.026.333.04-.169.085-.338.17-.52.27z"/><path fill="#fdfdfc" d="M22.189 13.194c-.274.135-.548.27-.869.407-1.442.003-2.837.004-4.231.001-.101 0-.202-.03-.303-.045.271-.137.542-.273.86-.412 1.436-.001 2.824-.002 4.212.002.11 0 .22.03.331.047z"/><path fill="#fefdfd" d="M19.745 12.109c1.265-.002 2.51 0 3.78.002.028.117.029.234.01.377-.041.044-.061.063-.081.083l-.015-.002-.07-.001a545 545 0 0 1-4.342-.068v-.034c.233-.118.465-.236.718-.357"/><path fill="#fefefe" d="M20.043 14.325c-.217.132-.453.25-.735.37a1100 1100 0 0 1-4.234-.001c-.1 0-.2-.032-.301-.049.23-.117.461-.234.71-.357 1.413-.002 2.806 0 4.2.006.114 0 .228.01.36.03z"/><path fill="#e1e0df" d="M16.767 13.56c.12.013.22.042.322.043 1.395.003 2.79.002 4.211.004a1 1 0 0 1-.209.12c-1.353 0-2.688-.004-4.023-.008-.18 0-.362-.004-.572-.01q.1-.077.271-.149zM19.026 12.512c1.439.019 2.877.038 4.342.068.027.012.027.034.027.034-.028.017-.056.034-.1.053-.127-.012-.238-.038-.349-.038-1.393-.005-2.787-.006-4.209-.013 0-.02.029-.035.09-.054.05-.016.067-.03.084-.042 0 0 .02-.013.05-.01z"/><path fill="#e1dfe0" d="M14.754 14.647c.12.016.22.048.32.048 1.395.003 2.791.002 4.214.004a.6.6 0 0 1-.183.108c-.128-.017-.238-.05-.347-.05-1.377-.006-2.753-.006-4.159-.014a.4.4 0 0 1 .155-.096z"/><path fill="#e1e0df" d="M22.207 13.193c-.13-.015-.24-.046-.35-.046-1.388-.004-2.776-.003-4.192-.006a.7.7 0 0 1 .192-.109c.129.017.238.05.347.051 1.376.006 2.753.007 4.158.015a.4.4 0 0 1-.155.095z"/><path fill="#e6e9e5" d="M19.027 12.5c-.012.011-.024.01-.053.009q-.005-.023.038-.043c.015 0 .015.023.015.034zM18.894 12.519q0 .019-.05.041 0-.019.05-.041"/><path fill="#fbfafa" d="M15.78 5.599c.336.164.673.327.995.509-1.013.024-2.012.03-3.01.038-.32-.156-.642-.312-.962-.492a1.7 1.7 0 0 1 .371-.039z"/><path fill="#fefdfd" d="M16.965 6.181c.235.114.47.228.703.367-.987.033-1.973.04-2.96.048-.235-.111-.47-.222-.705-.36.104-.035.208-.047.311-.047q1.326-.005 2.651-.008z"/><path fill="#fefeff" d="M18.134 6.75c.23.111.461.223.69.364a1 1 0 0 1-.316.05q-1.306.01-2.613.014c-.246-.117-.491-.234-.736-.376.115-.029.229-.038.343-.039z"/><path fill="#fcfcfd" d="M19.173 7.267c.197.093.396.184.59.284.013.007-.008.08-.059.127-.953.008-1.859.012-2.765.016a8 8 0 0 1-.694-.366c.106-.035.21-.046.314-.047q1.308-.008 2.614-.014"/><path fill="#e5e4e5" d="M18.119 6.735c-.863.02-1.74.023-2.618.029-.114 0-.228.009-.36.028a2.3 2.3 0 0 1-.421-.18c.974-.023 1.96-.03 2.965-.052.152.044.286.102.434.175"/><path fill="#ebeaeb" d="M19.16 7.252c-.858.02-1.729.023-2.6.03-.104 0-.209.012-.33.034a1.3 1.3 0 0 1-.322-.123c.857-.019 1.728-.022 2.6-.028.104 0 .208-.013.33-.037.114.025.211.067.322.124"/><path fill="#dcdbe2" d="M16.952 7.71c.894-.02 1.8-.024 2.733-.028a.7.7 0 0 1-.213.131c-.757-.008-1.496-.01-2.262-.013-.1-.025-.173-.05-.258-.09"/><path fill="#e0dee1" d="M15.766 5.585c-.855.02-1.724.024-2.593.03-.123.001-.247.01-.39.029a.5.5 0 0 1-.194-.066c.873-.017 1.756-.019 2.64-.022a2 2 0 0 0 .33-.031.6.6 0 0 1 .207.06M16.963 6.17c-.881.014-1.765.015-2.648.02-.104 0-.208.011-.329.034a.5.5 0 0 1-.208-.064c.985-.021 1.984-.028 3.011-.037.064.003.098.008.149.015.017.002.023.022.025.033"/><path fill="#fffeff" d="M12.001 2.348c-.837.002-1.656-.006-2.476-.01-.696-.003-1.391-.002-2.117-.004.23-.135.488-.268.765-.41.932-.001 1.846.006 2.76.01.6.004 1.2.003 1.83.005-.11.076-.249.152-.403.24-.124.062-.232.112-.359.17z"/><path fill="#fefdfe" d="M15.089 8.3c.3.145.6.29.914.452-2.578.019-5.17.02-7.79.019.256-.151.542-.3.875-.452 1.43-.003 2.814 0 4.198-.004.6 0 1.202-.01 1.803-.015z"/><path fill="#fcfcfc" d="M14.294 7.902c.2.096.38.19.559.31a.17.17 0 0 1-.114.045q-2.606.002-5.211-.001c-.072 0-.144-.032-.215-.049.268-.136.536-.272.851-.41l3.868-.003c.08.035.162.07.262.108z"/><path fill="#fdfcfc" d="M12.827 7.199c.29.14.581.282.871.446-1.043.028-2.086.033-3.13.035-.034 0-.068-.026-.103-.04.235-.117.47-.235.753-.355.474-.003.9 0 1.328-.008.094-.002.187-.051.281-.078"/><path fill="#e1e0e1" d="M10.446 7.643c.054.01.089.037.123.037a207 207 0 0 0 3.148-.026c.111.027.203.067.305.124-1.263.017-2.536.017-3.838.015.062-.052.153-.1.262-.15M9.294 8.208c.09.016.162.047.233.047q2.607.004 5.212.001a.4.4 0 0 0 .13-.033.5.5 0 0 1 .207.063 59 59 0 0 1-1.79.03c-1.383.002-2.767 0-4.178 0a.6.6 0 0 1 .186-.109"/><path fill="#ebeaeb" d="M12.814 7.187c-.081.039-.174.088-.269.09-.427.009-.854.005-1.308.005.075-.055.177-.11.298-.165.371.01.723.02 1.092.015.07.004.122.024.187.056z"/><path fill="#fdfdfe" d="M16.533 12.139a6 6 0 0 1-.758.378c-.173.018-.3.036-.455.053l-3.453-.006c0-.133 0-.266.026-.426.532-.02 1.039-.012 1.545-.01.023 0 .046-.042.083-.069.023-.006.033-.007.042-.009.108.02.215.057.323.058.876.009 1.752.012 2.647.03z"/><path fill="#fefefe" d="M15.525 12.627c-.29.153-.58.306-.916.46-.859 0-1.67-.002-2.482 0-.082 0-.163.034-.246.053h-.005c-.002-.152-.004-.305.02-.485a141 141 0 0 1 3.63-.029z"/><path fill="#fcfbfd" d="M11.871 13.167c.004-.025.008-.026.038-.025.758.002 1.485 0 2.213.005.101 0 .203.027.304.042-.274.137-.548.275-.869.415-.592 0-1.138-.002-1.684-.005-.002-.136-.004-.271-.002-.432z"/><path fill="#fefdfd" d="M13.665 11.537c.002.026.005.051.011.095.004.02.006.018-.016.023-.297-.005-.184.213-.247.34l-1.546-.006c0-.091.003-.182.002-.296.07-.052.14-.083.241-.135a35 35 0 0 1 1.523-.022z"/><path fill="#fefefe" d="M13.442 13.715c.003.118.005.237-.016.38-.475.029-.925.033-1.375.036a2 2 0 0 0-.136.016 1.1 1.1 0 0 1-.015-.4c.534-.03 1.038-.03 1.542-.032"/><path fill="#e6d0d0" d="m15.343 12.623-3.444.007c-.032-.009-.038-.02-.038-.048a128 128 0 0 1 3.458 0c.027.014.024.04.024.04zM11.859 12.01a23 23 0 0 1 1.561.001c.051.028.07.04.088.052-.023.023-.046.065-.07.065-.506-.002-1.012-.009-1.544-.015-.031-.027-.037-.055-.035-.103zM13.451 13.701c-.513.016-1.017.017-1.55.02-.035-.03-.042-.063-.038-.108.556-.011 1.102-.008 1.674-.003-.008.027-.043.052-.086.091z"/><path fill="#fdfcfc" d="M10.322 10.525q1.731-.021 3.51.004c-.17.074-.175.223-.189.405-.83.025-1.633.027-2.435.028-.291-.14-.582-.28-.886-.437z"/><path fill="#fefdfe" d="M13.665 11.02c.002.135.004.27-.008.43-.013.025-.035.026-.061.027l-1.509-.002a9 9 0 0 1-.69-.435c.765-.019 1.517-.02 2.268-.02z"/><path fill="#d9d8e9" d="M13.671 11.004c-.757.016-1.508.016-2.288.02a.5.5 0 0 1-.167-.047 128 128 0 0 1 2.425-.02c.03.01.032.021.03.047"/><path fill="#e2dde0" d="M12.082 11.49c.499-.015.993-.015 1.514 0 .027.026.026.036.026.046h-1.509c-.03-.01-.033-.02-.031-.046"/><path fill="#ebeaeb" d="M19.295 10.383c.059.004.09.009.117.046a.45.45 0 0 1-.224.069q-1.061.002-2.122-.001c.074-.04.148-.08.24-.123.666.001 1.314.005 1.989.01z"/><path fill="#fdfdfd" d="M9.65 1.24a10 10 0 0 1 .907-.458L13.652.77l.786.382c-.124.064-.216.112-.327.167-.124-.02-.228-.07-.333-.07-1.366-.006-2.733-.006-4.129-.009z"/><path fill="#fefdfd" d="M18.741 11.205c-.2.1-.385.187-.589.282-.867.001-1.716-.004-2.565-.011a4 4 0 0 1-.447-.029 8 8 0 0 1 .878-.435c1.044.003 2.04.008 3.037.013-.1.056-.2.111-.314.18"/><path fill="#fcfbfc" d="M17.045 10.499c.728-.002 1.435 0 2.143-.002a.7.7 0 0 0 .235-.057c.149.045.283.111.455.196-.239.12-.438.22-.685.32-.904.002-1.76.004-2.617 0-.106-.001-.213-.044-.32-.068.257-.128.513-.257.79-.389z"/><path fill="#dfdde1" d="M16.238 10.891c.126.02.232.063.339.064.856.006 1.713.003 2.596.005-.01.023-.047.043-.102.065-1.013-.004-2.01-.01-3.035-.02a.7.7 0 0 1 .202-.114z"/><path fill="#fdfdfd" d="M23.755 10.502c.006.135.012.27-.009.429-.786.026-1.545.027-2.304.027-.002-.136-.005-.272.024-.434.784-.024 1.536-.023 2.289-.022"/><path fill="#fefefe" d="M23.742 9.985a.9.9 0 0 1-.004.374c-.785.025-1.54.026-2.295.026-.003-.117-.006-.235-.006-.377.762-.024 1.52-.024 2.304-.023z"/><path fill="#ececec" d="M21.437 10.403c.762-.02 1.517-.02 2.297-.02.03.026.037.053.032.1-.763.018-1.516.017-2.295.016-.031-.026-.036-.051-.034-.096"/><path fill="#e1e0e1" d="M21.436 10.974c.766-.015 1.525-.016 2.309-.016.03.01.034.022.028.048-.765.014-1.521.013-2.303.012-.032-.01-.036-.02-.034-.044z"/><path fill="#1414e5" d="M13.521 12.059a.14.14 0 0 1-.075-.047c.03-.144-.083-.362.213-.358.021.076.02.159.023.266-.033.049-.07.073-.112.114-.016.018-.026.02-.049.025"/><path fill="#fcfbfc" d="M17.696 2.744c-.05.041-.108.105-.166.105-1.116 0-2.231-.005-3.365-.024.253-.15.524-.288.843-.427.682-.003 1.316-.004 1.951-.005l.118.035.577.283c.019.008.034.025.042.033z"/><path fill="#dfdde1" d="M16.95 2.378c-.626.016-1.261.017-1.923.017a.6.6 0 0 1 .186-.108c.308.016.597.04.886.05.218.007.437-.002.684-.006.072.01.115.02.167.047z"/><path fill="#fcfcfc" d="M20.902 4.412c-.083.024-.184.05-.286.05-1.402.005-2.804.006-4.235.013a9 9 0 0 1-.909-.446c.386-.02.758-.022 1.13-.023l3.43-.016z"/><path fill="#e1dfe0" d="M20.02 3.976c-1.13.019-2.274.024-3.418.03-.372.002-.744.004-1.145.008a.5.5 0 0 1-.167-.047c1.393-.016 2.793-.018 4.194-.02.104 0 .208-.013.33-.035a.5.5 0 0 1 .206.064"/><path fill="#1b1bec" d="M5.934 9.587c.009.004-.013.014-.013.014s-.023-.009-.018-.015c.004-.007.023-.003.031 0z"/><path fill="#fdfdfd" d="M13.623 15.159v.036c-.495.013-.99.015-1.51.016a1.2 1.2 0 0 1-.003-.43 33 33 0 0 1 1.555-.026c.002.08.005.159-.005.271-.02.067-.029.1-.037.133"/><path fill="#fff" d="M13.665 14.295c.002.117.004.233-.023.375-.537.024-1.045.024-1.554.024-.002-.116-.004-.233.024-.374.537-.025 1.045-.025 1.553-.025"/><path fill="#e1e0e1" d="M13.671 14.276c-.515.02-1.023.02-1.557.02-.035-.041-.044-.083-.058-.144.445-.025.895-.028 1.372-.032.07.001.112.002.18.017.036.026.047.035.062.04a.4.4 0 0 1 0 .1z"/><path fill="#e2dde0" d="M12.082 14.709a52 52 0 0 1 1.557-.015c.03.01.033.02.031.046-.514.015-1.023.015-1.557.015-.03-.01-.033-.02-.031-.046"/><path fill="#d9d8e9" d="M13.633 11.537c-.01-.01-.01-.02-.01-.046 0-.015.02-.016.031-.016.015.01.018.02.017.047-.006.016-.027.016-.038.015z"/><path fill="#fcfbfc" d="M12.681.324c.137.046.247.092.376.147.132.068.246.129.359.215-.857.03-1.713.035-2.568.038-.033 0-.066-.03-.1-.047.233-.117.464-.234.716-.354z"/><path fill="#e0dee1" d="M10.73.678c.052.015.085.046.118.046a123 123 0 0 0 2.585-.028.5.5 0 0 1 .206.06c-1.003.017-2.019.02-3.063.02a.4.4 0 0 1 .154-.098"/><path fill="#fefdfd" d="M8.486 3.953c-1.412.001-2.804-.002-4.196-.007-.113 0-.227-.01-.36-.029.254-.15.526-.288.845-.427 1.434-.002 2.822-.004 4.21 0 .11 0 .219.033.328.05-.269.136-.538.272-.827.413z"/><path fill="#e1dfe0" d="M9.332 3.54c-.128-.017-.238-.05-.348-.05-1.387-.003-2.775-.002-4.19-.004a.6.6 0 0 1 .188-.108c.12.016.22.048.32.049 1.395.003 2.79.002 4.213.003a.6.6 0 0 1-.183.11z"/><path fill="#2829dc" d="M9.74 3.372c0-.006.02-.014.05-.016-.002.01-.016.012-.05.016"/><path fill="#fefeff" d="M.433 6.202c1.19-.018 2.38-.015 3.598-.009a7 7 0 0 1-.814.42c-.95-.014-1.862-.02-2.774-.025z"/><path fill="#e7e7e8" d="M.431 6.608a77 77 0 0 1 2.767.01c-.053.042-.125.072-.206.12a.3.3 0 0 1-.175.06c-.815-.02-1.595-.027-2.375-.033a.6.6 0 0 1-.011-.156z"/><path fill="#fdfdfd" d="M5.423 5.554c-1.544.003-3.068.001-4.621 0 .242-.143.514-.285.816-.442.052-.015.075-.015.125-.014 1.423 0 2.818 0 4.213.002.102 0 .204.025.305.039-.273.137-.545.273-.838.415z"/><path fill="#fdfcfc" d="m1.716 5.098-.086-.002c-.017 0-.019.005-.017-.008v-.039c.254-.136.508-.272.781-.411 1.544-.002 3.068-.001 4.62 0-.151.097-.333.192-.53.3-.05.028-.086.045-.153.079-1.451.018-2.87.018-4.29.022-.109 0-.217.038-.325.058z"/><path fill="#e0dee1" d="M1.744 5.098c.08-.02.188-.057.297-.058 1.42-.005 2.839-.004 4.283-.005q.011.049-.044.101c-.12-.011-.222-.036-.324-.037-1.395-.003-2.79-.002-4.212-.002z"/><path fill="#fefefe" d="M2.758 7.8c.003.137.005.274-.023.436-.756.025-1.482.025-2.208.025v.05H2.76c.002.138.004.276-.025.439-.784.024-1.537.023-2.29.022-.005-.305-.01-.611.01-.943a67 67 0 0 1 2.304-.03"/><path fill="#fff" d="M.438 6.79a46 46 0 0 1 2.36.01c.001.117-.016.219-.064.343-.784.021-1.537.02-2.29.02C.44 7.045.437 6.93.438 6.788z"/><path fill="#fefefe" d="M2.756 7.28c.003.118.006.236-.021.378-.787.024-1.544.023-2.301.022 0-.116 0-.232.03-.373a70 70 0 0 1 2.292-.026"/><path fill="#fff" d="M2.756 8.89c.003.1.006.198-.022.321-.784.024-1.536.022-2.29.02a1.2 1.2 0 0 1 .02-.315 72 72 0 0 1 2.292-.026"/><path fill="#e7e7e8" d="M.433 9.253c.765-.02 1.517-.019 2.297-.017a.4.4 0 0 1 .035.207c-.752.022-1.495.022-2.265.023-.025.001-.047-.005-.058-.004a.6.6 0 0 1-.01-.209z"/><path fill="#e1e0e1" d="M.425 7.7a90 90 0 0 1 2.306-.018c.032.027.038.053.035.098-.767.02-1.526.02-2.31.022-.03-.028-.036-.056-.031-.103"/><path fill="#ececec" d="M2.762 8.871c-.76.02-1.514.02-2.292.021-.032-.026-.04-.054-.037-.1.764-.019 1.517-.018 2.297-.017.03.026.035.052.032.096M2.763 7.262c-.761.02-1.515.02-2.294.02-.031-.026-.04-.053-.036-.1.764-.018 1.517-.017 2.297-.016.03.025.035.051.033.096"/><path fill="#e0dee1" d="M1.599 5.048c.015.002.015.028.01.04-.01-.006-.018-.024-.01-.04"/><path fill="#e1dfe0" d="M11.91 15.842c-.028-.002-.044-.023-.039-.034 1.658-.016 3.31-.02 4.988-.023.026 0 .022.019.02.028-.035.018-.067.027-.113.043a.4.4 0 0 1-.084.032c-.117-.014-.218-.04-.32-.04-1.475-.003-2.95-.003-4.452-.006zM7.01 13.598c.11.027.19.057.28.102-1.387.016-2.785.017-4.183.02-.104 0-.208.012-.33.034a1.4 1.4 0 0 1-.338-.12c1.266-.02 2.546-.025 3.826-.03.24 0 .478-.003.746-.006z"/><path fill="#e6e9e5" d="M23.47 12.569q.007-.027.058-.057-.006.027-.058.057M23.409 12.615c-.014-.001-.014-.024-.014-.035.01-.012.02-.012.044-.01q.018.03-.03.045"/><path fill="#e1e0e1" d="M3.016 11.486c.02.002.026.025.029.036-.846.012-1.695.012-2.573.01.072-.02.172-.052.272-.053.564-.005 1.128 0 1.692-.004.102 0 .205-.024.323-.056.09.008.164.037.257.067"/><path fill="#e9c8c8" d="M2.765 8.299c-.75.012-1.494.012-2.237.012v-.05l2.204.001c.027.001.04.025.033.037"/><path fill="#e2dde0" d="M9.493 5.056c1.476-.017 2.971-.017 4.467-.019.104 0 .208-.01.331-.028a.16.16 0 0 1 .095 0l.085.039c-.058.02-.13.048-.203.048q-2.295.003-4.589 0a.6.6 0 0 1-.186-.04"/><path fill="#e6e5e6" d="M23.601 6.591c-.109.235-.332.066-.535.116.112-.225.333-.067.535-.116"/><path fill="#e1e0df" d="M22.597 6.687a.3.3 0 0 1-.177.033.3.3 0 0 1 .177-.033"/><path fill="#e1e0e1" d="M14.445 13.188c-.12-.014-.221-.04-.323-.041-.727-.004-1.455-.003-2.21-.005.052-.02.133-.053.214-.053.812-.003 1.624 0 2.463.005.028.003.022.027.016.038a.7.7 0 0 1-.16.056z"/><path fill="#f0f0f0" d="M15.366 12.624c-.023-.001-.02-.028-.02-.04.129-.032.257-.05.41-.064-.046.033-.12.062-.212.1-.064.007-.11.006-.178.004z"/><path fill="#e2dde0" d="M13.675 14.165c-.019.008-.03-.001-.045-.024-.005-.01.022-.018.036-.017s.013.028.009.041M13.644 15.159c-.012-.033-.004-.066.018-.108a.4.4 0 0 1 .111-.01.36.36 0 0 1-.129.118z"/></svg>