<svg xmlns="http://www.w3.org/2000/svg" width="28" height="25" fill="none" viewBox="0 0 28 25"><path fill="#607276" fill-rule="evenodd" d="M14 9a1 1 0 0 1 1 1v5a1 1 0 1 1-2 0v-5a1 1 0 0 1 1-1" clip-rule="evenodd"/><path fill="#607276" fill-rule="evenodd" d="M12.501.403a2.987 2.987 0 0 1 4.09 1.098l.002.002L27.59 20.5a3 3 0 0 1-2.588 4.5H2.996A3 3 0 0 1 .41 20.5L11.407 1.503l.001-.002A3 3 0 0 1 12.501.403M12.275 2l.865.501-11 18.999a1 1 0 0 0 .862 1.5h21.996a1 1 0 0 0 .861-1.5L14.857 2.497a.988.988 0 0 0-1.714 0z" clip-rule="evenodd"/><path fill="#607276" d="M14 21a1.5 1.5 0 1 0 0-3 1.5 1.5 0 0 0 0 3"/></svg>