<svg xmlns="http://www.w3.org/2000/svg" xml:space="preserve" viewBox="0 0 18.31 24"><path fill="#e35d45" d="M.264.612c.134-.19.268-.38.373-.59C.73 0 .85 0 1.007 0c.18.18.322.36.46.595a.7.7 0 0 1-.108.277c-.302.265-.575.525-.874.769C.394 1.287.33.95.264.612"/><path fill="#baafbe" d="M9.865 24c-.134-.08-.23-.16-.34-.276.033-.063.081-.09.157-.108l.453.116.089-.158c-.182-.18-.363-.36-.554-.57-.145-.252-.28-.475-.404-.707l.03-.029c.449.565.896 1.13 1.372 1.714-.236.018-.5.018-.803.018"/><path fill="#bf5128" d="M0 4.384c.353-.1.54-.298.525-.671C.517 3.51.499 3.3.546 3.11c.029-.115.054-.48.31-.106a69 69 0 0 0-.337 1.602 5 5 0 0 0-.495.151C0 4.662 0 4.541 0 4.384"/><path fill="#c8d3ea" d="M7.46 19.401c.152.322.305.643.433.993-.107-.01-.189-.048-.321-.11 0 .257 0 .464-.014.69a.25.25 0 0 1-.114.073l-.14-.002c-.001-.001-.003-.002-.012-.02-.026-.041-.047-.057-.074-.097a2 2 0 0 1 0-.176c-.093-.297-.145-.594-.3-.823-.155-.232-.586-.393-.59-.591-.01-.504-.268-.322-.504-.289v-.029l-.007-.108c0-.06 0-.096.034-.13.093-.046.154-.09.215-.135a2 2 0 0 1-.249-.15c-.038-.131-.038-.255-.095-.341-.146-.223.093-.69-.429-.707-.061-.146-.115-.265-.175-.407-.03-.045-.053-.067-.078-.106a.4.4 0 0 1 0-.082.6.6 0 0 1 .18-.214c.091.182.179.334.269.489.166-.112.279-.188.407-.245.04.037.064.056.11.094.076.142.13.264.184.41.021.046.042.069.095.108.07.008.107 0 .146-.013.002-.003-.005 0-.038.017.048.18.13.344.21.538.08.25.151.475.251.686.022.046.148.043.225.095.073.126.145.22.22.315.001 0 0 .004-.009.034.054.096.117.162.176.227-.004-.001-.007.006-.007.006z"/><path fill="#d73248" d="M12.291 16.053a2.24 2.24 0 0 1-1.416.354c-.727-.13-1.394-.234-2.082-.36-.192-.114-.363-.204-.53-.324a1.2 1.2 0 0 1 .203-.322c.27.098.509.194.791.307l.038-.479c.507-.015.507-.015.613-.283.005-.043.007-.061.038-.071.154.12.279.231.403.375a.5.5 0 0 1-.033.225c-.133.063-.237.122-.442.237.334.148.576.256.833.383.065-.015.116-.05.196-.102.24-.032.449-.048.664-.04.063.008.12-.007.206-.024.065 0 .103 0 .154.018.036.034.062.042.16.054.114.027.159.04.204.052z"/><path fill="#f2ce57" d="M13.909 6.35c.53.477 1.09.927 1.58 1.443.268.283.419.678.616 1.052-.007.028-.007.031-.03.009-.135-.128-.273-.215-.356-.339-.181-.274-.302-.351-.53-.262-.07 0-.11.005-.171-.001l-.146-.077c-.002-.001-.005-.004-.014-.022-.025-.04-.046-.055-.077-.094-.07-.065-.132-.101-.217-.155-.318-.335-.614-.651-.911-.999-.09-.172-.177-.314-.326-.554z"/><path fill="#781010" d="M13.795 14.329c-.003.25-.007.5-.037.742-.04-.117-.052-.225-.057-.268-.64.166-1.258.326-1.9.465a1.68 1.68 0 0 1-.929-.476c-.015-.017-.054-.01-.1-.021a.2.2 0 0 1-.074-.04c-.336-.226-.651-.43-.976-.662-.175-.13-.34-.231-.523-.353-.093-.093-.167-.165-.213-.235.157-.032.287-.067.442-.087 1.028 1.02 2.107 1.781 3.653 1.129.256-.077.485-.135.714-.194"/><path fill="#f4c05c" d="M14.614 13.613a.7.7 0 0 1-.116.106.2.2 0 0 1-.093.02l-1.743.094c-.562.121-1.012-.07-1.401-.357.45.068.864.135 1.279.202l.027-.18c-.183-.04-.422-.022-.537-.132-.326-.311-.601-.675-.896-1.052-.004-.102-.007-.17.007-.257.027-.16.037-.298.044-.402.35.14.714.284 1.112.43.126.001.218.001.34.009q.091.147.083.279c-.41-.021-.756-.376-1.173-.1-.037.027-.035.05.001.1.04.05.07.072.104.124.215.464.62.567 1.058.658.093.093.17.165.252.269.197.181.377.255.534-.031.022 0 .065.004.086.026.152-.023.283-.069.415-.115 0 0 .003-.003.031.011.163.01.3-.016.429.008.11.021.207.1.31.154-.01.016-.02.031-.065.066-.06.029-.078.046-.089.07z"/><path fill="#f3c859" d="M16.098 8.877s0-.003-.002-.004c.031.055.065.11.098.198 0 .033.007.038.007.038.664 1.268.24 2.39-.52 3.492-.309.123-.397.596-.784.34.268-.382.515-.746.792-1.111.3.019.405-.088.327-.378.038-.24.05-.457.065-.708-.023-.184-.048-.334-.05-.51.036-.47.052-.913.067-1.358z"/><path fill="#a72d44" d="M7.47 6.349c.206-.528.412-1.056.656-1.619.607-.078.436-.578.58-.914l.16-.23c.027.22.132.47.065.657-.126.358-.382.668-.526 1.021-.133.328-.19.686-.32 1.077-.06.14-.079.236-.127.334-.166.032-.303.063-.463.099z"/><path fill="#f48b4f" d="M12.696 13.831c.556-.03 1.113-.06 1.708-.083.04.01.04.027.04.027-.205.168-.409.336-.631.529a5.5 5.5 0 0 1-.754.193c-.465.004-.883.037-1.296.01-.139-.008-.267-.169-.4-.26l.074-.124c.376-.045.754-.085 1.128-.142.05-.008.088-.098.131-.15"/><path fill="#8a0a15" d="M11.561 15.931c-.21.015-.418.03-.683.062a2 2 0 0 0-.185.083l-.82-.363a2.4 2.4 0 0 1 .48-.23c.533.01 1.001.018 1.5.021.152-.034.272-.063.42-.076.191.004.357-.01.558-.025l.548-.023c-.352.223-.704.447-1.072.672a2 2 0 0 1-.235-.065c-.105-.047-.13-.056-.158-.055l-.172-.008c-.1 0-.14.003-.181.007"/><path fill="#f0c85e" d="M8.51 7.91c.058-.126.115-.251.208-.406.07-.026.106-.023.136.004.018.096.041.169.073.269.02.062.033.098.042.164.051.13.106.228.16.354 0 .064.004.1.016.166.032.126.053.223.073.356.112.36.227.686.324 1.023-.04.029-.056.051-.093.063-.154-.065-.28-.116-.41-.197-.087-.181-.171-.332-.231-.503.034-.136.043-.252.056-.408-.182.068-.308.115-.427.127.03-.361.051-.686.074-1.011z"/><path fill="#f4c05c" d="M10.871 5.66c.04-.038.08-.075.146-.077.027.074.027.114.03.179a.5.5 0 0 0 .196.07c.157.088.283.17.439.257.127.062.224.12.336.203.207.123.398.221.57.341-.152.121-.283.22-.429.342-.064.095-.111.169-.185.238-.168-.095-.306-.175-.345.105-.04.026-.055.047-.064.073h-.022l-.087-.001c-.02 0-.062-.001-.061-.033.027-.213.055-.395.078-.606-.145-.124-.285-.22-.426-.349-.011-.177.188-.422-.174-.424l-.002-.098z"/><path fill="#d73b3e" d="M5.487 1.85c.221-.12.43-.273.665-.355.727-.256.943-.158 1.277.566a.65.65 0 0 1-.255.111c-.123-.094-.21-.196-.317-.264-.277-.178-.553-.252-.809.089-.243.113-.453.227-.663.343 0 .002-.004.002-.03.006a1 1 0 0 1-.305-.028c.156-.172.296-.32.437-.468z"/><path fill="#eba95c" d="M9.835 17.063a45 45 0 0 1-1.538 1.47c-.053-.087-.07-.16-.091-.24a1 1 0 0 1-.286.114c.083-.156.168-.282.282-.41.099-.086.167-.17.26-.268.066-.091.108-.168.177-.25.071-.056.116-.108.195-.163.227-.064.418-.131.613-.184.126-.034.258-.047.388-.07"/><path fill="#c1d7f3" d="M7.572 20.956v-.672c.132.062.214.101.326.143a.9.9 0 0 1 .27.274c.093.296.176.532.262.802-.014.135-.03.237-.046.335-.155-.04-.27-.069-.408-.11-.15-.265-.277-.519-.404-.772"/><path fill="#f3c859" d="m11.044 5.737.001-.15c.736-.014 1.475-.018 2.142.444-.229.049-.47.052-.711.053l-.823.002-.424-.274a2 2 0 0 0-.185-.074z"/><path fill="#f8c864" d="M11.682 6.09c.245-.005.52-.005.793-.006.242 0 .483-.004.735-.038.23.064.449.159.683.279-.144.025-.304.025-.566.025.149.24.236.382.307.557-.017.034-.054.038-.072.015-.488-.34-.94-.7-1.558-.655-.098-.058-.195-.116-.322-.178"/><path fill="#bfa155" d="M17.031 3.391c.244.013.495-.006.73.047.192.043.366.17.549.26l-.045.108c-.437 0-.874.011-1.31-.008-.1-.004-.196-.114-.281-.205.127-.087.242-.144.357-.201z"/><path fill="#e1324d" d="M12.245 15.411c-.12.03-.24.06-.39.057-.03-.082-.03-.13-.03-.179l1.876-.486c.005.043.017.15.03.292-.1.111-.2.189-.327.276a9 9 0 0 1-.612.028c-.233.002-.39.007-.547.012"/><path fill="#78180e" d="M8.815 16.07c.666.104 1.332.207 2.025.333-.08.04-.186.058-.343.107a8 8 0 0 1-1.026.182c-.095-.044-.178-.067-.248-.115-.195-.125-.404-.225-.607-.354.07-.07.134-.112.199-.153"/><path fill="#6e1214" d="M7.987 6.673c.02-.096.039-.191.08-.306.034.375.046.769.084 1.21.026.077.027.107-.002.152-.17.28-.313.544-.478.819-.054.027-.084.045-.14.056.016-.204.057-.403.098-.601l-.505-.093.315-.32c.198-.049.361-.062.548-.078z"/><path fill="#7fd0d7" d="M9.39 3.411c.153.016.306.032.478.083.038.079.056.161.075.16.426 0 .852-.01 1.314-.014.183.006.33.008.476.029v.058c-.501.037-1.003.07-1.504.115-.107.01-.21.062-.383.085-.467.027-.6-.139-.456-.516"/><path fill="#a08a68" d="M17.006 3.367c-.09.082-.204.14-.347.198-.282.34-.64.155-.95.157-.07 0-.143-.224-.234-.379.582 0 1.044 0 1.531.024"/><path fill="#d3aa74" d="M9.038 6.88c.054-.152.062-.365.17-.446.343-.257.722-.464 1.15-.692.123.085.184.17.213.256-.121.028-.213.056-.338.085-.186.117-.34.235-.513.345-.065.024-.109.057-.182.093-.187.122-.344.24-.5.36"/><path fill="#db925e" d="M9.483 16.712c.32-.057.641-.114.998-.174-.176.17-.387.343-.622.52-.153.027-.285.04-.411.074-.195.052-.386.12-.617.18-.039 0-.046-.006-.045-.035.047-.084.084-.15.14-.19.182-.13.37-.25.557-.375"/><path fill="#b43426" d="M4.35 1.864a1.4 1.4 0 0 1-.261-.003c-.362-.021-.66-.025-.959-.029 0 0-.008-.012.001-.046.085-.236.162-.437.245-.643l.021-.018c.187.103.375.206.584.354.106.062.188.08.27.096.016.002.031.004.09.026.114.056.183.091.301.151z"/><path fill="#a4bfd6" d="M13.486 3.238a2 2 0 0 1 .328.017c.3.04.537.058.774.076l-.003.031c-.254.023-.509.046-.803.075a25 25 0 0 1-1.297-.011c-.502.003-.973.022-1.442.045.002.003.003.01-.023-.003-.098-.035-.17-.057-.243-.08a.44.44 0 0 1 .188-.078c.509-.02.95-.044 1.39-.069a.6.6 0 0 1 .155.012c.155.007.261-.005.367-.016.089 0 .177-.003.319.014.132.008.211-.003.29-.013z"/><path fill="#e4b358" d="M14.874 12.959c.409.238.497-.235.777-.346q-.39.421-.858.86c-.128-.05-.226-.13-.335-.15-.128-.025-.266.002-.424-.035.264-.137.552-.233.84-.329"/><path fill="#e8ab62" d="m7.922 18.437.284-.145.062.251a6 6 0 0 1-.5.7c-.055.063-.186.06-.296.123-.013.035-.01.027.034.006-.04-.093-.123-.164-.207-.235 0 0 0-.003.04-.016.025-.095.012-.177.03-.256.204-.14.378-.284.552-.428z"/><path fill="#cc3253" d="M8.84 3.57a.55.55 0 0 1-.155.239.23.23 0 0 1-.118-.012 9 9 0 0 1-.71-.345c-.03-.081-.029-.12-.008-.176.079-.106-.129-.361.19-.293 0 0 .021.01.042.03.039.032.06.039.084.038 0 0 .005-.003.016.025.093.066.174.103.255.141.126.112.253.225.404.353z"/><path fill="#cf4149" d="m7.83 3.291-.004.15c-.069.003-.137-.025-.253-.078-.139-.112-.294-.187-.31-.285-.05-.295-.045-.598-.06-.898.067-.028.135-.057.231-.09.032.062.036.126.047.256.12.358.235.652.349.945z"/><path fill="#8a140d" d="M4.384 1.877c.044-.043.121-.073.258-.125a6 6 0 0 1-.277-.147c.202.043.426.103.65.16.138.036.276.069.443.094a5 5 0 0 1-.435.462c-.094.031-.148.036-.2.04-.025-.252-.063-.492-.44-.484"/><path fill="#8ca9b8" d="M11.771 3.734c-.039-.007-.038-.046-.012-.091a29 29 0 0 1 2.101-.091c.45-.02.86-.047 1.27-.072-.039.077-.078.154-.175.21-.88-.005-1.702.01-2.524.024-.207.009-.414.017-.66.02"/><path fill="#e44f44" d="M2.187.69c.258.003.517.005.82.039.097.07.15.107.202.146 0 0 .008-.001.004.029 0 .066.005.103-.03.14-.428-.006-.843.152-1.179-.204.064-.069.123-.11.182-.15z"/><path fill="#baafbe" d="M8.427 21.47a22 22 0 0 1-.25-.744q.55.71 1.114 1.513c.007.03-.014.049-.044.042a1 1 0 0 1-.211-.154c-.213-.236-.41-.446-.609-.657"/><path fill="#597a8e" d="M15.138 3.445a8 8 0 0 1-1.277.078c-.039-.054-.039-.073-.039-.092l.764-.069.003-.03a12 12 0 0 1-.742-.074c.31-.022.652-.04.99-.02.106.006.206.112.301.207"/><path fill="#773a10" d="M9.025 6.905a2.3 2.3 0 0 1 .517-.352c-.113.358-.26.686-.425 1.005a2 2 0 0 0-.186-.077c-.04-.002-.056 0-.071.003l-.133-.01c.077-.182.182-.363.298-.57z"/><path fill="#93620f" d="M8.178 7.715V7.6c.066-.089.129-.154.228-.259.02.21.036.37.078.55.004.343-.019.668-.045 1.03-.004.036-.002.03-.036.02-.061-.338-.083-.668-.12-.997-.009-.08-.07-.153-.106-.23z"/><path fill="#529aa7" d="M10.74 3.389c.11.022.182.044.293.099.088.071.138.11.187.147-.426.008-.852.019-1.277.02-.019 0-.037-.082-.043-.15a9 9 0 0 1 .84-.116"/><path fill="#793041" d="M15.219 2.79c.009-.156.02-.277.036-.484.398.437.111.82.068 1.19-.035-.222-.07-.445-.104-.705"/><path fill="#597a8e" d="M12.471 3.722a73 73 0 0 1 2.455-.034q-1.174.037-2.455.034"/><path fill="#8ca9b8" d="M9.358 3.405c-.112.384.021.549.454.519-.178.043-.392.08-.606.116.12-.232-.428-.557.152-.635"/><path fill="#793041" d="M15.224 4.187c.03-.173.06-.311.09-.45l.08.001.048.899-.162.012a16 16 0 0 1-.056-.462"/><path fill="#a3111b" d="M7.849 3.276a9 9 0 0 1-.362-.898q.275.24.551.576c-.318-.04-.11.216-.19.322"/><path fill="#597a8e" d="M12.316 3.231q-.602.052-1.323.077.6-.051 1.323-.077"/><path fill="#c8863d" d="M10.602 5.998a2 2 0 0 0-.211-.26c.1-.045.23-.086.376-.077.045.117.075.184.104.25v.067c0 .022 0 .021-.034.023-.1 0-.168-.002-.235-.003"/><path fill="#e35d45" d="M2.157.676c-.03.055-.088.095-.185.164-.102.028-.167.028-.232-.003V.62c.13.015.259.03.417.058z"/><path fill="#e44f44" d="M1.709.61c.03.071.03.133-.004.227-.128.031-.222.03-.315.03.023-.072.047-.145.083-.243a.5.5 0 0 1 .236-.015"/><path fill="#b43426" d="M3.208.846Q3.132.83 3.045.734q.076.016.163.112"/><path fill="#8a140d" d="M4.235 1.551a.45.45 0 0 1-.233-.052.45.45 0 0 1 .233.052"/><path fill="#597a8e" d="M12.843 3.227a1 1 0 0 1-.305.028 1 1 0 0 1 .305-.028"/><path fill="#a3111b" d="M8.419 3.195a.8.8 0 0 1-.238-.116.8.8 0 0 1 .238.116"/><path fill="#597a8e" d="M13.453 3.227a.5.5 0 0 1-.223.026c.05-.023.12-.03.223-.026"/><path fill="#e4b358" d="M10.871 5.88a.6.6 0 0 1-.088-.197c.014-.03.03-.029.066-.026.022.066.022.129.022.223M14.63 13.616q-.007-.039.05-.057-.003.029-.05.057"/><path fill="#b43426" d="M3.223 1.043C3.219 1.007 3.215.97 3.21.906q.048.011.093.11-.003.046-.03.038z"/><path fill="#f2ce57" d="M16.203 9.12c-.002-.01-.009-.016-.01-.015l.018.005s-.005.02-.008.01z"/><path fill="#b43426" d="M3.308 1.04c.035.003.057.02.082.065.008.02-.007.032-.028.023a.3.3 0 0 1-.072-.068z"/><path fill="#e4b358" d="M14.454 13.775c-.011 0-.011-.017-.01-.026.001-.01.019-.015.028-.014q.022.027-.018.04z"/><path fill="#a3111b" d="M8.156 3.033c-.015.019-.036.012-.067-.013q.022-.046.067.013"/><path fill="#db925e" d="M2.877 20.773c-.555-.34-.748-.91-.79-1.486-.055-.75-.067-1.526.065-2.262.076-.42.475-.783.762-1.183.033-.012.047-.01.059.007.026.036.046.052.069.092-.002.07-.004.11-.035.155a1.5 1.5 0 0 0-.13.365c-.005.07-.008.11-.041.15-.096.023-.216.038-.22.068-.076.577-.662 1.13-.129 1.752a2.2 2.2 0 0 0-.134.466c.075.125-.006.417.277.288-.044.5-.049.954.315 1.311.022.022.128-.04.215-.045.104.118.189.218.245.333a6 6 0 0 1-.528-.01z"/><path fill="#8c1616" d="M7.174 2.172c.044.308.04.611.089.906.016.098.171.173.282.28-.15.043-.318.064-.551.094-.036-.213-.058-.433-.113-.645-.054-.208-.09-.49-.234-.582-.11-.07-.382.095-.573.176-.07.03-.113.12-.186.202l.333.37c-.225 0-.376.006-.528-.001-.2-.01-.399-.03-.657-.03-.123-.007-.189-.028-.226-.055.064-.012.102-.017.168-.03.153-.178.278-.346.403-.515l.038.001c.244-.114.454-.23.664-.345.222-.341.497-.267.774-.09.107.069.194.17.317.264z"/><path fill="#d2a35d" d="M3.217 9.392c-.155-.768-.314-1.537.166-2.285.236.686.162 1.415.253 2.198.009.253.009.429.012.606.003.001.004-.005-.025-.006-.07.03-.11.06-.148.093.003.001.003-.004-.023-.013a.9.9 0 0 1-.162-.249c-.037-.11-.05-.229-.074-.343z"/><path fill="#b9d3ed" d="M5.823 19.051c.236-.034.496-.216.505.287.004.198.435.36.59.591s.207.527.266.825c-.324.002-.314.207-.356.385a23 23 0 0 1-.653-.882s-.023-.029-.024-.072c-.032-.091-.063-.138-.09-.214-.02-.09-.044-.15-.069-.233 0-.021-.01-.063-.007-.096a11 11 0 0 0-.162-.591z"/><path fill="#cfb6c1" d="M6.177 20.289c.206.258.414.55.653.88.114.191.197.341.285.524.151.354.297.674.445 1.023.03.07.06.114.09.155.002-.002-.001.001.012.027.096.067.178.108.295.151.146.003.257.004.38.035.446.195.882.36 1.318.525-.048.026-.096.052-.157.095a.34.34 0 0 1-.199-.021c-.065-.035-.09-.039-.114-.035-.223-.06-.443-.145-.67-.176-1.192-.166-1.47-1.15-1.852-2.044-.159-.37-.322-.738-.486-1.139"/><path fill="#eba34a" d="M5.756 15.738c.02-.04.04-.08.052-.171-.027-.148-.047-.243-.045-.351.154-.038.285-.063.438-.099.066-.06.11-.11.186-.159.27.261.508.52.752.81.118.184.23.338.341.525.029.185.057.337.063.513-.06.275-.096.527-.133.78l.123.079a5 5 0 0 1-.512.147c-.033-.061-.046-.108-.028-.164.355-.592.451-1.13-.046-1.712-.343-.402-.48-.495-.975-.194z"/><path fill="#8f2809" d="M5.656 11.31c.115-.243.23-.486.376-.754.07.032.107.087.136.177-.038.241-.068.449-.113.676 0 .094.013.169.028.276.008.096.016.16.018.256.045.188.094.345.15.535.086.358.167.683.251 1.041.095.355.185.676.251.99a1 1 0 0 1-.227-.209c-.137-.387-.269-.742-.41-1.13-.132-.443-.254-.852-.376-1.297a21 21 0 0 0-.084-.561"/><path fill="#eb5945" d="M.546 4.6c.077-.512.182-1.03.317-1.569.03-.02.034-.016.03.016.049.077.102.122.156.168.041.03.083.06.176.117.243.046.434.066.653.089-.057.125-.1.222-.177.32-.37.06-.64.18-.6.607-.096.03-.165.056-.233.083-.098.054-.196.108-.322.168"/><path fill="#8dcce5" d="M5.161 5.144c-.743.335-1.486.67-2.287 1.005a1.1 1.1 0 0 1 .013-.511c.126-.121.229-.227.354-.31.412.192.77.228 1.043-.202l.103.003z"/><path fill="#7bd0e4" d="M5.193 5.139c-.276 0-.521-.004-.788-.033.344-.293.71-.563 1.076-.833l.477-.19v.795c-.23.08-.482.168-.765.26"/><path fill="#e2e8f5" d="M1.909 6.655c-.286.153-.562.334-.863.448-.153.058-.35-.003-.528-.01a.4.4 0 0 1 .077-.227c.127-.107.196-.195.27-.279.31-.352.625-.701 1.125-.741-.394.254-.195.536-.081.81z"/><path fill="#bdddf6" d="m5.88 16.865-.392.263a8 8 0 0 1-.28-.516c-.097-.245-.177-.432-.26-.648-.06-.148-.117-.267-.172-.423.066-.192.13-.347.193-.503.053.1.107.202.162.357.046.093.09.132.136.171.012.039.025.077.035.18.165.333.332.6.52.887.042.069.063.12.077.186z"/><path fill="#721421" d="M7.958 6.675c.03.27.03.543.03.837l-.543.047a4 4 0 0 1-.058-.55c-.182-.06-.286-.095-.417-.172-.13-.254-.355-.47-.01-.666.071.084.128.192.217.243.058.032.163-.02.27-.05.031.138.04.291.048.41.16-.036.297-.067.463-.1z"/><path fill="#ab2620" d="M6.176 10.698c-.037-.055-.074-.111-.137-.173-.029-.07-.031-.134-.003-.238l.227-.26c.155.138.3.268.47.415.091.213.158.408.236.633.028.325.045.619.036.915-.06.001-.094 0-.13-.032-.053-.126-.105-.221-.166-.349-.064-.236-.087-.455-.183-.636-.063-.12-.23-.185-.35-.275z"/><path fill="#da4349" d="M3.47 11.847c-.026-.34-.176-.491-.548-.497-.254-.004-.662.081-.617-.442a7 7 0 0 1 .594-.364c.099-.011.165-.017.227.01L3.058 11c.215-.016.367-.027.5-.012-.04.304-.064.581-.088.86"/><path fill="#b9d3ed" d="M4.967 15.011a3.4 3.4 0 0 1-.22.52 3.4 3.4 0 0 1-.287-.767c-.057-.397.014-.824-.362-1.125-.008-.072-.011-.113.014-.156.097-.028.165-.055.233-.082.206.527.413 1.055.622 1.61"/><path fill="#721421" d="M6.958 4.524c-.032.352-.063.704-.12 1.078-.047-.052-.068-.125-.082-.239.008-.4.008-.758.008-1.117l-.117-.02-.125.383v.033c-.06.186-.121.337-.182.488-.185-.31-.128-.838.095-1.063.06-.06.059-.176.099-.26.037-.078.093-.148.14-.222.076.066.152.132.254.233.017.063.025.086.05.113 0 .01.018.02.005.036-.02.044-.011.067.005.09-.008.006-.006.027-.02.054-.013.156-.012.285-.01.413z"/><path fill="#d1ced9" d="M4.346 13.367a.4.4 0 0 1-.258.096c-.12-.292-.179-.568-.26-.837-.031-.106-.113-.196-.172-.294 0 0-.007-.04.002-.096.003-.125-.003-.196.018-.281.128-.089.23-.162.347-.234.015.002.044.001.044.001.093.537.187 1.074.279 1.645z"/><path fill="#83520a" d="M5.73 21.652c-.554.2-1.052.012-1.542-.225a3.4 3.4 0 0 1-.481-.28c.076-.108.141-.192.24-.276.38.149.728.297 1.078.474.04.094.067.202.117.215.192.047.392.064.588.092"/><path fill="#e3b77e" d="M5.75 15.775c.067-.035.13-.034.22.003.056.203.035.396.114.53.274.462.583.902.878 1.35.013.046.026.093.06.192.013.13.008.208-.023.27a5 5 0 0 1-.32-.322 10 10 0 0 0-.253-.315s.007-.003.028-.027a10 10 0 0 0-.459-.959c-.022-.04-.113-.041-.17-.062.003-.001.006.003.006.003a16 16 0 0 1-.08-.664z"/><path fill="#a72d44" d="M6.346 5.166c.055-.187.115-.338.187-.528.004-.035-.003-.032-.01-.029q.06-.192.123-.383l.118.02c0 .359 0 .718-.04 1.117-.282.291-.274 1.074-.025 1.493l-.559-.157c.31-.5.36-.989.206-1.533"/><path fill="#8a0a15" d="M7.106 7.914c.169.024.32.051.523.089-.04.198-.082.397-.105.632.051.334.085.632.098.94-.062.034-.104.057-.169.058a11 11 0 0 1-.397-.806c.024-.275.05-.519.065-.779l-.07-.12z"/><path fill="#f5cb7d" d="M5.645 11.338c.039.146.067.321.072.55-.069.158-.114.263-.184.384-.18.296-.334.577-.49.887-.002.065-.003.103-.037.142-.099.01-.165.02-.247.013a1 1 0 0 1-.052-.146s0-.024.035-.046c.095-.204.156-.387.217-.57.225-.395.45-.79.686-1.214"/><path fill="#8a0a15" d="M4.782 2.893c.065.021.13.042.222.062-.615.284-1.257.568-1.953.861-.091.01-.13.01-.17-.022a4 4 0 0 1 .56-.487c.468-.14.905-.277 1.341-.414"/><path fill="#581e0a" d="M5.983 19.674s.009.042.01.089c.023.11.043.173.064.236a.6.6 0 0 1 .085.169.3.3 0 0 1-.071.124.44.44 0 0 1-.232-.154c-.3-.818-.592-1.603-.88-2.415.032-.068.06-.11.095-.12.314.712.621 1.391.929 2.071"/><path fill="#cc3253" d="M6.73 6.86c-.28-.423-.288-1.206-.014-1.457.053.074.075.147.118.24.06.17.1.323.132.501-.351.224-.126.439-.021.68-.06.034-.122.037-.215.036"/><path fill="#b43426" d="M2.884 3.826c.038 0 .076-.001.142.002-.115.141-.24.369-.404.403-.56.116-1.136.165-1.73.22.044-.047.113-.073.246-.102.205-.021.352-.02.483-.064.424-.144.842-.305 1.263-.459z"/><path fill="#8c1616" d="M3.13 10.521a.7.7 0 0 1-.22-.006c.09-.128.201-.233.333-.34.019 0 .058 0 .095-.002.533-.057 1.028-.112 1.523-.167.214.186.331.393.123.679-.034.009-.053-.006-.043-.036a1 1 0 0 0-.084-.332c-.423-.004-.815.013-1.206.03l-.03-.002c-.135.054-.239.108-.368.162-.058.004-.09.01-.123.014z"/><path fill="#e8ab62" d="M5.76 21.647c-.226-.024-.426-.04-.618-.088-.05-.013-.077-.12-.086-.218.05-.036.07-.038.122-.038.292.05.576.19.737-.171-.001-.001 0 0 .023-.011a.7.7 0 0 0 .148-.192l-.002-.14c0-.002-.001.001-.001.001.223.41.175.553-.322.857z"/><path fill="#8fc4da" d="M5.448 4.273c-.333.27-.699.54-1.083.833-.018.022-.06.02-.09-.012-.227-.066-.423-.1-.62-.135a103 103 0 0 1 1.793-.686"/><path fill="#b9c5d3" d="M1.936 6.651c-.141-.269-.34-.55.038-.823a.3.3 0 0 0-.152-.093c.125-.058.25-.116.407-.13.06.302.089.56.117.818-.127.074-.255.15-.41.228"/><path fill="#e5bab3" d="M1.787 5.74c.081.01.128.024.19.057-.487.089-.801.438-1.113.79-.073.084-.142.172-.241.266.107-.653.393-1 1.164-1.113"/><path fill="#f4e6f1" d="M4.01 11.719c-.103.074-.205.147-.35.24l-.069.031c-.033-.033-.067-.067-.11-.122.013-.3.037-.577.099-.88a.17.17 0 0 1 .115-.03c.38.165.248.5.315.761"/><path fill="#e9b473" d="M3.042 15.911c-.023-.01-.043-.027-.065-.073-.007-.025-.009-.048-.009-.048s.002-.03.041-.043c.067-.095.095-.175.123-.255.005-.019.01-.037.045-.083.045-.041.05-.057.046-.076 0 0 .001-.02.036-.034.101-.141.167-.268.233-.395 0 0-.002-.018.033-.029.118-.068.2-.125.361-.235-.08.197-.122.298-.184.425-.03.185-.038.344-.066.525-.223.097-.265.486-.594.321z"/><path fill="#7bd0e4" d="M3.617 4.962c.235.032.431.066.637.132-.243.462-.601.426-1.012.206-.022-.087-.02-.124-.02-.161 0 0 0-.007.026-.008.067-.024.107-.048.147-.072 0 0 .007-.02.02-.02.014.001.03-.008.03-.008a1 1 0 0 1 .172-.07z"/><path fill="#d3aa74" d="M5.741 15.229c.02.096.04.191.072.315-.228.042-.364-.033-.449-.295-.131-.406-.338-.789-.49-1.2.128.12.233.26.358.423.093.154.16.29.244.416.08.12.176.228.265.341"/><path fill="#84b2c7" d="M6.996 4.051c-.024-.017-.033-.04.025-.09.277-.082.582.225.78-.222h-.494c.535-.189.751-.097.688.309-.017.109-.129.235-.23.29-.147.08-.325.101-.513.119.118-.127.26-.225.436-.346z"/><path fill="#798494" d="M2.376 6.417a6 6 0 0 1-.115-.804.31.31 0 0 1 .246-.1c.136.073.246.107.357.14-.016.166-.031.332-.02.507-.127.091-.283.171-.469.257"/><path fill="#f18a5d" d="m6.093 20.698-.01.069c0 .023.001.02-.039.02a12 12 0 0 1-.763-.02 1.2 1.2 0 0 1-.202-.333c.274-.058.514-.117.778-.16.095.152.165.288.236.424z"/><path fill="#e28d53" d="m3.723 15.039.164-.399c-.16.11-.244.167-.353.232.067-.18.161-.368.301-.56.138.277.23.559.324.874.021.146.041.257.025.366-.085-.092-.122-.193-.187-.27-.079-.092-.182-.163-.274-.243"/><path fill="#d0b2ae" d="M3.638 12.359c.077.07.159.161.19.267.081.27.14.545.231.839a.5.5 0 0 1 .035.202c0 .116-.001.174-.026.236a.2.2 0 0 1-.09.005l-.05-.026c-.103-.499-.206-.998-.29-1.523z"/><path fill="#ab2620" d="M3.223 10.177c-.112.105-.223.21-.346.344-.185.137-.36.245-.565.353-.103-.482.304-.53.655-.69a3 3 0 0 1 .256-.007z"/><path fill="#852827" d="M4.024 11.722c-.082-.264.05-.599-.332-.794.07-.07.263-.148.272-.131.183.357.44.223.705.132l.034.034c-.099.073-.19.19-.299.21-.298.053-.336.243-.327.518-.01.032-.039.033-.053.031"/><path fill="#8f2809" d="m6.708 10.424-.445-.396c-.07.08-.133.15-.223.228a.5.5 0 0 1 .042-.326c.092-.078.134-.136.176-.195 0 0 .011-.037.041-.052.122-.013.213-.01.323-.012.019-.003.057-.004.059.022.005.06.007.095.005.159-.008.068-.01.107-.023.157-.018.041-.007.064.026.112z"/><path fill="#e9b473" d="M3.914 20.869c-.066.085-.13.17-.225.254a19 19 0 0 1-.786-.337c.14-.005.307.003.523-.004.08-.039.112-.064.17-.09a3 3 0 0 1 .318.177z"/><path fill="#6e1214" d="M8.553 3.83c.042-.024.07-.015.119.001-.11.32.06.82-.542.866.115-.275.262-.555.423-.867z"/><path fill="#a72d44" d="M4.864 10.006c-.498.056-.993.11-1.51.146a.5.5 0 0 1 .124-.159s0 .006.025.004a1 1 0 0 0 .15-.09s-.003.006.034.007l.92.022c.037.003.076.006.154.026.058.031.079.039.102.04 0 0 .004.003 0 .004z"/><path fill="#6e1214" d="m6.604 9.675-.299-.01a4 4 0 0 1 .134-.692c.08-.261.189-.515.321-.778.036-.007.058.014.047.038-.02.075-.028.126-.06.2-.309.404-.27.82-.143 1.242z"/><path fill="#a4bfd6" d="M2.887 5.638a.9.9 0 0 1-.357-.117c.207-.147.418-.262.66-.38.031.035.03.072.029.136-.103.134-.206.24-.332.361"/><path fill="#792a17" d="M3.92 13.915c.009-.033.042-.016.058.027.08.28.145.517.21.784.019.127.037.224.038.335a1 1 0 0 0-.07.091 14 14 0 0 0-.302-.86c.001-.125.03-.234.066-.377z"/><path fill="#a4bfd6" d="M5.802 16.615a18 18 0 0 1-.502-.836c.157.2.312.433.499.663.032-.003.029-.008.013.021a.6.6 0 0 0-.01.152"/><path fill="#a7d4f1" d="M6.988 4.057c.22.012.431.03.7.054-.176.121-.318.219-.469.343-.045.036-.08.045-.147.016-.05-.154-.07-.27-.09-.386 0 0-.002-.02.006-.027zM7.276 3.74h.525c-.198.446-.503.14-.768.205-.038.007-.055-.004-.04-.042.018-.06.02-.081.022-.103.077-.02.153-.04.261-.06"/><path fill="#792a17" d="M3.452 9.984c-.023.056-.072.102-.136.17-.015.02-.054.021-.073.022h-.245c.05-.24.133-.478.217-.75.025.081.038.2.075.31.03.085.09.16.162.248M4.583 9.908a9 9 0 0 1-.899.005 2.5 2.5 0 0 1-.037-.569c.047.12.092.275.143.456.249.026.51.053.793.108z"/><path fill="#d3aa74" d="M4.684 13.187c.035.025.047.069.077.15a.5.5 0 0 1 .025.156c.023.078.049.127.076.2.006.056.01.088.006.16a2 2 0 0 1-.033.118 8 8 0 0 1-.152-.784z"/><path fill="#f5cb7d" d="M4.834 13.979a.3.3 0 0 1 .062-.118c.131.112.226.256.321.431l-.005.157c-.105-.14-.21-.28-.34-.435q-.04-.022-.038-.035z"/><path fill="#6e1214" d="M6.112 20.679c-.09-.117-.16-.253-.256-.427-.021-.052-.016-.066-.011-.08l.212.157c.037.12.055.226.055.35"/><path fill="#d3aa74" d="M4.943 12.575c-.045.16-.106.343-.191.542q.065-.242.19-.542"/><path fill="#e28d53" d="M3.47 14.918q-.064.17-.202.377.066-.169.203-.377"/><path fill="#852827" d="M4.96 10.703a2 2 0 0 1-.233.247c-.024.013-.047-.01-.044-.043.084-.099.166-.163.248-.228z"/><path fill="#d0b2ae" d="M3.58 12.009c.01-.018.04-.031.055-.035a.8.8 0 0 1 .028.243.5.5 0 0 1-.083-.208"/><path fill="#6e1214" d="M7.024 7.933c.046.03.066.064.068.122-.103.066-.189.11-.274.153l-.032-.032c.063-.086.138-.163.238-.243"/><path fill="#84b2c7" d="M6.968 4.111c.034.089.054.205.076.357-.012.046-.025.056-.062.06a1.5 1.5 0 0 1-.015-.417"/><path fill="#6e1214" d="M6.23 9.74a.35.35 0 0 1-.124.17.35.35 0 0 1 .124-.17"/><path fill="#dd9b45" d="M3.11 15.505a.55.55 0 0 1-.087.234.56.56 0 0 1 .088-.234"/><path fill="#b9d3ed" d="M5.258 15.546a.4.4 0 0 1-.128-.12.4.4 0 0 1 .128.12"/><path fill="#baafbe" d="M9.19 23.661q.029-.024.078.004-.028.014-.078-.004"/><path fill="#a4bfd6" d="M3.37 5.059q-.022.035-.12.075.024-.037.12-.075"/><path fill="#e28d53" d="M3.208 15.335q.028.023-.011.052-.043-.023.011-.052"/><path fill="#dd9b45" d="M2.955 15.784c.014.005.016.028.01.038-.004.01-.018.007-.025.007q-.036-.031.015-.045z"/><path fill="#a4bfd6" d="M3.44 5.023c.005.008-.01.018-.015.02-.004.004.01-.029.015-.02"/><path fill="#84b2c7" d="M7 3.8c.013.022.01.043-.007.093-.04.011-.049-.012-.04-.06.002-.02.03-.033.046-.033z"/><path fill="#792a17" d="M4.854 9.985q-.02.022-.065-.017.022-.04.065.017"/><path fill="#e33c46" d="M3.274 1.054c.032.027.05.047.081.08-.062.215-.139.416-.219.646-.041.03-.079.032-.15-.003-.205-.099-.376-.163-.547-.227-.15-.002-.302-.004-.52-.031-.453-.035-.856-.152-1.188.177-.03.03-.144-.024-.219-.038.272-.26.545-.521.847-.787.124-.004.218-.003.346-.003h.262c.373.328.788.17 1.217.175.039 0 .073.005.09.011"/><path fill="#af232c" d="M5.354 2.345a2 2 0 0 1-.394.486c-.204-.04-.36-.076-.519-.085-.218-.013-.438.002-.657-.007a2 2 0 0 1-.38-.064.2.2 0 0 1-.016-.066l.006-.054c.472.05.955.203 1.409-.166.073-.032.126-.037.206-.044.123 0 .22.002.346 0z"/><path fill="#b43426" d="M.485 1.641c.102.031.216.085.246.055.332-.329.735-.212 1.151-.183-.248.104-.553.144-.799.285-.449.258-.848.09-.893-.442C.17 1.13.208.896.242.64c.087.31.152.648.243 1.002"/><path fill="#c62b3c" d="m1.734 3.74.144-.32c-.219-.022-.41-.042-.628-.08.174-.026.375-.032.648-.034.282.03.491.057.7.115q-.32.52-.864.32"/><path fill="#ab2620" d="M2.598 3.39c-.209-.027-.418-.053-.662-.086.207-.119.448-.232.732-.341q.065.005.053.048z"/><path fill="#b43426" d="M2.457 1.574c.153.04.324.105.501.197a2.5 2.5 0 0 1-.501-.197"/><path fill="#ab2620" d="M3.355 2.546c.038.01.035.045-.004.06-.32-.006-.607-.037-.62.376L2.7 2.959a5 5 0 0 1 .013-.422c.215 0 .41 0 .643.01z"/><path fill="#8a140d" d="M3.157 1.855q.407-.028.899.004-.406.027-.899-.004"/><path fill="#bf5128" d="M1.043 3.19a.36.36 0 0 1-.15-.14c.05.018.097.066.15.14"/><path fill="#cae6fc" d="M9.683 23.616c-.464-.172-.9-.336-1.314-.54.413-.434.409-.525-.001-.813-.07-.049-.127-.116-.201-.2l-.169-.324.386.099c.016-.098.032-.2.046-.336.195.179.393.39.603.666.01.882.01.884.647.867l.544.54-.088.157z"/><path fill="#e2e8f5" d="M9.67 23.005c-.627.047-.628.045-.622-.812.058 0 .113.041.189.098.154.239.288.461.433.714"/><path fill="#d0b2ae" d="M5.986 19.641a43 43 0 0 1-.928-2.071c-.115-.394-.226-.723-.314-1.052.057.002.09.005.133.034l.16.334s0 .034.011.072a.4.4 0 0 0 .076.107c.054.119.107.238.173.417.04.172.05.29.098.391.132.285.28.563.42.86l.003.048c-.001.035-.002.07-.014.143a.3.3 0 0 0 .02.125c.054.187.11.373.162.592z"/><path fill="#a7d4f1" d="M7.11 21.66c-.083-.15-.166-.3-.251-.481.01-.219 0-.424.32-.397.036.038.037.077.048.164.026.07.047.087.074.096 0 0 .002.001.012.021.027.043.049.061.076.094 0 .02.003.06.003.092 0 .098 0 .163-.029.232a3 3 0 0 0-.252.18z"/><path fill="#724647" d="M6.692 17.825c.095.094.189.187.303.325.092.236.163.427.196.623l-.112.015c-.078-.02-.203-.017-.225-.063a3 3 0 0 1-.225-.698c.039-.096.051-.149.063-.202"/><path fill="#d0dbea" d="M5.816 18.717c-.142-.28-.289-.558-.421-.843-.047-.101-.059-.22-.09-.363.51-.043.27.422.416.645.057.087.058.21.095.374.007.1.003.144 0 .187"/><path fill="#b9d3ed" d="M7.391 21.217s-.002-.04.016-.07a.3.3 0 0 0 .065-.098 1 1 0 0 0 .086-.074c.14.234.268.487.418.753.075.11.127.21.159.331a2.6 2.6 0 0 1-.475-.43c-.084-.152-.176-.282-.269-.412"/><path fill="#040101" d="M5.822 16.633a.3.3 0 0 1-.012-.169c.072-.008.163-.006.185.033.167.308.32.623.456.962-.06.036-.097.045-.169.013l-.092-.108-.184-.41a2 2 0 0 0-.1-.15 1 1 0 0 0-.084-.171"/><path fill="#d0dbea" d="M5.04 16.854a1.4 1.4 0 0 1-.163-.334c.017-.215.046-.37.074-.526l.252.588c-.046.099-.103.17-.163.272"/><path fill="#b9d3ed" d="m5.816 18.732.01-.178c.081.009.16.05.24.092-.061.045-.122.09-.216.134-.032 0-.034-.032-.034-.048"/><path fill="#040101" d="M6.679 17.798a.34.34 0 0 1-.049.197 1.5 1.5 0 0 1-.238-.495c.114.08.193.176.287.298"/><path fill="#010100" d="M7.079 18.819c.025-.035.05-.039.113-.045.038-.003.04 0 .04.023a.2.2 0 0 0 .082.074c.01.005.024-.009.024-.009.013.082.027.163 0 .258a.9.9 0 0 1-.26-.301zM7.29 19.168c.093.04.176.111.22.205a.43.43 0 0 1-.22-.205"/><path fill="#c1d7f3" d="M7.444 21.047c.02.03.003.051-.038.08-.044-.003-.066-.02-.093-.062.028-.02.066-.02.131-.018"/><path fill="#a4bfd6" d="M5.899 16.819q.049.028.086.116c-.025.005-.05-.014-.09-.051-.015-.019-.003-.05.004-.065z"/><path fill="#b9d3ed" d="M7.292 21.025q-.027.012-.064-.049.025-.012.064.049"/><path fill="#a4bfd6" d="M6.19 17.388q.029-.001.06.067-.029.002-.06-.067"/><path fill="#d0dbea" d="M5.117 17.042q-.021 0-.066-.067.022 0 .066.067M5.823 19.02c-.01 0-.02-.029-.017-.07.014.007.016.025.017.07"/><path fill="#64080b" d="M9.904 14.973c-.103.242-.103.242-.61.257l-.037.479c-.283-.114-.521-.21-.811-.317-.078-.022-.1-.039-.125-.095-.145-.35-.336-.676.167-.864.028-.01.024-.105.068-.167.25.086.477.16.683.273.231.126.444.288.665.434"/><path fill="#c62b3c" d="M9.908 14.947c-.225-.12-.437-.281-.668-.408-.206-.112-.433-.186-.685-.28-.035-.003-.041-.017-.057-.041-.118-.176-.22-.327-.294-.478.066-.001.104-.001.16.02.152.065.287.107.449.164.267.387.622.112.918.173.316.204.631.408.937.652a5 5 0 0 1-.752.119z"/><path fill="#e43d4f" d="M8.327 15.331a.2.2 0 0 0 .087.06 1.1 1.1 0 0 1-.18.325 12 12 0 0 1-1.268-.784c.028-.094.049-.163.094-.25.134-.063.242-.108.35-.123.305.276.611.524.917.772"/><path fill="#c4263c" d="M11.8 15.268a.5.5 0 0 1 .024.203c-.47.03-.938.023-1.443.008-.035-.07-.034-.134-.004-.233.319-.038.349-.269.413-.47.028.005.067 0 .082.015.225.24.572.418.928.477z"/><path fill="#8a140d" d="M6.958 14.958c.414.26.827.52 1.271.788.201.098.372.188.564.301-.043.064-.107.106-.197.18-.026.033-.066.031-.08.005-.298-.181-.581-.336-.884-.512z"/><path fill="#ee324e" d="M10.771 14.77c-.046.207-.076.438-.394.445-.153-.109-.278-.22-.432-.34.217-.034.464-.06.741-.105.03-.019.067-.006.085 0"/><path fill="#c4263c" d="M10.707 16.096c.029-.043.072-.065.14-.087a.24.24 0 0 1-.14.087M11.566 15.953c.035-.026.076-.03.147-.028a.22.22 0 0 1-.147.028M11.926 15.947q.022-.024.077.026-.023.025-.077-.026"/><path fill="#f3cd64" d="M14.873 8.175c.04.022.082.044.153.105.352.488.649.948.642 1.57-.043.454-.079.869-.133 1.3-.031.06-.044.106-.067.175a.36.36 0 0 1-.108.15c-.13-.15-.23-.295-.325-.474.092-.312.233-.588.25-.872.015-.273-.097-.554-.155-.864-.088-.269-.175-.504-.261-.775z"/><path fill="#f6ca6e" d="M16.075 8.853c.007.468-.008.912-.048 1.35a2.2 2.2 0 0 1-.205-.412c.073-.648-.237-1.103-.603-1.536.198-.092.318-.014.5.26.082.124.22.21.356.338"/><path fill="#93620f" d="m13.58 6.945.055-.006c.314.313.61.63.934.991.038.109.048.172.066.283-.203-.148-.357-.26-.517-.39a1 1 0 0 1-.042-.113c-.133-.133-.26-.239-.388-.348 0-.003-.004-.008-.016-.032-.122-.114-.232-.202-.313-.29.092-.032.157-.064.221-.095z"/><path fill="#f5d35e" d="m14.124 7.84.512.373-.045-.265c.058.01.12.045.198.128.031.07.052.085.078.094l.005.004c0 .095 0 .188-.032.321-.068.123-.106.206-.165.289-.022 0-.065 0-.087-.017a3.5 3.5 0 0 1-.413-.368 34 34 0 0 0-.05-.56z"/><path fill="#83520a" d="M15.189 8.252c.397.436.707.891.608 1.535a.18.18 0 0 1-.121.023c0-.582-.298-1.042-.628-1.52.03-.033.07-.037.141-.038"/><path fill="#f3cd64" d="M14.858 8.152q-.026.014-.063-.047.025-.012.063.047"/><path fill="#f18a5d" d="M12.663 13.833c-.01.05-.047.141-.097.149-.375.056-.752.096-1.129.141l-.074.125c.133.09.262.251.4.26.414.026.831-.007 1.27.008-1.497.658-2.576-.104-3.597-1.15 0-.132.018-.222.036-.338-.037-.078-.075-.13-.112-.182-.018.035-.037.07-.085.104a2 2 0 0 1-.377-.36c.032-.063.046-.11.092-.157.098.001.163.001.232.032.118.158.233.285.352.44.087.068.17.107.254.178.233.463.625.544.99.228.157.053.283.109.408.164.425.288.874.479 1.437.358"/><path fill="#64080b" d="M8.878 12.606c.122.114.244.229.407.367.09.044.138.062.187.08-.018.09-.036.18-.062.298a1 1 0 0 1-.43.1c-.175-.287-.311-.545-.46-.795-.067-.114-.16-.212-.243-.344 0-.06 0-.095.029-.136.065-.043.104-.08.167-.097.151.188.278.357.405.527"/><path fill="#8a0a15" d="M8.279 12.338c.081.105.174.204.241.318.149.25.285.508.432.792.08.101.154.173.225.29-.132.058-.26.072-.412.081-.056-.034-.09-.064-.107-.116a2.2 2.2 0 0 0-.259-.41 3 3 0 0 1-.155-.433.16.16 0 0 0-.075-.096.3.3 0 0 1-.059-.092c.002-.017.01-.051.038-.061.062-.098.096-.185.131-.273"/><path fill="#a3111b" d="M8.789 13.824c.128-.013.257-.027.407-.063.187.077.352.178.526.308-.286-.033-.642.242-.91-.166-.027-.036-.023-.079-.023-.079"/><path fill="#f8d658" d="M14.174 8.435c.13.105.26.21.413.37.022.202.022.351.022.533-.087.243-.173.452-.261.693-.032.126-.062.221-.122.322a23 23 0 0 0-.689.994c.141.119.303.255.426.392h-1.125c.09.157.191.337.265.531-.13.04-.233.066-.336.098-.001.005-.012.008-.012.008a2 2 0 0 0-.123-.31c-.178-.204-.293-.206-.37.018l-1.077-.428c-.007.103-.016.242-.076.404-.14.026-.227.03-.353.032-.16-.004-.284-.005-.415-.036-.126-.182-.232-.345-.367-.48-.084-.084-.211-.124-.32-.213a2 2 0 0 1 0-.173 3 3 0 0 1 .377-.414c.117-.164.26-.315.278-.48.044-.411.03-.829.077-1.246.193.004.358-.018.504.023.285.08.323-.076.322-.318-.06-.067-.114-.106-.17-.175 0-.067 0-.106.025-.164.073-.185.122-.35.209-.644-.344.145-.549.23-.757.286-.031-.127-.058-.223-.061-.33.095-.062.166-.113.268-.17.449-.284.084-.578.072-.869a.4.4 0 0 1 .101 0l.578.09c-.027.183-.055.366-.096.608-.006.148-.01.312.01.315.247.034.497.046.856.071L12 7.217c.048-.073.096-.146.195-.24.262.064.472.15.65.237-.103.014-.225.01-.234.04-.122.42-.229.845-.336 1.253l1.01.122-.04.462c.28.066.44.044.515-.279.035-.15.27-.253.415-.377m-1.787 1.092c-.182-.284-.403-.299-.65-.087-.41.35-.817.703-1.295 1.114.195.071.285.137.367.129.47-.045.943-.091 1.407-.178.09-.017.147-.216.288-.327.088.205.21.403.257.617.06.268.214.296.412.21.548-.235.63-.728.204-1.164-.088-.091-.184-.175-.28-.265l.118-.33h-.48l.063.32c-.134 0-.248 0-.41-.039m-.119 2.162.244-.032q0-.053-.002-.107l-.514-.243-.051.095c.092.084.184.168.323.287zM11.261 13.476c-.16-.056-.286-.111-.467-.169-.07-.005-.086-.007-.117-.036a4.4 4.4 0 0 1-.049-.677c.039-.056.057-.1.106-.147.127-.032.223-.06.34-.091l.06-.008c.295.343.57.707.896 1.018.116.11.355.092.537.132l-.027.18c-.414-.067-.829-.134-1.279-.202"/><path fill="#eba95c" d="M14.897 12.941c-.31.114-.598.21-.89.333-.005.027-.007.03-.034.028-.155.03-.283.063-.41.095 0 0-.044-.003-.102-.004h-.504a1 1 0 0 1-.204-.239c.436-.05.85-.064 1.26-.119.092-.012.165-.166.274-.269.154-.091.282-.17.409-.28v-.225l.026-.014c.238-.179.45-.345.682-.49.096.038.172.053.25.07l.005.005c-.247.363-.493.727-.762 1.11m.478-.797c-.192-.236-.16.042-.215.12.06-.029.12-.056.215-.12"/><path fill="#eb8b4c" d="M14.26 12.78c-.082.089-.156.243-.248.255-.41.055-.823.068-1.276.098-.464-.07-.868-.172-1.046-.643.243-.01.476-.03.665.05.617.264 1.256.275 1.905.24"/><path fill="#581e0a" d="M14.286 12.766c-.675.049-1.314.037-1.931-.226-.19-.081-.422-.06-.67-.079-.067-.016-.096-.039-.128-.107-.002-.046.004-.085.004-.085.403-.272.749.083 1.16.104.034.002.045 0 .071.018.652.054 1.278.091 1.904.128z"/><path fill="#e8ab62" d="M11.134 12.314c0 .034-.04.04-.095.039-.122-.005-.19-.008-.257-.043l.012-.215.296-.016c.037.066.04.133.044.235"/><path fill="#e4b358" d="M12.964 13.424c.141-.032.29-.032.475-.032-.098.287-.278.213-.475.032M13.584 13.419c.106-.055.234-.087.387-.117a1.5 1.5 0 0 1-.387.117"/><path fill="#fbd451" d="M12.297 12.085c.042-.225.156-.223.304-.028a.9.9 0 0 1-.304.028"/><path fill="#eb8b4c" d="M11.548 12.272c.014-.004.007.036 0 .055-.035-.004-.037-.027 0-.055"/><path fill="#dc903f" d="M15.668 9.85c.04-.036.074-.032.133-.025.084.126.142.249.203.403.028.182.053.333.044.519a7 7 0 0 1-.486.451c-.002-.021-.01-.064-.01-.064.037-.415.073-.83.116-1.284z"/><path fill="#f09852" d="M15.564 11.22c.15-.146.3-.291.483-.44.019.215.006.431-.06.676a1.1 1.1 0 0 1-.353.092 1.2 1.2 0 0 1-.07-.27z"/><path fill="#eba95c" d="M15.657 11.567c.092-.027.185-.055.306-.086.13.261.025.367-.274.349-.031.002-.035-.001-.035-.036 0-.098.002-.162.003-.227"/><path fill="#c4263c" d="M12.272 15.428c.13-.022.287-.027.483-.028-.126.018-.29.032-.483.028"/><path fill="#eb8b4c" d="M9.22 8.782c-.022-.098-.043-.195-.047-.338.172-.438.326-.832.512-1.225.074.003.117.005.156.041l-.012.327c-.002.02-.004.06-.021.072-.04.028-.053.05-.06.111-.003.1-.004.166-.03.257-.008.328.006.63.02.96 0 .068-.002.107-.038.145-.336.078-.379-.173-.48-.35"/><path fill="#d18e52" d="M9.653 7.218c-.154.394-.308.787-.49 1.197-.03-.02-.033-.056-.036-.156-.005-.16-.01-.255-.012-.385.01-.125.015-.216.02-.306.147-.329.294-.657.437-1.018.04-.065.083-.098.146-.087-.008.28-.037.518-.065.755"/><path fill="#c8863d" d="M9.042 9.736c.126.05.253.102.403.202.024.37.025.69-.005 1.02-.068.152-.105.293-.167.417a5 5 0 0 1-.262-.775c.436-.215-.041-.403.01-.61.02-.082.014-.17.02-.254z"/><path fill="#eba95c" d="M9.04 9.705c-.004.115.003.203-.017.284-.052.207.425.395-.018.611-.037.001-.049.007-.048-.021a.7.7 0 0 0-.192-.151.13.13 0 0 0-.065-.002c-.002.003.004.009.01-.016.003-.04 0-.056 0-.103-.06-.184-.121-.336-.18-.515.087-.208.17-.389.254-.57.084.152.168.303.255.484z"/><path fill="#dd9b45" d="M9.218 8.817c.103.142.146.393.485.314.037 0 .044-.002.044.024.026.067.053.109.08.186.03.203.084.37.085.539 0 .156-.054.312-.1.442L9.56 9.83c-.115-.326-.23-.652-.343-1.012"/><path fill="#f3cd64" d="M9.543 9.84c.097.145.176.3.258.5.07.176.135.31.2.442-.114.126-.228.252-.376.402a.65.65 0 0 1-.154-.237c0-.32-.002-.64.001-.995.014-.061.03-.084.07-.113"/><path fill="#c8863d" d="M8.808 9.203c-.108.2-.191.38-.315.59-.088.03-.137.033-.202.007-.083-.325-.274-.647.147-.848 0 0-.002.005-.005.005l.43-.163a2.4 2.4 0 0 1-.056.408z"/><path fill="#83520a" d="M9.117 7.558c.013.1.008.191-.025.317-.058.035-.09.035-.12.035-.013-.036-.025-.071-.035-.166.007-.126.012-.192.017-.26z"/><path fill="#93620f" d="M8.969 7.94c.034-.03.065-.03.12-.031.028.095.033.19.04.322a1.1 1.1 0 0 1-.16-.29"/><path fill="#bfa155" d="M8.93 7.48a.6.6 0 0 1-.001.237.5.5 0 0 1-.075-.21c.021-.026.037-.028.077-.026"/><path fill="#e28d53" d="M9.685 7.219c-.003-.238.025-.476.055-.749.154-.152.307-.27.53-.387.246-.027.424-.056.601-.084V6c.364-.02.165.225.171.429-.062.123-.12.189-.176.254l-.098.006c-.175.12-.297.238-.45.357-.178.061-.326.12-.474.18z"/><path fill="#efb354" d="M12.877 7.212c-.21-.086-.42-.171-.666-.258.095-.1.225-.2.405-.313.271.124.493.261.715.399.11.088.22.176.308.299a.2.2 0 0 1-.178.025 5 5 0 0 0-.523-.15z"/><path fill="#efd250" d="M11.974 7.213c.088.143.15.282.274.56-.36-.025-.61-.037-.856-.072-.02-.003-.017-.166-.011-.284.013-.029.055-.028.084-.014.052.005.076-.004.1-.012l.018-.01c.04-.025.055-.046.063-.072.022-.271.16-.191.328-.096z"/><path fill="#773a10" d="M13.358 7.039c-.25-.137-.472-.274-.722-.42a8 8 0 0 1-.618-.327c.603-.07 1.055.29 1.543.63a.43.43 0 0 1-.203.117"/><path fill="#efb354" d="M10.899 6.688c.023-.07.08-.136.143-.228.145.07.285.167.43.291-.176 0-.357-.029-.573-.063"/><path fill="#e4b358" d="M11.046 5.762c.044-.008.091.008.152.044-.04.007-.095-.006-.152-.044"/><path fill="#f8d658" d="M11.629 7.318q.014.026-.046.063-.012-.024.046-.063M11.542 7.39c-.002.01-.025.018-.057.014.006-.014.02-.014.057-.014"/><path fill="#af232c" d="M6.049 1.997a5 5 0 0 1-.63.344q.264-.174.63-.344"/><path fill="#f09852" d="M7.23 18.769a10 10 0 0 1-.21-.604 6 6 0 0 0 .021-.3c.164-.092.328-.146.492-.2l-.123-.079c.037-.252.073-.505.156-.756.151.224-.044.66.46.613.17-.51.17-.51.41-.264-.016.07-.02.118-.024.167a.5.5 0 0 1 .197-.008c0 .068.003.106.004.145a.8.8 0 0 1-.183.245c-.123.1-.19.185-.257.271-.085.126-.17.25-.254.407a3.7 3.7 0 0 1-.55.459c-.031-.003-.046.01-.058-.016-.025-.056-.047-.072-.08-.076l-.002-.005z"/><path fill="#f19451" d="M8.203 17.998a.8.8 0 0 1 .203-.255.8.8 0 0 1-.203.255"/><path fill="#db925e" d="M8.64 17.478c-.029-.034-.03-.072-.003-.14.069-.031.108-.032.147-.032l.01.01a.8.8 0 0 1-.155.162z"/><path fill="#f19451" d="M8.447 17.159c-.25-.227-.25-.227-.42.284-.505.047-.31-.39-.438-.636a1.4 1.4 0 0 1-.069-.513c.363-.034.686-.035 1.01-.036 0 0 .04.002.06-.002.229.096.438.195.603.324-.278.213-.512.396-.746.579"/><path fill="#bf5128" d="M8.435 17.179c.246-.203.48-.386.744-.573.113.019.197.042.292.085-.175.145-.364.266-.546.396-.056.04-.092.107-.139.19-.04.03-.08.03-.148.032-.095.013-.16.025-.226.037.004-.049.008-.098.023-.167"/><path fill="#f3cd64" d="M8.404 8.943c-.387.21-.196.532-.108.89.056.296.092.532.102.783-.097.041-.168.068-.268.083a1.5 1.5 0 0 1-.23-.439c-.05-.587-.127-1.155-.205-1.722.142-.265.284-.53.454-.809.066.062.126.136.135.216.037.329.058.659.12.998"/><path fill="#f5cb7d" d="M7.671 8.548c.102.557.18 1.125.215 1.685a4.5 4.5 0 0 1-.243-.668 26 26 0 0 1-.094-.924.3.3 0 0 1 .122-.093"/><path fill="#316e77" d="M11.257 3.64a.7.7 0 0 1-.198-.14c-.012-.02-.013-.026.025-.024.503-.01.967-.022 1.432-.034.408 0 .817.001 1.266-.005.04.013.04.032.039.08-.68.047-1.358.063-2.062.106a2.7 2.7 0 0 1-.502.016z"/><path fill="#e4b358" d="M10.837 6a10 10 0 0 1-.535.083 1.3 1.3 0 0 1 .27-.085c.097 0 .164.003.265.003"/><path fill="#84b2c7" d="M12.485 3.426c-.434.028-.898.04-1.403.047.43-.025.901-.044 1.403-.047"/><path fill="#95550e" d="M3.14 20.431c-.067.023-.173.086-.195.064-.364-.357-.36-.811-.294-1.331.048-.13.074-.2.127-.285.141-.39.255-.766.388-1.156.036-.058.053-.103.088-.154.04-.02.058-.038.088-.065.016-.004.049-.013.071.004 0 .141-.02.265-.06.416-.083.306-.149.585-.23.89-.475.903-.472 1.062.016 1.617z"/><path fill="#d0a03b" d="M2.518 18.419c-.564-.611.022-1.164.098-1.741.004-.03.124-.045.221-.03.004.39-.023.742-.072 1.096-.02.002-.063.002-.089.003-.055.026-.084.051-.113.076a.5.5 0 0 1 .123.122c-.056.176-.112.325-.168.474m.043-.985s.006-.003 0 0m-.089.174s.008-.004 0 0"/><path fill="#f5cb7d" d="M3.16 20.451c-.509-.573-.512-.732-.018-1.622.073.038.11.088.148.164-.024.093-.048.16-.077.26-.194.692-.111.98.35 1.292l.007.15c-.032.024-.063.049-.116.074-.105-.1-.19-.2-.295-.318"/><path fill="#f3cd64" d="m2.702 17.746.083-.002q.063-.003.117-.002c.105-.001.175-.003.245-.005-.114.376-.228.753-.409 1.136a6 6 0 0 1-.387-.005c.035-.142.07-.285.136-.438a2.4 2.4 0 0 0 .202-.513z"/><path fill="#e6b049" d="m2.867 17.741-.06.002c.007-.352.034-.705.06-1.095a.4.4 0 0 1 .035-.186c.06-.03.094-.03.132-.002.035.098.064.167.082.265-.15.472.197.269.367.33.006.02.021.058-.003.075-.069.103-.114.19-.16.302.001.043.003.06.005.077-.013.023-.03.041-.103.059a3 3 0 0 0-.356.174z"/><path fill="#dd9b45" d="M3.042 15.941c.33.135.372-.254.617-.328.024.187.008.375-.035.566-.035.085-.044.169-.083.252l-.172.004c-.038 0-.054 0-.098-.006-.096-.118-.163-.23-.23-.341 0 .002-.004.002-.004.002z"/><path fill="#f4c05c" d="M2.353 18.897c.105-.025.211-.02.358-.01.014.077-.012.148-.06.24-.304.186-.223-.105-.298-.23"/><path fill="#efb354" d="m3.029 16.431-.125.002q.01-.163.103-.336c.03-.006.033-.006.031.026-.005.125-.007.216-.009.308z"/><path fill="#ee324e" d="M3.41 2.69c.124.017.249.044.374.049.22.008.439-.006.657.007a2.3 2.3 0 0 1 .49.095c-.02.03-.057.034-.121.046-.464.143-.9.28-1.4.414-.242-.324-.22-.54 0-.61z"/><path fill="#792a17" d="M3.624 9.904q-.02.047-.124.092.02-.047.124-.092"/><path fill="#6e1214" d="M6.06 19.971a.6.6 0 0 1-.065-.186.6.6 0 0 1 .065.186"/><path fill="#bdddf6" d="M7.652 21.652c.154.143.308.286.494.432.095.062.152.13.221.178.411.288.415.38-.009.783a1.5 1.5 0 0 1-.41-.025 4 4 0 0 0-.3-.148s.004-.003.001-.028c-.032-.07-.061-.113-.09-.156-.146-.32-.293-.641-.443-.995a.55.55 0 0 1 .269-.196c.122.06.195.107.267.155z"/><path fill="#cae6fc" d="M7.662 22.898a.64.64 0 0 1 .252.119.64.64 0 0 1-.252-.119M7.56 22.716q.042.024.088.13-.042-.024-.088-.13"/><path fill="#fad65d" d="M6.993 17.649a16 16 0 0 1-.909-1.34c-.08-.134-.058-.327-.083-.53.466-.337.603-.244.946.158.497.582.401 1.12.046 1.712"/><path fill="#f7d55d" d="M5.232 14.471a.21.21 0 0 1 .017-.175c.312.105.449-.002.49-.292a.55.55 0 0 1 .111-.247c.065.123.108.226.152.361.004.097.008.162.009.258.08.128.162.225.242.353-.027.154-.05.277-.074.4-.131.024-.262.05-.415.087a1.8 1.8 0 0 1-.288-.33c-.083-.125-.15-.261-.244-.415z"/><path fill="#e28d53" d="M6.966 14.931c.21.273.428.52.629.787-.166.02-.314.02-.462.02-.238-.26-.476-.52-.728-.807.032-.22.08-.411.126-.603.066.057.131.114.244.193.118.075.19.127.26.18-.02.068-.04.136-.07.23"/><path fill="#e79d48" d="M6.526 14.298a6 6 0 0 1-.153.633 1.5 1.5 0 0 1-.172.187c0-.111.025-.234.07-.405-.07-.155-.164-.261-.258-.368-.004-.064-.008-.13.012-.25.049-.337.075-.616.1-.895.132.356.264.712.4 1.098"/><path fill="#f38754" d="M7.14 15.769c.14-.03.289-.03.474-.029.32.155.605.31.902.491-.31.028-.633.029-.996.03a3 3 0 0 1-.38-.492"/><path fill="#e33c46" d="M7.06 14.683c-.096-.033-.167-.086-.26-.153a6 6 0 0 1-.26-1.014c.133-.036.233-.037.353-.033.021.005.062.016.067.043.083.09.161.15.254.239.118.163.228.295.322.438.105.158.123.298-.126.327-.108.045-.217.09-.35.153"/><path fill="#e6b049" d="M6.116 13.167c-.016.312-.042.59-.091.895-.067-.079-.11-.182-.176-.335a4 4 0 0 1-.11-.358l.003-.102a32 32 0 0 0-.088-.776c-.034-.096-.065-.165-.095-.234.045-.105.09-.21.158-.333.146.392.268.801.4 1.243z"/><path fill="#f1474b" d="M6.168 10.732c.128.056.295.121.358.241.095.181.119.4.154.649-.152.127-.286.21-.445.292l-.128-.006a.9.9 0 0 1-.002-.242c.003-.125-.017-.201-.035-.278.03-.207.06-.415.098-.656z"/><path fill="#d64248" d="m6.872 13.478-.336.005a8 8 0 0 1-.28-1.01c0-.035.009-.04.036-.034.12.09.212.174.3.283.092.27.186.513.28.756"/><path fill="#d73b3e" d="M6.101 11.94c.04-.03.074-.029.134.01.027.186.028.334.03.482l-.015.008a5 5 0 0 1-.149-.5M6.055 11.409a.4.4 0 0 1 .05.226.4.4 0 0 1-.05-.226"/><path fill="#f1474b" d="M3.403 2.675c-.213.085-.235.302-.026.63-.146.156-.323.307-.496.49a15 15 0 0 1-1.26.49c-.131.044-.278.043-.454.061-.106-.424.164-.545.534-.605.398.133.683.028.897-.32.038-.148.076-.264.123-.41.023-.442.31-.41.628-.386.037.002.049.034.054.05"/><path fill="#dfc8c8" d="M4.948 15.964c-.025.184-.053.34-.082.528-.033.03-.065.028-.137-.005-.189-.5-.337-.97-.485-1.44-.019-.098-.037-.194-.029-.322.064-.03.1-.03.147-.012.028.042.05.06.077.072.092.257.184.514.305.782.087.13.144.25.204.397z"/><path fill="#eb4255" d="M7.03 11.989c-.016-.294-.033-.588-.039-.938-.003-.387-.02-.719-.003-1.05.095 0 .159.002.226.042.032.419.06.797.094 1.206.093.21.18.39.263.6a2 2 0 0 1-.207.413c-.069 0-.108 0-.169-.016-.07-.097-.117-.177-.164-.257z"/><path fill="#e33c46" d="M6.292 12.438a2.7 2.7 0 0 1-.032-.486c.134-.12.268-.203.43-.298.08.083.132.178.18.332a.5.5 0 0 1-.116.209c-.07.179-.114.34-.158.5-.092-.083-.184-.167-.304-.257"/><path fill="#cf4149" d="M6.955 10c.016.332.032.663.025 1.02-.09-.17-.156-.364-.247-.577-.03-.108-.035-.198-.044-.344a.6.6 0 0 0-.016-.1c.003-.04.006-.079.036-.13.1.035.173.083.246.131"/><path fill="#d83042" d="M6.779 12.177c.029-.044.059-.088.093-.16.039-.026.073-.025.133-.026.073.078.12.158.19.283.023.084.022.122-.004.172a.9.9 0 0 1-.262.06 3 3 0 0 1-.15-.329z"/><path fill="#ee3d49" d="M4.941 10.649c-.092.094-.174.158-.27.246-.267.124-.524.258-.707-.099-.008-.016-.203.062-.307.126.003.03-.039.04-.06.04-.172.01-.324.022-.54.038l.069-.446c.037-.037.07-.042.162-.042.161-.053.262-.11.364-.166 0 0 0 .002.04.002l1.196-.01a2 2 0 0 1 .053.31"/><path fill="#a4bfd6" d="M4.46 14.764c-.048.01-.07-.008-.103-.083l-.265-.782c0-.058.002-.116.007-.201.375.243.304.67.361 1.066z"/><path fill="#f5d35e" d="M3.596 20.691c-.028-.038-.03-.078-.036-.174-.025-.123-.048-.19-.04-.264.09-.1.175-.185.207-.287.1-.31.296-.48.646-.468.184.405.346.788.508 1.17q.133.316.265.633l-.092.01c-.38-.145-.727-.293-1.108-.442-.13-.06-.227-.12-.35-.178"/><path fill="#721421" d="m6.522 4.609.01-.005z"/><path fill="#e1324d" d="M6.987 10a2 2 0 0 1-.273-.16c-.026-.051-.028-.086-.006-.173.037-.454.05-.856.064-1.258.008-.05.016-.102.035-.177.097-.068.183-.111.297-.16.003.236-.023.48-.052.792.05.426.105.782.159 1.139z"/><path fill="#6e1214" d="M7.622 9.576c.088.21.155.43.236.677.091.163.168.298.27.477.07.35.117.657.147.991-.048.056-.079.085-.135.097a6 6 0 0 1-.318-.632c-.059-.183-.115-.336-.17-.527-.035-.246-.07-.455-.107-.693a9 9 0 0 0-.068-.312z"/><path fill="#b81129" d="M7.453 9.633c.045.116.067.21.073.36-.055.27-.092.484-.132.737 0 .187 0 .337-.023.487-.038 0-.053 0-.068.002l-.09-1.176c-.057-.396-.11-.752-.16-1.146.129.213.253.464.4.737z"/><path fill="#fbdf56" d="M5.658 12.519c.028.237.057.473.07.756-.02.055-.03.068-.028.072q.016.023.039.044c.029.095.058.19.089.317-.03.119-.076.205-.09.297-.04.29-.177.397-.489.26-.127-.147-.222-.291-.344-.444-.032-.04-.037-.072-.037-.153.008-.067.013-.084.046-.108.06-.091.093-.175.125-.26.001-.037.001-.075.04-.14.17-.035.302-.041.335-.042z"/><path fill="#fde05a" d="M5.654 12.491c-.067.2-.137.374-.24.626l-.334.014c.119-.281.273-.562.453-.858a.5.5 0 0 1 .12.218"/><path fill="#f7d55d" d="M5.006 13.302a.32.32 0 0 1-.106.238c-.065-.033-.089-.055-.112-.076l-.01-.111a.7.7 0 0 1 .228-.051"/><path fill="#f38754" d="M5.839 20.138c0 .047-.004.061-.008.098-.238.08-.478.14-.756.166-.211-.475-.383-.917-.56-1.39a4.5 4.5 0 0 0-.489-.43c-.267-.197-.359-.42-.193-.735.057-.107.055-.245.103-.387.122-.237.219-.455.35-.668.238-.004.376.039.42.288.042.23.162.446.247.669.293.785.586 1.57.885 2.389z"/><path fill="#78180e" d="M4.958 17.724c-.09-.196-.21-.412-.251-.643-.045-.249-.182-.29-.423-.321-.025-.338.315-.631-.025-.962-.013-.1-.026-.171-.04-.243-.019-.111-.039-.223-.06-.368a.26.26 0 0 1 .067-.125c.166.456.314.926.478 1.427.128.359.24.688.347 1.05-.032.076-.06.117-.093.185"/><path fill="#da4349" d="M4.857 10.318c-.355.024-.74.028-1.166.03.351-.017.743-.034 1.166-.03M3.621 10.345q-.105.087-.308.166.105-.086.308-.166"/><path fill="#e79d48" d="M4.522 19.044c.171.442.342.885.518 1.36.076.136.148.242.248.394.228.143.428.24.627.336-.161.36-.444.22-.737.17-.12-.213-.208-.424-.297-.634l-.509-1.202c-.051-.178-.08-.3-.075-.424z"/><path fill="#eb8b4c" d="M5.915 21.132a7 7 0 0 1-.604-.319c.227-.029.46-.028.733-.025.04.039.042.076.015.146a5 5 0 0 0-.144.198"/><path fill="#e79d48" d="M5.938 21.121a.4.4 0 0 1 .119-.16.4.4 0 0 1-.12.16M4.184 15.552c.049.074.062.145.056.256-.035.062-.053.086-.099.113-.181.088-.334.172-.487.255H3.65c.016-.188.032-.376.026-.586a2.2 2.2 0 0 1 .026-.525.9.9 0 0 1 .294.217c.065.076.102.177.187.27"/><path fill="#d1ced9" d="M4.068 13.904c.107.239.19.483.278.759-.031.033-.068.033-.13.033a6 6 0 0 1-.222-.744c.017-.037.033-.04.074-.048"/><path fill="#cf4149" d="M6.747 8.432q.017.569-.042 1.21c-.026.026-.064.026-.083.03-.144-.42-.184-.835.125-1.24"/><path fill="#ab2620" d="M6.664 10.01c.013.004.017.019.022.056-.03.008-.04-.015-.022-.056"/><path fill="#f5cb7d" d="M4.786 13.493c.025-.008.049.014.086.054.009.037.005.054-.005.097q-.047-.034-.08-.151z"/><path fill="#c1d7f3" d="M7.66 21.63a1 1 0 0 1-.247-.136.9.9 0 0 1-.022-.244c.093.097.185.227.27.38"/><path fill="#724647" d="M7.232 18.797q.048-.03.07.049-.031.01-.07-.049"/><path fill="#a3111b" d="M7.41 14.559c.25-.058.231-.198.126-.357-.094-.142-.204-.274-.302-.458.193.06.378.174.569.276.222.118.392.41.71.222 0 0 .007.014.009.022-.01.064-.005.16-.034.17-.502.187-.312.513-.167.864a10 10 0 0 1-.911-.739z"/><path fill="#e33c46" d="M7.217 12.434v-.144c.04-.029.078-.03.177-.025.214.058.368.112.521.167v.032c.065.096.129.16.193.225.015.02.032.04.065.096.03.061.049.082.074.097.043.131.085.263.154.44.055.141.084.235.088.331a1 1 0 0 0-.143.085c-.038 0-.076 0-.145-.021-.204-.094-.376-.167-.522-.254.247-.338.067-.524-.2-.68l-.01-.02c-.028-.041-.05-.058-.078-.068l.01-.024a.6.6 0 0 0-.12-.237z"/><path fill="#d64248" d="M7.653 13.478c.172.073.344.145.52.24.104.173.207.325.325.5-.303.212-.473-.08-.695-.198-.191-.102-.376-.215-.584-.302a.43.43 0 0 1-.229-.202c.066-.125.107-.212.176-.294.153.089.278.172.424.255zM8.363 13.761c.022-.05.062-.077.144-.088l.136.053c.033.03.066.06.122.094.023.004.02.047.02.068a1.8 1.8 0 0 1-.422-.127"/><path fill="#e28d53" d="M14.256 10.346c.03-.095.06-.19.13-.316.303-.01.517-.02.497-.395-.006-.108.161-.226.249-.339.056.278.17.559.153.833-.016.283-.157.56-.282.874a2.6 2.6 0 0 1-.387.159c-.199.063-.398.122-.585.178z"/><path fill="#f3c859" d="M14.226 10.353c-.04.298-.108.603-.195.987.186-.056.386-.115.584-.178.118-.038.233-.083.382-.127.133.144.233.29.364.471.027.1.025.164.023.229a7 7 0 0 1-.662.479c.085-.347-.006-.516-.376-.477-.114.011-.23.002-.345.002l-.463-.393c.23-.344.444-.665.688-.993z"/><path fill="#f4c05c" d="M15.131 9.264c-.087.146-.254.263-.248.371.02.375-.194.386-.496.364.05-.209.136-.418.252-.666.268-.197.275-.368.057-.55.038-.083.076-.166.144-.253.116.23.203.466.291.734"/><path fill="#dc903f" d="M15.403 11.758c-.017-.087-.015-.151-.013-.248a.5.5 0 0 1 .1-.186c.03-.023.074-.028.074-.028.015.078.031.155.07.252.022.084.02.148.018.245a.4.4 0 0 1-.249-.035"/><path fill="#f3c859" d="M15.563 11.277c0 .02-.042.024-.064.024-.008-.045.005-.09.037-.152.017-.015.025.027.026.05.002.02 0 .059.001.078"/><path fill="#fde05a" d="M12.844 7.214c.033-.002.074-.001.101.032.197.07.367.105.536.141.046-.005.091-.009.17-.023.033-.01.037-.005.029.03.13.138.266.24.403.344.008.023.018.046.035.085.023.19.04.365.056.575-.144.161-.38.264-.415.414-.075.323-.234.344-.514.279l.04-.463-1.01-.12c.106-.41.213-.834.336-1.255.009-.03.13-.026.233-.04"/><path fill="#efb354" d="M14.077 7.71a1.8 1.8 0 0 1-.396-.313c.135.074.262.18.396.313"/><path fill="#f3cd64" d="M14.674 8.784c.24.182.233.352-.035.516a2.4 2.4 0 0 1-.03-.479c0-.037.043-.037.065-.037"/><path fill="#dd775b" d="M8.292 11.695c-.047-.307-.093-.614-.137-.953a.5.5 0 0 1 .258-.1c.1.112.161.213.217.33a.5.5 0 0 1-.026.085c.021.304.034.581.1.845.047.186.166.355.253.531-.014.047-.028.094-.06.158a4.4 4.4 0 0 1-.424-.54c-.076-.151-.129-.254-.182-.356z"/><path fill="#ea7b52" d="M8.99 12.433c-.12-.177-.238-.346-.285-.532a3 3 0 0 1-.072-.836c.178.166.296.37.451.54.142.156.323.276.499.43.036.059.06.097.057.135-.159.088-.29.176-.422.265-.065 0-.13 0-.228-.002z"/><path fill="#f6ca6e" d="M10.757 12.091c.034.064.03.126 0 .218-.062.026-.096.02-.14-.013-.088-.03-.166-.03-.245-.03l.236.34c.018.212.037.424.039.666-.186-.06-.349-.166-.526-.234-.084-.032-.195.006-.294.012-.083-.039-.166-.077-.227-.157a2.7 2.7 0 0 1 .423-.366c.242-.092.242-.092.094-.44l.232-.001c.123 0 .247.002.408.006z"/><path fill="#f38754" d="M9.998 12.518c-.126.112-.252.224-.404.347a2.2 2.2 0 0 1-.373-.4c.128-.118.26-.207.445-.281.147.12.24.227.332.334"/><path fill="#ec9756" d="M9.828 13.083c.097-.038.208-.076.292-.044.178.068.341.173.542.26.046 0 .062.004.1.01-.309.319-.701.238-.934-.226z"/><path fill="#dd775b" d="M9.471 13.028c-.048.008-.097-.011-.156-.054a.4.4 0 0 1 .044-.128c.038.052.075.104.112.182"/><path fill="#b91a25" d="M7.308 11.248c.01-.03.025-.03.09-.03l.428-.002c.096.196.192.39.317.633.065.143.1.238.137.334-.002.035-.004.07-.003.13a.56.56 0 0 1-.148.277 1.3 1.3 0 0 1-.213-.157s-.003 0-.002-.034c-.046-.26.013-.55-.34-.581-.087-.18-.174-.36-.266-.57z"/><path fill="#8a0a15" d="M8.306 12.176a1 1 0 0 1-.137-.31c.027-.06.058-.089.106-.145.07.076.122.178.174.31a.4.4 0 0 1-.143.145"/><path fill="#a3111b" d="M8.658 13.704c-.046.009-.077-.003-.126-.034a2 2 0 0 1-.106-.33c.081.095.164.219.232.364"/><path fill="#d83042" d="M7.916 12.464a.54.54 0 0 1 .186.136c.019.021.01.055.008.072a.8.8 0 0 1-.194-.208z"/><path fill="#b91a25" d="M8.244 12.861q-.033.01-.057-.062.033-.01.057.062"/><path fill="#fbdf56" d="M12.435 10.174c-.072.115-.129.314-.22.33-.463.088-.935.134-1.406.178-.083.008-.172-.057-.367-.128.478-.412.885-.764 1.295-1.115.247-.211.468-.196.674.145.024.235.024.412.024.59z"/><path fill="#f3c859" d="M12.47 10.176a3 3 0 0 1-.034-.572c.114-.038.228-.038.363-.038l-.064-.319h.48l-.117.329c.095.09.191.174.28.265.426.436.343.929-.205 1.165-.197.085-.35.057-.411-.21-.048-.215-.17-.413-.292-.62"/><path fill="#f8c864" d="M10.031 10.776a1.5 1.5 0 0 1-.215-.41c.042-.174.096-.33.095-.486 0-.168-.053-.336-.066-.555a.4.4 0 0 0-.099-.196l-.009.002a.5.5 0 0 1 .026-.17c.009-.357-.005-.658-.02-.96 0-.066.001-.132.021-.242a.5.5 0 0 0 .061-.111s.002-.04.039-.061a.8.8 0 0 1 .31 0c-.001.02-.008.062-.03.083-.166.487-.077.927.128 1.353.009.018.051.02.078.029-.01.415.004.832-.04 1.243-.018.165-.161.317-.279.48z"/><path fill="#fbd451" d="M13.963 11.739c.153 0 .27.01.383-.002.37-.038.461.13.35.49 0 .033 0 .034-.04.033l-1.524-.004-.294-.517z"/><path fill="#e8c55e" d="M10.386 9.05c-.064-.008-.106-.01-.115-.028-.205-.425-.294-.866-.098-1.35.093-.02.133-.02.174-.02l.01.018c.025.038.045.053.071.063l.005.005c.027.096.055.193.085.355.003.483.325.297.524.343 0 .038 0 .076-.034.144-.14.045-.245.061-.35.077l.016.125h.542c-.003.214-.04.37-.326.29-.146-.04-.31-.018-.504-.022z"/><path fill="#f6ca6e" d="M13.104 12.27c.523-.012 1.018-.011 1.552-.01.04.065.039.13.04.226-.625-.004-1.25-.04-1.902-.1.077-.05.18-.076.31-.116z"/><path fill="#e8ab62" d="M10.022 12.528c-.116-.117-.209-.223-.328-.343a.4.4 0 0 1-.107-.181 10 10 0 0 0-.289-.611c.037-.142.075-.283.142-.435.07.076.11.163.18.256.031.044.032.082.037.181.081.315.086.616.426.693.182.348.182.348-.061.44"/><path fill="#efb354" d="m10.347 7.652-.151-.001c-.03-.001-.024-.043-.01-.09.14-.138.264-.23.41-.336l-.248-.18c.122-.118.244-.235.397-.352.065.286.43.58-.04.843-.153.028-.256.072-.358.116"/><path fill="#efd250" d="M11.067 8.416c-.223-.026-.545.16-.544-.293.205-.12.41-.207.753-.35-.087.293-.136.458-.209.643"/><path fill="#f3cd64" d="M10.117 12.087c-.374-.077-.379-.378-.459-.664.105.028.233.069.317.153.135.134.24.297.366.479-.059.031-.125.031-.224.032"/><path fill="#fbd451" d="M12.246 11.671c-.116-.102-.208-.185-.3-.269l.051-.095.515.243q0 .053.002.107c-.082.01-.163.021-.268.014z"/><path fill="#efd250" d="M11.212 8.755c-.176.027-.357.027-.537.027l-.017-.124c.106-.017.211-.033.35-.05.09.04.145.08.204.147"/><path fill="#e8c55e" d="M10.348 7.652c.102-.044.205-.088.328-.11a.7.7 0 0 1-.218.185c-.024.01-.027.008-.038-.01-.026-.04-.046-.055-.07-.064z"/><path fill="#e4b358" d="M10.628 12.594c-.1-.1-.178-.214-.256-.328.078.001.156.001.248.056.036.078.06.103.082.127-.018.044-.036.088-.074.145"/><path fill="#d3aa74" d="M10.734 12.446a.18.18 0 0 1-.104-.096c.03-.02.065-.015.125-.01.095.004.162.007.264.014-.062.032-.158.06-.285.092"/><path fill="#dc903f" d="M15.356 12.163c-.078.046-.137.074-.196.101.055-.076.022-.355.196-.101"/><path fill="#fbbc69" d="M10.317 7.047c.107.053.183.109.278.178-.146.107-.27.198-.407.315-.106.026-.197.026-.323.027a.8.8 0 0 1-.025-.307c.15-.093.299-.152.477-.213M9.718 8.027q.059.414.044.905a5.4 5.4 0 0 1-.044-.905M9.808 7.658q.015.025-.042.068-.017-.026.042-.068"/><path fill="#81240b" d="M9.273 11.375c.118.204.212.39.3.61a2.2 2.2 0 0 1-.49-.379c-.155-.17-.273-.375-.436-.573-.03-.009-.022-.044 0-.089.034-.204.044-.363.055-.522 0 0 .043-.003.065.033.078.075.133.114.189.153 0 0 .011-.007.018-.008.096.252.185.505.3.775z"/><path fill="#95550e" d="M8.7 10.425c-.008.156-.02.315-.048.501a1.4 1.4 0 0 1-.214-.298c-.05-.263-.086-.5-.126-.769.044-.034.093-.036.178-.04.098.152.16.304.205.497-.024.05-.038.065-.036.068q.021.027.045.05s-.006-.005-.004-.01zM8.957 10.578q-.084-.015-.17-.115.084.015.17.115"/><path fill="#81240b" d="M8.71 10.41c-.021.008-.038-.007-.05-.025-.003-.003.011-.018.033-.038.018.006.02.023.017.063"/><path fill="#fbbc69" d="M9.747 9.155a.24.24 0 0 1 .097.135c-.044-.027-.07-.068-.097-.135"/><path fill="#f8d658" d="M13.46 7.364a1.8 1.8 0 0 1-.495-.117c.153.01.314.052.495.117"/><path fill="#ec9756" d="M4.516 19.014c-.058.03-.123.03-.246.018-.208.04-.39.056-.496.154-.131.12-.2.31-.307.44-.092-.154-.17-.28-.249-.407.024-.067.048-.133.086-.254.08-.306.162-.554.203-.809.012-.076-.088-.17-.136-.257.021-.124.043-.249.035-.408-.043-.058-.061-.075-.085-.086.045-.086.09-.172.173-.272.038-.013.067-.006.069.025l.016.182c.113.062.223.1.334.14-.025.123-.022.262-.08.368-.166.314-.073.538.194.734.168.124.323.268.489.432"/><path fill="#e8ab62" d="M3.353 17.925c.066.06.166.154.154.23-.041.256-.123.504-.203.783-.052-.022-.09-.072-.146-.135.046-.294.112-.573.195-.878"/><path fill="#d0a03b" d="M2.902 17.742q.1-.086.302-.168c.015.047-.002.091-.038.15a1.5 1.5 0 0 1-.264.018"/><path fill="#e28d53" d="M3.32 17.431q.036-.02.064.043c.007.018-.026.027-.042.03-.019-.013-.021-.03-.022-.073"/><path fill="#e6b049" d="M2.676 17.747c.023.037.02.076.013.143-.044-.003-.085-.035-.126-.066.03-.026.058-.05.113-.077M2.564 17.432c.003-.002-.003.002 0 0M2.476 17.606c.004-.002-.004.002 0 0"/><path fill="#dd9b45" d="M3.213 19.252c.084.093.162.22.253.412.016.243.02.42.024.596.022.067.044.135.069.228-.457-.256-.54-.544-.346-1.236"/><path fill="#c8863d" d="m3.56 17.126-.041-.01c-.015-.003-.03-.043-.044-.079-.028-.056-.047-.072-.072-.105-.005-.038-.007-.053-.01-.09a1 1 0 0 1-.004-.099l.004-.308c.039-.001.078-.002.148.03.055.185.08.335.1.505-.023.057-.042.095-.064.138-.004.007-.016.018-.016.018z"/><path fill="#d0a03b" d="M3.387 16.778c.001.015.003.029-.009.075 0 .055.014.079.028.103.022.01.04.025.063.062-.156-.025-.503.18-.333-.294.033-.03.074-.033.089-.011.064.036.113.05.162.065z"/><path fill="#c8863d" d="m3.21 16.691-.061.004a.8.8 0 0 1-.115-.235c-.003-.12 0-.212.005-.338.07.078.136.19.23.336 0 .1-.03.167-.059.233z"/><path fill="#fbbc69" d="M3.645 16.95c-.025-.15-.05-.3-.074-.484a.9.9 0 0 1 .054-.287c.025-.003.028-.002.029.031.026.234.05.434.062.652z"/><path fill="#e6b049" d="M3.225 16.712c.014-.088.043-.155.073-.25.017-.027.033-.027.071-.027.023.091.022.183.02.308-.05.02-.1.005-.164-.031M6.01 14.377c.097.075.19.182.264.305a1.1 1.1 0 0 1-.264-.305"/><path fill="#a3111b" d="M7.138 13.216c-.04.088-.082.175-.152.273-.03.01-.072-.002-.093-.006a7 7 0 0 1-.3-.76c.047-.187.092-.348.16-.527.068.086.111.19.182.344.087.26.145.468.203.676z"/><path fill="#f7d55d" d="M5.739 13.369c-.014.007-.029-.006-.04-.022-.002-.005.01-.018.028-.034.013-.008.012.035.012.056"/><path fill="#d83042" d="M7.57 11.849c.357 0 .299.29.346.549-.154-.02-.308-.074-.493-.132.028-.132.086-.259.148-.417"/><path fill="#e43d4f" d="M7.166 13.222a6 6 0 0 1-.208-.665c.065-.055.137-.077.234-.11.025-.012.069-.012.09.017.052.097.08.165.11.232l.01.018c.027.042.05.059.076.069v.031c.031.242.061.452.091.662a8 8 0 0 0-.403-.254"/><path fill="#f8c864" d="M3.52 20.253a3 3 0 0 1-.042-.56c.096-.198.165-.387.296-.508.106-.098.288-.114.463-.154.056.135.084.258.114.413-.328.042-.525.212-.624.523-.033.102-.117.187-.208.286"/><path fill="#a3111b" d="M7.822 11.186a1.6 1.6 0 0 1-.4.031 1.3 1.3 0 0 1 .004-.486.6.6 0 0 1 .225-.033c.056.152.112.305.171.488"/><path fill="#8a0a15" d="M7.652 10.66c-.065.037-.129.036-.224.034.006-.217.043-.431.1-.672.054.183.09.391.124.638"/><path fill="#e28d53" d="M3.937 17.46a.7.7 0 0 1-.33-.124c.09-.057.156-.088.242-.136.036-.09.052-.16.074-.257.013-.042.019-.06.054-.086.084-.32.139-.63.193-.94.018-.023.035-.047.07-.08.359.29.019.584.01.916-.094.252-.191.47-.313.707z"/><path fill="#de8440" d="M4.141 15.922c-.025.305-.08.615-.2.932a1.4 1.4 0 0 1-.212-.01c-.024-.2-.05-.4-.074-.634.152-.117.305-.2.486-.288z"/><path fill="#d83042" d="M7.59 13.477c-.05-.21-.08-.42-.111-.662.267.125.447.311.2.649a.2.2 0 0 1-.089.013M7.402 12.671a.54.54 0 0 1-.098-.208.54.54 0 0 1 .098.208M7.468 12.764q-.026.012-.067-.05.026-.012.067.05"/><path fill="#efb354" d="M10.357 7.67q.024-.012.06.045-.024.012-.06-.045"/><path fill="#e6b049" d="M3.828 17.218c-.065.03-.13.061-.224.095-.032-.04-.036-.082-.041-.155q-.004-.046.039-.04c.063.002.098.002.143.023.035.04.06.058.083.077z"/><path fill="#93620f" d="M3.734 17.121c-.034 0-.069-.001-.128-.01-.006-.046.012-.083.034-.141.024-.044.043-.067.075-.108.062-.013.11-.007.196.002.03.02.024.037-.013.082-.076.077-.12.126-.164.175z"/><path fill="#e6b049" d="M3.403 16.932c-.01 0-.024-.025-.023-.058.016.005.018.02.023.058"/><path fill="#ec9756" d="M3.745 17.141a.44.44 0 0 1 .146-.17.44.44 0 0 1-.042.229c-.045-.001-.069-.02-.104-.059"/></svg>