<svg xmlns="http://www.w3.org/2000/svg" width="256" height="256" fill="none" viewBox="0 0 256 256"><path fill="#070a0b" fill-rule="evenodd" d="M72.39 202.231a8.65 8.65 0 0 0 2.953 4.857l47.185 38.933a8.655 8.655 0 0 0 10.94.062l48.321-38.962a8.65 8.65 0 0 0 3.043-4.988l29.201-141.528a8.655 8.655 0 0 0-4.984-9.667l-73.571-32.433-4.014-1.77a8.65 8.65 0 0 0-6.982 0l-4.014 1.77-73.518 32.41a8.65 8.65 0 0 0-4.97 9.736z" clip-rule="evenodd"/><path fill="#070a0b" fill-rule="evenodd" d="m145.017 66.737-17.512-30.316-17.512 30.316zm-11.675 118.155 11.675-118.154h-35.024l12.647 118.154 5.351 4.276zM159.336 182.357l-23.995 4.159-4.914 7.029 4.914 7.193 23.995 3.995h.003l6.112-11.188-6.112-11.188zM136.258 225.23l-3.075-22.665-5.195-4.641-5.316 4.641-2.954 22.665 8.27 5.773zM96.635 182.357l23.998 4.159 4.914 7.029-4.914 7.193-23.998 3.995-.002-.003-6.11-11.185 6.11-11.185z" clip-rule="evenodd"/><path fill="url(#a)" fill-rule="evenodd" d="M76.599 191.563a8 8 0 0 0 2.73 4.491l43.621 35.992a8 8 0 0 0 10.113.057l44.672-36.019a8 8 0 0 0 2.813-4.611l26.995-130.838a8 8 0 0 0-4.608-8.937L134.92 21.714l-3.709-1.635a8 8 0 0 0-6.455 0l-3.709 1.635-67.966 29.963a8 8 0 0 0-4.595 9z" clip-rule="evenodd"/><path fill="#070a0b" fill-rule="evenodd" d="m143.738 66.303-16.19-28.026-16.189 28.026zm-10.793 109.23 10.793-109.23h-32.379l11.692 109.23 4.947 3.953zM156.981 173.19l-22.184 3.846-4.543 6.497 4.543 6.65 22.184 3.693.002.001 5.65-10.344-5.65-10.343zM135.641 212.825l-2.842-20.953-4.803-4.291-4.915 4.291-2.73 20.953 7.645 5.336zM99.019 173.19l22.184 3.846 4.543 6.497-4.543 6.65-22.184 3.693-.002.001-5.65-10.344 5.65-10.343z" clip-rule="evenodd"/><defs><linearGradient id="a" x1="165.899" x2="164.147" y1="22.422" y2="227.229" gradientUnits="userSpaceOnUse"><stop stop-color="#4b93ff"/><stop offset="1" stop-color="#18dfec"/></linearGradient></defs></svg>