<?xml version="1.0" encoding="UTF-8"?>
<svg width="190px" height="56px" viewBox="0 0 190 56" version="1.1" xmlns="http://www.w3.org/2000/svg" xmlns:xlink="http://www.w3.org/1999/xlink">
    <!-- Generator: Sketch 43.2 (39069) - http://www.bohemiancoding.com/sketch -->
    <title>Humble_White</title>
    <desc>Created with Sketch.</desc>
    <defs/>
    <g id="Page-1" stroke="none" stroke-width="1" fill="none" fill-rule="evenodd">
        <path d="M54.5027576,27.601052 C54.5318662,27.4007283 54.5614719,27.1989663 54.5915544,26.9956221 C56.1319546,26.9956221 61.3522627,26.9911308 62.2810501,26.9922537 C61.5773544,31.2792178 58.1566429,48.2777378 63.4144667,48.2777383 C69.5305943,48.2777389 72.6511836,26.9978678 72.6511836,26.9978678 L76.3163124,26.9978678 L79.2425043,26.9978678 C78.8832671,29.9576471 75.9968641,49.2377573 78.103404,49.2377573 C79.362105,49.2377573 80.9343691,47.3703322 82.4822959,44.8506004 L84.013766,26.996745 L92.0829618,26.9933765 L91.740777,31.9080024 C91.740777,31.9080024 94.8841028,25.9525133 102.584967,25.9525133 C105.714309,25.9525133 108.38938,27.5765786 109.072472,31.3056427 C110.109944,29.79337 113.354336,25.9513905 119.5396,25.9513905 C123.174035,25.9513905 126.19572,28.0881355 126.19572,33.2767319 C126.19572,35.6852018 125.261249,40.5481776 125.261249,40.5481776 C124.79515,44.0727403 124.70534,45.4190132 125.777368,45.4190132 C126.364269,45.4190132 128.112523,43.5980289 130.085752,41.2840272 C130.078618,41.0454325 130.072987,40.8031588 130.068889,40.5571602 C129.74944,21.2489793 137.598092,0.857267686 137.598092,0.857267686 L144.315601,0.857267686 C144.315601,0.857267686 138.678077,17.4209783 137.023995,30.5928944 C137.023995,30.5928944 140.051364,25.9525133 147.752228,25.9525133 C151.386663,25.9525133 154.408348,28.144277 154.408348,33.2767319 C154.408348,39.2917311 150.404445,47.3626315 145.277356,51.7944407 C140.651365,55.7939927 132.25056,59.1488359 130.419352,45.572763 C128.27592,48.445684 126.310187,50.9973562 125.634128,51.7865809 C124.055076,53.6280217 121.67456,55.3167577 119.402044,55.3201262 C116.152993,55.3268632 116.425832,51.2352714 117.83777,40.5493004 L117.920759,39.8407948 C118.394816,35.0261007 118.237933,31.8428783 116.433789,31.8428783 C114.113535,31.8428783 109.827254,34.516719 108.864392,39.8111905 C108.32673,44.5994821 107.311038,49.0244147 106.468367,54.2186302 L99.0755828,54.2186302 C100.578468,42.4457599 102.771406,31.8440011 99.4802931,31.8440011 C96.9701797,31.8440011 92.1591292,34.9733277 91.7441874,41.1646111 L90.5698455,54.2186302 L81.6787239,54.2186302 L81.8216609,52.5522737 C80.3298632,53.9327653 78.4376447,55.0189742 76.614161,55.0225763 C74.5714896,55.0268118 72.6797976,53.4111376 71.9074991,49.5552854 C71.4281689,50.1702213 70.8700422,50.7584561 70.2081425,51.3396951 C68.0311194,53.2529971 64.6956698,55.0068572 61.5671228,54.8743633 C57.8976126,54.7187112 54.6166511,52.3192454 53.7435442,44.2717618 C52.164602,47.1635398 50.1166065,49.8361834 47.8490353,51.7966863 C42.7230838,56.2284955 31.3502696,59.8687096 31.0296845,40.5594059 C30.9717063,37.0022812 31.1911139,33.4249455 31.5867295,29.9554014 L24.7396224,29.9554014 C22.6160301,43.3631119 18.3915822,54.219753 18.3915822,54.219753 L10.062053,54.219753 C10.062053,54.219753 22.3966226,10.4889015 14.3876786,10.4889015 C6.37759772,10.4889015 3.81519037,22.0416972 3.81519037,22.0416972 C3.81519037,22.0416972 0.422899528,21.2422424 0,21.138942 C0.368331847,15.24184 4.22785846,7.73796858 9.10143447,3.52511124 C14.2262492,-0.906697899 25.6002002,-4.54691205 25.9207853,14.7612689 C25.9605743,17.187704 25.8719018,19.628736 25.6854622,22.0405743 L32.7997236,22.0405743 C35.0290408,10.3114944 38.5600245,1.34569864 38.5600245,1.34569864 L46.8895536,1.34569864 C46.8895536,1.34569864 34.5561209,44.8317732 42.5650649,44.8317732 C50.2082494,44.8317732 53.5857404,32.2096381 54.5027576,27.601052 Z M171.115985,52.5531602 C165.886562,55.8751642 155.857539,59.6069864 155.539491,40.4504914 C155.218906,21.1423105 163.067557,0.749476027 163.067557,0.749476027 L169.786203,0.749476027 C169.786203,0.749476027 157.719925,48.2496655 165.728869,48.2777362 C166.137685,48.2792153 167.295923,47.7541765 168.73436,47.0079832 C168.335065,45.1952889 168.091369,43.0269193 168.044584,40.4504914 C167.891113,31.9866005 172.430462,25.8458445 180.130189,25.8447216 C183.764624,25.8447216 186.785172,28.0364854 186.785172,33.1711859 C186.785172,33.6894432 186.727584,34.2165191 186.614096,34.7448323 C186.47665,36.5076204 183.090063,42.2518642 177.525944,47.5143391 C178.047882,47.8884093 178.718171,48.1317699 179.578828,48.1317699 C183.350819,48.1317699 185.664261,46.7753916 187.078474,45.2191495 L189.222529,46.1915201 C188.425613,47.8723963 187.088705,49.7318024 184.865072,51.6877719 C181.377514,54.7508513 174.938322,57.3928679 171.115985,52.5531602 Z M181.2511,34.2154176 C181.2511,33.4339281 180.979398,31.429677 178.637535,31.429677 C174.646137,31.429677 172.940897,38.6988771 174.397172,43.5057114 C174.397172,43.5057114 181.2511,38.0757064 181.2511,34.2154176 Z M138.586854,48.2777374 C142.370213,48.2777374 145.605899,41.6721302 147.15312,38.2340254 C149.022063,34.0795552 148.233106,31.8440011 144.645281,31.8440011 C142.135167,31.8440011 136.73951,33.3230554 136.73951,39.5053562 C136.73951,42.6402969 137.031675,48.2777374 138.586854,48.2777374 Z" id="Humble_Black" fill="#000000"/>
    </g>
</svg>
