<?xml version="1.0" encoding="utf-8"?><!-- Uploaded to: SVG Repo, www.svgrepo.com, Generator: SVG Repo Mixer Tools -->
<svg width="800px" height="800px" viewBox="0 0 1024 1024" xmlns="http://www.w3.org/2000/svg">
   <circle cx="512" cy="512" r="512" style="fill:#cc2929"/>
   <path d="M344.3 767.9c2.6-9.9 4.9-19.2 7.3-28.5 14.8-57.9 28.2-116 38.8-174.9 5.2-28.8 9.5-57.8 13.5-86.9 3-21.9 4.6-44 4.2-66.2-.2-11.9-.7-23.8-4.1-35.3-1.5-5.1-3.7-10.1-6.4-14.6-3.5-5.8-9.2-8.1-16-7.9-18.8.6-34.8 7.7-48.5 20.5-15.5 14.5-25.6 32.6-33.1 52.2-3.5 9.3-6.1 18.9-9 28.4-.4 1.4-.6 2.6-2.5 2.6-10.5-.1-21.1-.1-31.7-.1-.3 0-.5-.2-.8-.2 0-4.1-.4-8.2.1-12.2 7.4-60.9 33.5-112.4 78.2-154.1 16.7-15.7 36.6-26.5 59.2-31.4 33.2-7.2 59.6 5.5 75.4 35.8 8 15.4 12.3 31.9 15.1 48.9 4.5 27.5 4.7 55.2 3.7 82.9-.3 9-.9 17.9-1.3 26.9v3.8c1.2.1 2.2.2 3.3.2 19.3 0 38.6 0 58 .1 2.6 0 3.4-1 3.8-3.4 12.3-66.4 29.2-131.6 51-195.5.5-1.6 1.1-2.6 3.1-2.6 23.9.1 47.8.1 71.7.1.4 0 .7.1 1.5.2l-4.1 16.1c-16.1 62.6-30.6 125.6-42.4 189.1-6.1 33-11.4 66.1-14.7 99.5-1.8 18.7-3 37.4-2.4 56.1.3 11.3 1.2 22.7 4.7 33.5 1.4 4.3 3.4 8.5 5.8 12.4 3.6 5.5 9.1 7.8 15.8 7.6 24.7-.7 43.6-12.6 58.6-31.4 15.1-18.8 24.2-40.5 30.6-63.6.6-2.1 1.3-4.3 1.6-6.5.3-1.7 1.2-2.2 2.8-2.2 10 0 19.9.1 29.9 0 2.2 0 2.6.9 2.5 2.8-.3 17.2-3.3 33.8-8.3 50.1-12.6 41.1-33.2 77.5-63.8 107.9-17.3 17.3-37.6 30-61.4 36.4-14.4 3.9-28.9 4.5-43.2-.6-16.2-5.8-27.2-17.4-35.4-32.1-8.6-15.5-13.1-32.3-16-49.5-5.1-30-5.1-60.2-3.7-90.5.9-19 2.7-37.9 4.1-56.9.3-4.1.3-4.1-3.7-4.1h-54.7c-2.2 0-3.3.5-3.6 2.9-5.8 38.7-13.6 77-22.9 114.9-9.7 39.3-20.8 78.2-33.9 116.5-.9 2.7-2.2 3.4-5 3.4-22.7-.1-45.4-.1-68.2-.1l-3.5-.5z" style="fill:#fff"/>
</svg>