<?xml version="1.0" encoding="UTF-8"?>
<svg  xmlns="http://www.w3.org/2000/svg" viewBox="0 0 24 24" fill="none"><path d="M7.82 15.333A7.33 7.33 0 0 0 4.787 20H1.333v-4.667A4.666 4.666 0 0 1 6.82 10.74a5.2 5.2 0 0 0-.153 1.293 5.33 5.33 0 0 0 1.153 3.3M6 8.7a3 3 0 1 0-2.773-1.851A2.99 2.99 0 0 0 6 8.699m12 0a3 3 0 1 0-2.773-1.851A2.99 2.99 0 0 0 18 8.699m3.333 3.367A4.67 4.67 0 0 0 18 10.7q-.414 0-.82.073c.102.412.154.836.153 1.26a5.33 5.33 0 0 1-1.153 3.334 7.33 7.33 0 0 1 3.033 4.666h3.454v-4.666a4.67 4.67 0 0 0-1.334-3.3M12 14.7a2.667 2.667 0 1 0 0-5.333 2.667 2.667 0 0 0 0 5.333m0 2a4.667 4.667 0 0 0-4.667 4.667h9.334A4.666 4.666 0 0 0 12 16.7" fill="currentColor"/></svg>
