<?xml version="1.0" encoding="UTF-8" standalone="no"?>
<!-- Created with Inkscape (http://www.inkscape.org/) -->

<svg
   width="67.442848mm"
   height="67.514137mm"
   viewBox="0 0 67.442848 67.514137"
   version="1.1"
   id="svg1"
   xml:space="preserve"
   xmlns="http://www.w3.org/2000/svg"
   xmlns:svg="http://www.w3.org/2000/svg"><defs
     id="defs1" /><g
     id="layer1"
     transform="translate(-59.547361,-27.41896)"><path
       style="fill:#cb1427;fill-opacity:1"
       d="M 89.317182,94.736031 C 76.605413,93.145941 65.715932,84.494251 61.440441,72.587971 59.503503,67.194032 58.998286,59.880609 60.178628,54.322208 62.634259,42.758286 70.874459,33.244013 81.846644,29.303952 c 6.999038,-2.513322 15.878778,-2.513322 22.877816,0 11.15034,4.004037 19.47688,13.820169 21.80975,25.711481 0.60801,3.099176 0.60801,9.168084 0,12.267259 -2.39939,12.230344 -11.2144,22.322409 -22.68154,25.967479 -4.52915,1.43968 -10.238743,2.02333 -14.535488,1.48586 z M 103.13056,75.698603 c 4.3505,-1.362148 8.13999,-4.925519 9.71511,-9.135409 0.72052,-1.925766 1.17039,-4.929961 0.95417,-6.371846 l -0.1738,-1.158952 -5.47389,8.68e-4 -5.47389,8.68e-4 -2.54312,2.843403 -2.543123,2.843403 4.735533,0.132291 4.73553,0.132292 -0.75887,1.195826 c -0.95849,1.510388 -2.17123,2.538539 -4.02283,3.410527 -1.21012,0.569893 -1.83491,0.685313 -3.709725,0.685313 -2.014048,0 -2.442936,-0.09276 -4.020968,-0.869618 -1.951803,-0.96087 -3.399511,-2.411924 -4.440878,-4.451143 -0.567467,-1.111221 -0.660687,-1.648565 -0.660517,-3.807363 1.59e-4,-2.023585 0.112554,-2.75683 0.576599,-3.761642 0.809526,-1.752892 2.795856,-3.774646 4.549137,-4.630267 1.283514,-0.626369 1.816783,-0.727148 3.869899,-0.731346 2.026243,-0.0041 2.602933,0.09908 3.868213,0.692351 0.81783,0.383472 1.95722,1.122073 2.53198,1.641337 l 1.04503,0.944117 2.09317,-2.10552 2.09317,-2.105519 -1.05328,-1.043386 c -4.64512,-4.601474 -12.455268,-5.442327 -18.295555,-1.969727 -7.1405,4.245699 -9.525341,13.742194 -5.242262,20.87481 2.282486,3.801024 6.176685,6.48662 10.53772,7.267233 1.885352,0.337472 5.119477,0.09954 7.107447,-0.522901 z M 81.379302,61.281355 c 0,-7.494323 -0.04717,-13.626041 -0.10482,-13.626041 -0.05765,0 -1.367338,0.589539 -2.910416,1.310088 l -2.805597,1.310089 V 61.28611 72.296729 l 2.711979,1.288769 c 1.491589,0.708824 2.801276,1.296224 2.910417,1.305334 0.109141,0.0091 0.198437,-6.115155 0.198437,-13.609477 z"
       id="path1" /></g></svg>
