<svg width="24" height="9.311" viewBox="0 0 24 9.311"><style>.st1{fill:#0068b5}</style><path d="M0 2.1h28.1v28.1H0z" style="fill:#04c7fd" transform="scale(.06182 .06183)"/><path d="M1.694 9.181V2.924H.049v6.257zm10.93.062V7.71c-.24 0-.445-.013-.593-.037a.67.67 0 0 1-.39-.174.7.7 0 0 1-.173-.37 4 4 0 0 1-.037-.606V4.334h1.193v-1.41h-1.193V.482h-1.65v6.053q0 .771.13 1.292.13.511.438.829c.204.21.476.358.804.451q.502.138 1.255.136zm9.447-.062V0h-1.65v9.181ZM8.191 3.536c-.457-.494-1.1-.741-1.916-.741-.396 0-.754.08-1.082.24-.321.161-.6.384-.816.668l-.093.118v-.897H2.658v6.257h1.639V5.85v.228-.11q.025-.881.433-1.3c.29-.296.642-.444 1.044-.444.476 0 .841.148 1.082.433.235.284.359.686.359 1.199v3.32h1.663V5.626c.006-.89-.229-1.595-.686-2.09M19.568 6.04q-.001-.674-.235-1.267a3.4 3.4 0 0 0-.661-1.033 3 3 0 0 0-1.02-.692 3.35 3.35 0 0 0-1.311-.247 3.25 3.25 0 0 0-2.306.946c-.29.29-.525.636-.692 1.032a3.15 3.15 0 0 0-.254 1.274c0 .451.08.878.241 1.273.161.396.39.742.674 1.033s.637.525 1.045.692c.408.173.86.26 1.341.26 1.398 0 2.263-.637 2.783-1.23l-1.187-.903c-.248.297-.841.699-1.583.699-.464 0-.847-.105-1.138-.322a1.6 1.6 0 0 1-.593-.872l-.019-.055h4.915zm-4.902-.575c0-.457.525-1.255 1.656-1.26 1.132 0 1.664.797 1.664 1.254zM23.95 8.365a.6.6 0 0 0-.13-.192.615.615 0 0 0-.427-.18.6.6 0 0 0-.234.05.6.6 0 0 0-.191.13.615.615 0 0 0-.18.427c0 .087.019.16.05.235q.046.11.13.192a.615.615 0 0 0 .427.18c.086-.001.16-.02.234-.05a.6.6 0 0 0 .192-.13A.615.615 0 0 0 24 8.6q-.003-.121-.05-.235m-.098.433a.48.48 0 0 1-.266.266.535.535 0 0 1-.396 0 .48.48 0 0 1-.266-.266.536.536 0 0 1 0-.396.48.48 0 0 1 .266-.266.535.535 0 0 1 .396 0 .48.48 0 0 1 .266.266.5.5 0 0 1 .037.198.4.4 0 0 1-.037.198m-.347-.149a.2.2 0 0 0 .118-.055c.03-.031.05-.074.05-.136q0-.1-.062-.155c-.038-.037-.106-.055-.186-.055h-.272v.698h.13v-.284h.093l.173.284h.136zm-.068-.098h-.154v-.198h.154a.2.2 0 0 1 .056.012c.019.006.031.019.037.031s.013.03.013.056a.1.1 0 0 1-.013.055q-.018.02-.037.031a.2.2 0 0 1-.056.013" class="st1"/></svg>