<svg xmlns="http://www.w3.org/2000/svg" height="1em" viewBox="0 0 448 512" aria-label="itch.io"><!--
  Simplified itch.io mark. The official brand glyph is more detailed; this
  vector keeps shape, weight and proportions close enough to read as the
  itch.io logo at the small sizes the Login/Sidebar render at.
-->
<path d="M71.92 34.77C50.2 47.67 7.4 96.84 7 109.73v21.34c0 27.06 25.29 50.84 48.25 50.84 27.57 0 50.54-22.85 50.54-50 0 27.12 22.18 50 49.76 50 27.57 0 49.06-22.85 49.06-50 0 27.12 23.36 50 50.94 50h.49c27.57 0 50.93-22.85 50.93-50 0 27.12 21.49 50 49.06 50 27.58 0 49.76-22.85 49.76-50 0 27.12 23 50 50.54 50 22.96 0 48.25-23.78 48.25-50.84v-21.34c-.4-12.9-43.2-62.06-64.92-74.96C372.39 32.4 325.07 32 224 32S75.61 32.4 71.92 34.77zM276.67 191c-25.42 0-30.7-1.46-30.7 11.81 0 32.55-49.95 32.59-49.95 0 0-13.27-5.28-11.81-30.7-11.81-7.27 0-13.92 6.27-13.92 12.55 0 35.18-31.84 35.86-39.77 22.65-3.34-5.56-3.91-15.79-3.91-22.65 0-13.51-30.96-13.18-30.96 0v152.35c0 33.21 4.92 65.1 23.07 65.1h59.13c11.81 0 20.93-9.5 20.93-21.3 0-23.4 13.35-43.66 32.13-43.66 18.79 0 32.13 20.26 32.13 43.66 0 11.81 9.12 21.3 20.93 21.3h59.13c18.15 0 23.07-31.89 23.07-65.1V203.55c0-13.18-30.96-13.51-30.96 0 0 6.86-.57 17.09-3.91 22.65-7.93 13.21-39.77 12.53-39.77-22.65 0-6.28-6.65-12.55-13.92-12.55h-2.95zm-105.55 75.86c12.69 0 25.92 12.94 31.45 25.55l4.49 10.24c2.7-15.62 14.21-23.4 32.74-23.4 18.79 0 30.04 7.78 32.74 23.4l4.49-10.24c5.53-12.61 18.76-25.55 31.45-25.55 10.31 0 25.69 9.49 12.16 35.31-3.31 6.32-13.32 11.69-23.84 11.69 14.48 23.59 21.5 47.83 16.61 64.61-5.33 18.31-31.49 18.93-49.95 9.43-15.91-8.18-23.18-26.94-23.66-48.26-.48 21.32-7.75 40.08-23.66 48.26-18.46 9.5-44.62 8.88-49.95-9.43-4.89-16.78 2.13-41.02 16.61-64.61-10.52 0-20.53-5.37-23.84-11.69-13.53-25.82 1.85-35.31 12.16-35.31z"/>
</svg>
