<svg
   viewBox="0 0 24.000004 4.5570588"
   width="24.000004"
   height="4.5570588"
   version="1.1">
  <g transform="scale(0.02535926)">
    <path
       d="m 578.2,34 v 118 h 33.3 V 34 Z m -262,-0.2 v 118.1 h 33.6 V 60.2 l 26.2,0.1 c 8.6,0 14.6,2.1 18.7,6.5 5.3,5.6 7.4,14.7 7.4,31.2 v 53.9 h 32.6 V 86.7 C 434.7,40.1 405,33.8 376,33.8 Z M 631.9,34 v 118 h 54 c 28.8,0 38.2,-4.8 48.3,-15.5 C 741.4,129 746,112.4 746,94.3 746,77.7 742.1,62.9 735.2,53.7 723,37.2 705.2,34 678.6,34 Z m 33,25.6 h 14.3 c 20.8,0 34.2,9.3 34.2,33.5 0,24.2 -13.4,33.6 -34.2,33.6 H 664.9 Z M 530.2,34 502.4,127.5 475.8,34 h -36 l 38,118 h 48 L 564.2,34 Z m 231.4,118 h 33.3 V 34 H 761.6 Z M 855,34 808.5,151.9 h 32.8 l 7.4,-20.9 h 55 l 7,20.8 h 35.7 L 899.5,34 Z m 21.6,21.5 20.2,55.2 h -41 z" />
    <path
       d="M 101.3,53.6 V 37.4 c 1.6,-0.1 3.2,-0.2 4.8,-0.2 44.4,-1.4 73.5,38.2 73.5,38.2 0,0 -31.4,43.6 -65.1,43.6 -4.5,0 -8.9,-0.7 -13.1,-2.1 V 67.7 c 17.3,2.1 20.8,9.7 31.1,27 l 23.1,-19.4 c 0,0 -16.9,-22.1 -45.3,-22.1 -3,-0.1 -6,0.1 -9,0.4 m 0,-53.6 v 24.2 l 4.8,-0.3 c 61.7,-2.1 102,50.6 102,50.6 0,0 -46.2,56.2 -94.3,56.2 -4.2,0 -8.3,-0.4 -12.4,-1.1 v 15 c 3.4,0.4 6.9,0.7 10.3,0.7 44.8,0 77.2,-22.9 108.6,-49.9 5.2,4.2 26.5,14.3 30.9,18.7 -29.8,25 -99.3,45.1 -138.7,45.1 -3.8,0 -7.4,-0.2 -11,-0.6 v 21.1 H 271.7 V 0 Z m 0,116.9 v 12.8 C 59.9,122.3 48.4,79.2 48.4,79.2 c 0,0 19.9,-22 52.9,-25.6 v 14 h -0.1 C 83.9,65.5 70.3,81.7 70.3,81.7 c 0,0 7.7,27.3 31,35.2 M 27.8,77.4 c 0,0 24.5,-36.2 73.6,-40 V 24.2 C 47,28.6 0,74.6 0,74.6 c 0,0 26.6,77 101.3,84 v -14 C 46.5,137.8 27.8,77.4 27.8,77.4 Z"
       fill="#76b900" />
  </g>
</svg>
