<svg width="24" height="4.557" viewBox="0 0 24 4.557"><path d="M14.663.862v2.993h.844V.862ZM8.019.857v2.995h.852V1.527l.664.002c.218 0 .37.053.474.165.135.142.188.373.188.791v1.367h.827V2.2c0-1.182-.753-1.342-1.489-1.342Zm8.006.005v2.993h1.369c.73 0 .969-.122 1.225-.393.182-.19.299-.612.299-1.07 0-.422-.099-.797-.274-1.03-.31-.419-.76-.5-1.435-.5Zm.836.65h.363c.527 0 .867.235.867.849s-.34.852-.867.852h-.363Zm-3.416-.65-.705 2.371-.674-2.37h-.913l.964 2.992h1.217l.974-2.993Zm5.869 2.993h.844V.862h-.844ZM21.682.862l-1.179 2.99h.832l.187-.53h1.395l.178.528H24L22.81.862Zm.548.545.512 1.4h-1.04z"/><path fill="#76b900" d="M2.569 1.36V.947q.06-.004.122-.005c1.126-.035 1.864.97 1.864.97s-.797 1.105-1.651 1.105q-.172 0-.333-.054V1.717c.44.053.528.246.79.685l.585-.492s-.429-.56-1.149-.56a2 2 0 0 0-.228.01m0-1.36v.614L2.69.606C4.255.553 5.277 1.89 5.277 1.89S4.106 3.314 2.886 3.314q-.159 0-.315-.027v.38q.131.016.262.018c1.136 0 1.957-.581 2.754-1.266.132.107.672.363.783.474-.755.634-2.518 1.144-3.517 1.144q-.143 0-.279-.015v.535H6.89V0Zm0 2.964v.325c-1.05-.188-1.342-1.28-1.342-1.28s.505-.558 1.342-.65v.355h-.003c-.438-.053-.783.358-.783.358s.195.692.786.892M.705 1.963s.621-.918 1.866-1.015V.614C1.191.725 0 1.892 0 1.892s.675 1.952 2.569 2.13v-.355C1.179 3.495.705 1.963.705 1.963"/></svg>