<svg xmlns="http://www.w3.org/2000/svg" xml:space="preserve" fill="current" viewBox="0 0 24 23.943"><path d="M18.156 0c1.453.638 1.908 2.384 1.672 3.834-.164 1.232-.496 2.432-.753 3.646-1.191-.6-.82-2.067-.718-3.122-.047-.945.339-2.525-.07-3.068-2.42.557-3.806 2.811-5.213 4.645-2.936 4.083-5.125 8.79-5.903 13.782.135.915-.603 2.807.665 2.967 1.196-.496 2.095-1.47 3.019-2.34.49-.538 2.473-.64 1.316.268-1.19 1.477-2.625 3.104-4.62 3.331-1.53.003-1.611-1.81-1.657-2.963-.253-1.862.952-3.81.009-5.588-.433-.4-.817-1.433.072-.755.499.722 1.641.29.956-.49-2.716-1.676-5.41-3.697-6.894-6.603-.281-1.32 1.12-2.229 2.292-2.226 1.792.084 3.56.516 5.349.58 1.265-.852 2.778-1.232 4.287-1.366 1.344-.317 1.829-1.904 2.93-2.653C15.786 1.104 16.78.321 17.922 0zM2.245 8.745l2.277 2.374 1.764-4.21c-1.528-.173-3.097-.538-4.609-.051-.522.138.47 1.442.568 1.887zm5.013 4.152c.634-.846.087-2.126.737-3.05.463-1.07 1.462-1.726 2.388-2.353.568-.418 1.361-1.695.043-1.119-1.965.556-3.53 2.21-3.959 4.21-.354.872-.176 1.931.79 2.312z"/><path d="M23.998 18.101c-1.195 1.396-3.195 1.406-4.846 1.024-3.56-.618-6.93-2.02-10.112-3.7l3.8-7.963c1.614.398 3.091 1.616 3.394 3.31.399 1.219.096 2.6-.839 3.493-.403.696-2.056 1.545-1.882 1.968 1.398.875 2.386-.661 3.172-1.601 1.295-1.948 1.196-4.775-.497-6.465-.684-.744-1.531-1.321-2.426-1.782.516-.757 1.049-1.69 1.931-.757 2.893 1.704 4.195 5.576 2.902 8.679-.457 1.192-1.204 2.257-2.1 3.16 1.892.163 3.78.454 5.68.482 1.414-.658-.637-2.117-1.083-2.903-.724-.55-1.62-2.026-.863-2.44 1.718 1.375 3.833 3.07 3.769 5.495zM10.336 18.821c-.867-.41-2.504-.484-1.649-1.741.215-1.18 1.667.352 2.463.445.759.47 2.086.666 2.48 1.31-1.098 0-2.196 0-3.294-.014"/></svg>