<?xml version="1.0" encoding="UTF-8"?>
<svg enable-background="new 0 0 108 108" version="1.1" viewBox="0 0 24 23.943" xml:space="preserve" xmlns="http://www.w3.org/2000/svg" fill="current">
    <path d="m18.156 0c1.4528 0.6384 1.9082 2.3838 1.6722 3.8344-0.16374 1.2313-0.49642 2.432-0.75322 3.6456-1.1914-0.60028-0.82056-2.0666-0.71767-3.1218-0.04683-0.94567 0.33869-2.5254-0.07008-3.0681-2.4204 0.55737-3.8058 2.8111-5.2129 4.6445-2.9365 4.0836-5.1257 8.7904-5.9036 13.782 0.13535 0.91554-0.6023 2.8076 0.66502 2.9676 1.1961-0.49611 2.0955-1.4704 3.019-2.3405 0.48932-0.53727 2.4737-0.6405 1.3166 0.26844-1.1897 1.4764-2.6257 3.1036-4.6207 3.3312-1.5303 3e-3 -1.611-1.8105-1.6566-2.9631-0.25298-1.8621 0.9521-3.8109 0.0088-5.5881-0.43312-0.39962-0.81734-1.4327 0.07197-0.7547 0.4989 0.72153 1.6413 0.28875 0.95636-0.4901-2.7157-1.6768-5.4106-3.6969-6.8945-6.6032-0.28089-1.3193 1.1199-2.2289 2.292-2.2263 1.7925 0.08435 3.5597 0.51641 5.3489 0.57964 1.2656-0.85139 2.7787-1.231 4.287-1.3659 1.3442-0.31648 1.8291-1.9035 2.9305-2.6525 0.89138-0.77478 1.8848-1.5582 3.0268-1.8787h0.2343zm-15.911 8.7447c0.75901 0.79142 1.518 1.5828 2.2771 2.3743 0.58792-1.4033 1.1759-2.8067 1.7638-4.2098-1.5277-0.1729-3.0971-0.53795-4.6085-0.05161-0.52267 0.13804 0.47053 1.4425 0.56771 1.8873zm5.0126 4.1521c0.6346-0.84609 0.08699-2.1259 0.73691-3.049 0.46369-1.0704 1.4627-1.7268 2.388-2.3534 0.56844-0.41863 1.3618-1.695 0.04301-1.1191-1.9641 0.55559-3.5304 2.2105-3.9582 4.2094-0.35431 0.87241-0.17648 1.9316 0.79031 2.3119z" stroke-width=".22187"/>
    <path d="m23.998 18.101c-1.1948 1.3962-3.1954 1.406-4.8457 1.0237-3.5604-0.61745-6.9309-2.0197-10.112-3.6997 1.2667-2.6543 2.5334-5.3085 3.8-7.963 1.6135 0.39817 3.0907 1.6164 3.394 3.3104 0.39857 1.2184 0.09544 2.599-0.83895 3.4921-0.40352 0.69699-2.056 1.5451-1.8824 1.968 1.3978 0.87593 2.386-0.66067 3.1719-1.6007 1.2956-1.9474 1.1965-4.7745-0.49697-6.4652-0.68417-0.74376-1.5311-1.321-2.426-1.7819 0.51612-0.75648 1.0489-1.6901 1.9312-0.75626 2.8932 1.7035 4.1954 5.5752 2.9019 8.6784-0.45688 1.192-1.2039 2.2576-2.1 3.1606 1.8925 0.16217 3.7805 0.45369 5.6806 0.48202 1.4132-0.65894-0.63753-2.1171-1.0835-2.9032-0.72382-0.55027-1.6205-2.0262-0.86338-2.4408 1.7182 1.3752 3.8329 3.0714 3.769 5.4958z" stroke-width=".22187"/>
    <path d="m10.336 18.821c-0.86666-0.41093-2.5041-0.48355-1.6486-1.7411 0.21472-1.1803 1.6669 0.35189 2.4628 0.44546 0.75874 0.469 2.0855 0.66544 2.4794 1.3096-1.0979 1.66e-4 -2.1958-5.32e-4 -3.2935-0.01392z" stroke-width=".22187"/>
</svg>
