<svg xmlns="http://www.w3.org/2000/svg" width="26" height="26" fill="none" viewBox="0 0 26 26"><path fill="#607276" fill-rule="evenodd" d="M19.224 9.31a1 1 0 0 1-.034 1.414l-7.337 7a1 1 0 0 1-1.381-.001l-3.663-3.5a1 1 0 0 1 1.382-1.446l2.972 2.84 6.647-6.34a1 1 0 0 1 1.414.033" clip-rule="evenodd"/><path fill="#607276" fill-rule="evenodd" d="M13 2C6.925 2 2 6.925 2 13s4.925 11 11 11 11-4.925 11-11S19.075 2 13 2M0 13C0 5.82 5.82 0 13 0s13 5.82 13 13-5.82 13-13 13S0 20.18 0 13" clip-rule="evenodd"/></svg>