<svg xmlns="http://www.w3.org/2000/svg" width="24" height="24" fill="none" viewBox="0 0 24 24"><path fill="#607276" d="M22.5 18H11.681a3.74 3.74 0 0 0-3.431-2.25A3.74 3.74 0 0 0 4.819 18H1.5a1.5 1.5 0 0 0 0 3h3.316a3.75 3.75 0 0 0 3.434 2.25A3.75 3.75 0 0 0 11.684 21H22.5a1.5 1.5 0 0 0 0-3M8.25 21c-.827 0-1.5-.673-1.5-1.5s.673-1.5 1.5-1.5 1.5.673 1.5 1.5-.675 1.5-1.5 1.5M22.5 10.5h-3.316a3.744 3.744 0 0 0-6.865 0H1.5a1.5 1.5 0 1 0 0 3h10.819a3.744 3.744 0 0 0 6.865 0H22.5a1.5 1.5 0 0 0 0-3m-6.75 3c-.827 0-1.5-.673-1.5-1.5s.673-1.5 1.5-1.5 1.5.673 1.5 1.5-.675 1.5-1.5 1.5M1.5 6h4.819a3.743 3.743 0 0 0 6.865 0H22.5a1.5 1.5 0 0 0 0-3h-9.319A3.741 3.741 0 0 0 6.32 3H1.5a1.5 1.5 0 0 0 0 3m8.25-3c.827 0 1.5.673 1.5 1.5S10.577 6 9.75 6s-1.5-.673-1.5-1.5S8.925 3 9.75 3"/></svg>