<?xml version="1.0" encoding="UTF-8"?>
<svg xmlns="http://www.w3.org/2000/svg" viewBox="0 0 256 256">
<path class="cls-1" d="M127.78 0C65.41 0 14.18 48.11 9.5 109.27l68.71 28.41a36.05 36.05 0 0 1 20.37-6.28c.67 0 1.34.02 2 .05l30.56-44.29v-.62c0-26.66 21.69-48.35 48.36-48.35s48.35 21.69 48.35 48.35-21.69 48.36-48.35 48.36c-.37 0-.73-.01-1.1-.02l-43.58 31.11c.02.56.04 1.13.04 1.7 0 20.02-16.25 36.27-36.27 36.27-17.57 0-32.27-12.52-35.62-29.12L13.3 154.2C27.5 207.83 76.5 247.55 127.78 247.55c70.43 0 127.78-57.35 127.78-127.78S198.21 0 127.78 0z"/>
<path class="cls-1" d="M80.31 187.86l-15.74-6.51a27.23 27.23 0 0 0 14.13 13.39c12.85 5.36 27.71-.74 33.07-13.61a25.26 25.26 0 0 0 .02-19.37 25.22 25.22 0 0 0-13.6-13.69 25.3 25.3 0 0 0-18.74-.39l16.26 6.73c9.49 3.96 13.98 14.85 10.03 24.33-3.96 9.48-14.85 13.97-24.33 10.02z"/>
<path class="cls-1" d="M211.71 86.99c0-17.76-14.46-32.21-32.22-32.21s-32.23 14.45-32.23 32.21 14.46 32.22 32.23 32.22 32.22-14.45 32.22-32.22zm-56.37-.05c0-13.35 10.83-24.18 24.19-24.18s24.18 10.83 24.18 24.18-10.82 24.18-24.18 24.18-24.19-10.82-24.19-24.18z"/>
</svg>
