<svg
   width="24"
   height="24"
   viewBox="0 0 24 24">
  <g transform="matrix(0.46635699,0,0,0.46635699,-31.807499,-26.282329)">
    <g>
      <path
         d="m 86.419972,107.81982 v -9.23713 c 9.094965,0 16.494828,-7.399162 16.494828,-16.494479 0,-9.095317 -7.399863,-16.494829 -16.494828,-16.494829 v -9.237133 c 14.188368,0 25.731608,11.543242 25.731608,25.731962 0,14.188371 -11.54324,25.731609 -25.731608,25.731609"
         style="fill:#201d1c;fill-opacity:1;fill-rule:nonzero;stroke:none;stroke-width:0.0352777" />
      <path
         d="m 86.419972,69.247807 c 7.10565,0 12.865803,5.760509 12.865803,12.866159 0,7.105649 -5.760153,12.865803 -12.865803,12.865803 -7.10565,0 -12.865806,-5.760154 -12.865806,-12.865803 0,-7.10565 5.760156,-12.866159 12.865806,-12.866159"
         style="fill:#5b96d6;fill-opacity:1;fill-rule:nonzero;stroke:none;stroke-width:0.0352777" />
      <path
         d="m 110.32031,64.537166 h -0.70626 v -0.419807 h 1.90183 v 0.419807 h -0.70591 v 1.912056 h -0.48966 v -1.912056"
         style="fill:#211d1d;fill-opacity:1;fill-rule:nonzero;stroke:none;stroke-width:0.0352777" />
      <path
         d="m 114.31693,64.117359 v 2.331863 h -0.46955 v -1.482373 l -0.62618,1.415698 h -0.29633 l -0.63959,-1.399116 v 1.465791 h -0.44626 v -2.331863 h 0.46955 l 0.78634,1.655588 0.72602,-1.655588 h 0.496"
         style="fill:#211d1d;fill-opacity:1;fill-rule:nonzero;stroke:none;stroke-width:0.0352777" />
    </g>
  </g>
</svg>
