<svg width="24" height="24" viewBox="0 0 24 24"><path d="M86.42 107.82v-9.237c9.095 0 16.495-7.4 16.495-16.495s-7.4-16.495-16.495-16.495v-9.237c14.188 0 25.732 11.543 25.732 25.732S100.608 107.82 86.42 107.82" style="fill:#201d1c;fill-opacity:1;fill-rule:nonzero;stroke:none;stroke-width:.0352777" transform="translate(-31.807 -26.282)scale(.46636)"/><path d="M86.42 69.248c7.106 0 12.866 5.76 12.866 12.866S93.526 94.98 86.42 94.98s-12.866-5.76-12.866-12.866 5.76-12.866 12.866-12.866" style="fill:#5b96d6;fill-opacity:1;fill-rule:nonzero;stroke:none;stroke-width:.0352777" transform="translate(-31.807 -26.282)scale(.46636)"/><path d="M110.32 64.537h-.706v-.42h1.902v.42h-.706v1.912h-.49zM114.317 64.117v2.332h-.47v-1.482l-.626 1.416h-.296l-.64-1.4v1.466h-.446v-2.332h.47l.786 1.656.726-1.656z" style="fill:#211d1d;fill-opacity:1;fill-rule:nonzero;stroke:none;stroke-width:.0352777" transform="translate(-31.807 -26.282)scale(.46636)"/></svg>