<svg width="24" height="24" viewBox="0 0 24 24" fill="none" xmlns="http://www.w3.org/2000/svg">
<path d="M12 0C5.373 0 0 5.373 0 12C0 18.627 5.373 24 12 24C18.627 24 24 18.627 24 12C24 5.373 18.627 0 12 0ZM12 2.4C17.304 2.4 21.6 6.696 21.6 12C21.6 17.304 17.304 21.6 12 21.6C6.696 21.6 2.4 17.304 2.4 12C2.4 6.696 6.696 2.4 12 2.4ZM12 5.4C8.364 5.4 5.4 8.364 5.4 12C5.4 15.636 8.364 18.6 12 18.6C15.636 18.6 18.6 15.636 18.6 12C18.6 8.364 15.636 5.4 12 5.4ZM12 7.8C14.316 7.8 16.2 9.684 16.2 12C16.2 14.316 14.316 16.2 12 16.2C9.684 16.2 7.8 14.316 7.8 12C7.8 9.684 9.684 7.8 12 7.8Z" fill="#007bff"/>
</svg>
