<?xml version="1.0" encoding="UTF-8"?>
<svg xmlns="http://www.w3.org/2000/svg" viewBox="0 0 29.31 25.71">
<path class="cls-1" d="m26.87,21.13c.01.5-.4.91-.9.91h-.39c-.28,0-.49.23-.49.51.02.55-.15,1.15-.63,1.78-.67.89-1.74,1.38-2.85,1.38H.94c-.45,0-.85-.31-.93-.76-.1-.57.34-1.06.89-1.06h2.57c.29,0,.52-.25.48-.54-.03-.25-.04-.5,0-.75.05-.3-.18-.57-.48-.57H.93c-.5,0-.92-.39-.93-.88-.01-.5.4-.92.9-.92h3.8c.16,0,.31-.08.4-.22.12-.19.26-.38.41-.58.24-.32.01-.77-.39-.78h-.05c-.5,0-.92-.39-.93-.88-.01-.5.4-.91.9-.91h2.63l1.52-1.57c.26-.27.63-.43,1-.43h2.99c.5,0,.92-.39.93-.88.01-.5-.4-.91-.9-.91h-.73c-.43,0-.65-.52-.35-.82l4.68-4.84c.4-.41.6-.79.6-1.11,0-.64-.49-.87-1.44-.87H5.35c-.5,0-.93-.39-.94-.89-.01-.51.4-.92.9-.92h1.45c.44,0,.84-.3.92-.74.1-.57-.34-1.09-.89-1.09h-1.53c-.52-.03-.92-.49-.84-1.03.07-.44.47-.76.92-.76h23.04c.5,0,.92.39.93.88.01.5-.4.91-.9.91h-.53c-.3,0-.52.26-.48.55.14.98-.18,2.63-1.9,4.41l-11.21,11.55c-.91.94-.75,1.73.28,1.93h11.35c.52.02.95.41.95.9Z"/>
</svg>